<?xml version="1.0" encoding="UTF-8" standalone="no"?>
<svg xmlns="http://www.w3.org/2000/svg" xmlns:xlink="http://www.w3.org/1999/xlink" width="409" height="434" version="1.0" viewBox="0 0 177.00001 198">
  <defs>
    <radialGradient xlink:href="#a" id="b" cx="221.44487" cy="226.33101" r="300" fx="221.44487" fy="226.33101" gradientTransform="matrix(.3425 0 0 .36946 -5.6731371 -14.325132)" gradientUnits="userSpaceOnUse"/>
    <linearGradient id="a">
      <stop offset="0" stop-color="#fff" stop-opacity=".45378152"/>
      <stop offset=".19" stop-color="#fff" stop-opacity=".25098041"/>
      <stop offset=".60000002" stop-color="#6b6b6b" stop-opacity=".1254902"/>
      <stop offset="1" stop-opacity=".1254902"/>
    </linearGradient>
  </defs>
  <path fill="none" stroke="#000" stroke-width="6" d="M89.363188 192.15739c39.999992-26 54.999992-50 65.999992-75 11-25 12-40 12-107.9999997H12.363188c0 67.9999997 1 82.9999997 12 107.9999997s26 49 65 75z"/>
  <g transform="matrix(.63897 0 0 .6425 26.9520959 17.4518745)">
    <circle cx="98" cy="98" r="98" fill="red"/>
    <circle cx="98" cy="98" r="78" fill="#fff"/>
    <circle cx="98" cy="98" r="55" fill="red"/>
    <circle cx="98" cy="98" r="30" fill="#fff"/>
    <path fill="#fff" d="M123 85h31v25h-31z"/>
  </g>
  <path fill="url(#b)" fill-rule="evenodd" d="M89.905743 189.51877s73.038507-31.64312 75.551047-108.946851c2.53978-78.1418581 0-70.8154537 0-70.8154537H14.354688V80.571919C16.490344 156.74501 89.905743 189.51877 89.905743 189.51877z"/>
</svg>