<?xml version="1.0" encoding="UTF-8" standalone="no"?>
<svg xmlns="http://www.w3.org/2000/svg" xmlns:xlink="http://www.w3.org/1999/xlink" width="400" height="400" version="1.0">
  <defs>
    <linearGradient id="a">
      <stop offset="0" stop-color="#1aff1a"/>
      <stop offset=".46859041" stop-color="#090"/>
      <stop offset="1" stop-color="#004d00"/>
    </linearGradient>
    <linearGradient id="b">
      <stop offset="0" stop-color="#1aff1a"/>
      <stop offset=".47153795" stop-color="#090"/>
      <stop offset="1" stop-color="#004d00"/>
    </linearGradient>
    <linearGradient id="c">
      <stop offset="0" stop-color="#1aff1a"/>
      <stop offset=".5" stop-color="#090"/>
      <stop offset="1" stop-color="#004d00"/>
    </linearGradient>
    <linearGradient xlink:href="#a" id="f" x1="81.829529" x2="213.85634" y1="8.3764429" y2="243.56549" gradientUnits="userSpaceOnUse"/>
    <linearGradient xlink:href="#b" id="g" x1="81.829529" x2="213.85634" y1="8.3764429" y2="243.56549" gradientUnits="userSpaceOnUse"/>
    <linearGradient xlink:href="#c" id="e" x1="29.753853" x2="202.58235" y1="-13.269632" y2="183.58783" gradientTransform="translate(89.669573 106.93911) scale(1.20844)" gradientUnits="userSpaceOnUse"/>
    <filter id="d">
      <feGaussianBlur stdDeviation="5.0924795"/>
    </filter>
  </defs>
  <path fill="#777" fill-opacity=".79729728" d="M213.05399 47.37801c-4.21444.21749-8.0347 2.54657-10.15847 6.19326L33.940149 345.10803c-2.2394 3.86491-2.24648 8.63102-.01859 12.50258 2.2279 3.87156 6.35223 6.26023 10.81904 6.26604l336.928881.52869c4.46863.01341 8.60458-2.35943 10.84845-6.22387 2.24387-3.86443 2.25436-8.63271.02753-12.50699L224.53419 53.60904c-2.35105-4.07005-6.78637-6.47738-11.4802-6.23103zm.60422 37.46171 146.41036 254.5282-293.651531-.45316L213.65821 84.83972z" filter="url(#d)"/>
  <path fill="url(#e)" stroke="#004d00" stroke-linecap="round" stroke-linejoin="round" stroke-width="6.25" d="M199.82666 41.494396c-4.21444.217498-8.03469 2.546575-10.15847 6.193268L20.712823 339.22442c-2.239399 3.86491-2.246484 8.63102-.018585 12.50258 2.227898 3.87156 6.352222 6.26023 10.81904 6.26604l336.928872.52869c4.46863.01341 8.60459-2.35943 10.84845-6.22387 2.24387-3.86443 2.25437-8.63271.02753-12.50699L211.30686 47.725427c-2.35105-4.070046-6.78637-6.477376-11.4802-6.231031h0zm.60422 37.461717L346.84124 333.48431l-293.651525-.45316L200.43088 78.956113z"/>
  <path fill="url(#f)" stroke="url(#g)" stroke-linecap="round" stroke-linejoin="round" stroke-width="20.68778614" d="m230.71429 197.85715-278.829195-.44647L91.686339-43.839248 230.71429 197.85715z" transform="translate(89.669573 106.93911) scale(1.20844)"/>
  <path fill="#fff" d="M199.89464 117.765c-2.60447.1366-4.96532 1.5994-6.2778 3.88973L89.204984 304.75655c-1.383914 2.42736-1.388294 5.42076-.011485 7.85232 1.376807 2.43157 3.925578 3.93179 6.686005 3.93544l208.216966.33205c2.76154.00841 5.3175-1.48187 6.70417-3.90897 1.38668-2.42707 1.39316-5.42181.01702-7.85509L206.98922 121.67846c-1.45291-2.55624-4.19388-4.06817-7.09458-3.91346z"/>
  <path d="M203.68708 197.56401h-5.33337c-.55176 9.45507-2.39084 20.77633-5.51726 33.96381l-6.34485 26.87246c-3.8008 16.1109-5.70118 27.64989-5.70117 34.61696-.00001 14.05811 6.71265 21.08726 20.13802 21.08742 5.88502-.00016 10.74328-1.94406 14.57476-5.83169 3.83137-3.88795 5.7471-8.84879 5.74715-14.88249-.00005-6.40724-2.02305-18.07064-6.069-34.9902l-6.4368-26.87246c-2.26825-9.4552-3.95408-20.77645-5.05748-33.96381zm-2.48277-17.63505c6.25284-.00005 11.09576-2.13055 14.52879-6.39154 3.4329-4.26106 5.14938-8.81756 5.14944-13.6695-.00006-6.40711-2.08436-11.33683-6.2529-14.78919-4.16864-3.45237-8.64376-5.17855-13.42533-5.17855-6.31424 0-11.17248 2.11497-14.57478 6.34488-3.40232 4.22993-5.10348 8.77088-5.10346 13.62286-.00002 5.6606 1.88505 10.41927 5.65519 14.27599 3.77011 3.85666 8.44444 5.785 14.02305 5.78505z" font-family="Angsana New" font-size="333.22640991" font-weight="700" style="text-align:start;line-height:125%"/>
</svg>