<?xml version="1.0" encoding="UTF-8" standalone="no"?>
<!DOCTYPE svg PUBLIC "-//W3C//DTD SVG 1.0//EN"
"http://www.w3.org/TR/2001/REC-SVG-20010904/DTD/svg10.dtd">
<svg xmlns="http://www.w3.org/2000/svg" width="600" height="500" version="1.0">
  <defs>
    <linearGradient id="a" x1="41.1948738" x2="118.931351" y1="616.477173" y2="527.555115" gradientTransform="matrix(4.55676 0 0 -4.31503 37.49756 2758.519)" gradientUnits="userSpaceOnUse">
      <stop offset="0" stop-color="#6a3093"/>
      <stop offset="1" stop-color="#3b095e"/>
    </linearGradient>
    <linearGradient id="b" x1="530.809509" x2="174.805481" y1="486.631012" y2="211.22995" gradientTransform="matrix(.96 0 0 .96 11.68071 9.787565)" gradientUnits="userSpaceOnUse">
      <stop offset="0" stop-color="#470b71"/>
      <stop offset="1" stop-color="#63288d"/>
    </linearGradient>
    <linearGradient id="c" x1="187.873566" x2="581.837463" y1="224.598923" y2="483.100006" gradientTransform="matrix(.96 0 0 .96 11.68071 9.787558)" gradientUnits="userSpaceOnUse">
      <stop offset="0" stop-color="#9c6fba"/>
      <stop offset="1" stop-color="#5a1d84"/>
    </linearGradient>
    <linearGradient id="d" x1="250.398453" x2="412.094299" y1="101.536331" y2="264.54187" gradientTransform="matrix(.96 0 0 .96 11.68071 9.787565)" gradientUnits="userSpaceOnUse">
      <stop offset="0" stop-color="#e6d9ff"/>
      <stop offset="1" stop-color="#6a3093"/>
    </linearGradient>
    <radialGradient id="e" cx="295.471252" cy="186.096344" r="179.550003" gradientTransform="matrix(0 1.53126 -.8765 -.00002 462.7486 -245.0023)" gradientUnits="userSpaceOnUse">
      <stop offset="0" stop-color="#fff"/>
      <stop offset=".5" stop-color="#fff"/>
      <stop offset="1" stop-color="#d5d5d5"/>
    </radialGradient>
  </defs>
  <path fill-opacity=".178571" d="M287.0439 30.68461 26.88238 457.8871c-4.99204 8.1601-4.99204 18.2401 0 26.4002 4.89603 8.064 14.11208 13.1521 24.09614 13.1521H571.3016c9.888 0 19.1041-5.0881 24.0961-13.1521 4.896-8.1601 4.896-18.2401 0-26.4002L335.2362 30.68461c-4.992-8.16004-14.2081-13.24807-24.0962-13.24807-9.888 0-19.1041 5.08803-24.0961 13.24807z"/>
  <path fill="url(#a)" d="M275.5863 23.03565 15.42473 450.2381c-4.99203 8.1601-4.99203 18.2402 0 26.4002 4.89603 8.0641 14.11208 13.1521 24.09614 13.1521H559.8439c9.8881 0 19.1041-5.088 24.0962-13.1521 4.896-8.16 4.896-18.2401 0-26.4002L323.7785 23.03565c-4.992-8.16005-14.208-13.248082-24.0961-13.248082S280.5783 14.8756 275.5863 23.03565z"/>
  <path fill="url(#b)" d="M299.6824 31.7717c-1.632 0-3.168.864-4.032 2.20801L165.5696 247.581 35.48885 461.1822c-.86401 1.344-.86401 3.072 0 4.416.864 1.344 2.40001 2.208 4.03202 2.208H559.8439c1.632 0 3.168-.864 4.0321-2.208.864-1.344.864-3.072 0-4.416L303.7144 33.97971c-.864-1.34401-2.4-2.20801-4.032-2.20801z"/>
  <path fill="none" stroke="url(#c)" stroke-linejoin="round" stroke-width="11.52007" d="M299.6464 31.7717c-1.632 0-3.1681.864-4.0321 2.20801L165.5336 247.581 35.45283 461.1822c-.86401 1.344-.86401 3.072 0 4.416.864 1.344 2.40001 2.208 4.03202 2.208H559.8079c1.632 0 3.168-.864 4.032-2.208.864-1.344.864-3.072 0-4.416L303.6784 33.97971c-.864-1.34401-2.4-2.20801-4.032-2.20801z"/>
  <path fill="url(#d)" d="M299.7514 39.46512c-1.5457.0764-2.9865.93901-3.81 2.22002L165.8606 255.2864l-18.1201 29.7602c44.1342 26.493 95.7728 41.7602 150.9609 41.7602 55.9718 0 108.3072-15.6775 152.8509-42.8702L304.0114 41.68514c-.864-1.34402-2.388-2.22002-4.02-2.22002-.0765 0-.164-.00376-.24 0z"/>
  <path fill="url(#e)" d="M286.4344 145.7244 129.2814 403.678c-2.688 4.5121-2.688 10.0801 0 14.4961 2.6881 4.512 7.7761 7.2961 13.2481 7.2961h314.21c5.472 0 10.5601-2.7841 13.2481-7.2961 2.688-4.512 2.688-9.984 0-14.4961l-157.057-257.9536c-2.688-4.512-7.7761-7.296-13.2481-7.296-5.472 0-10.5601 2.784-13.2481 7.296z"/>
  <path d="M329.0625 203.0625c-2.0625.5625-4.3125 7.0625-4.8125 9-.25 1.0625.0625 2.5 1.4375 2.25 2.125-.4375 4.3125-7 4.8125-8.875.25-1 0-2.75-1.4375-2.375m-74.6875 12.375c-.6875 3.1875 3 6.3125 4.8125 8.625.5625.75 1.8125 2.5625 3 1.6875 1.0625-.875-.5-2.625-1-3.3125-1.8125-2.4375-3.8125-6.25-6.8125-7m26.6875 5.625 5.3125 18.6875c-8.1875 1.375-13.8125 8.9375-15.6875 16.6875-7.9375-1.5625-16.5625-4.5-24.625-4.6875 2 7.0625 7.625 14.25 11.25 20.6875 1.125 1.9375 4.25 5.625 4.1875 7.9375 0 1.3125-1.9375 2.3125-2.8125 3.0625-2.125 1.8125-5.1875 4-5.625 7 3.75-.3125 6.4375-6.375 10-8l3 6c-3.4375 1.5625-5.9375 5.3125-8.125 8.3125-.4375.625-2.9375 3.5625-.875 3.8125 1.25.1875 2.3125-2 2.9375-2.8125 2.1875-2.9375 4.4375-5.75 7.375-8 1.0625 3.5625 6.3125 2.3125 9.3125 2.3125-1 12.5625-2.8125 25.125-3.9375 37.6875-.5625 5.9375.125 11.9375-5.0625 15.625-.6875-3-.9375-7.5-3.1875-9.8125-3.875-4.0625-14.4375-1.0625-17.25 2.8125-3.625 5.125-2.625 13.9375-1.5625 19.6875-3.5-1.6875-7.4375-5.5-11.625-4.625-10.5 2.1875-10.375 15.8125-3.6875 21.875 4.3125 3.9375 10.125 5.1875 15.6875 6.1875 2.125.375 4.125 1.4375 6.3125 1.5625 10.375.5 23.6875-4.3125 32.3125-9.75 5.5-3.4375 13.375-9.0625 13.6875-16.25 1.5 1.6875 1.9375 4.5625 2.6875 6.6875 1 3.0625 4.125 8.5625 1.75 11.5625-4.1875 5.3125-15.3125 3.375-21.125 4.3125-1.9375.375-4.625.4375-6.125 2-2.5625 2.625-2.5 8.625-2.9375 12.125-.4375 3.3125-.5625 5.625 1.1875 8.625 2.1875 3.875 6.3125 5.75 10.25 7.3125 4.9375 2 10.4375 4.5625 16 3.0625 2.25-.625 4.1875-2.25 6.3125-3.1875 1.9375-.875 4.25-1.3125 5.875-2.6875 2.5-2.1875.5-8.75 3.5-9.9375 1.5625-.625 4.375.6875 5.9375 1.0625 4.8125 1.25 9.8125 2.8125 14.6875 3.5625 3.0625.5 7-2.1875 9.6875-3.5 1.9375-1 5.875-2.75 6.5625-5.0625.75-2.8125.0625-6.6875.0625-9.625h-14c.3125-6.4375 9.75-11.0625 15-14-1.5-5.4375-4-10.6875-6-16-.625-1.75-2.375-4.4375-1.75-6.3125.8125-2.3125 4.6875-8.9375 7.125-9.5625 4.875-1.3125 10.125 1.875 13.75-3.125 6.125-8.3125 6-19.4375 2.125-28.625-1.6875-4-4.5625-8.5625-9.25-9.25-5.5625-.875-8.3125 4.3125-12.625 6.5625-1.625-5.3125-5.8125-11-11.6875-11 1.125-2.6875 4.75-10.625-1-11.1875-1-.0625-2.0625.3125-3 .5625.375-1.4375.6875-3.75-.5-4.8125-1.75-1.5625-4 .8125-5.75.0625-1.9375-.8125-2-5.8125-2.75-7.625-.3125-.75-1-1.75-.8125-2.625.25-.875 1.125-1.3125 1.8125-1.6875 1.5625 3.875 5.6875 3.0625 7.3125-.3125 1.1875-2.5625-1.0625-4.875-.5-7.1875.375-1.625 1.875-2.875 2.375-4.5.6875-2.4375.0625-6.3125 1.3125-8.3125 3.5-5.5625 11.125-7.75 17.1875-7.6875v-.3125c-6.6875-2.75-12.625 1.0625-18 4.625-.375-1.125-1.8125-2.8125-1.5-3.9375.3125-1.4375 2.6875-2.625 3.8125-3.5 4.3125-3.25 8.4375-5.5625 14-5.1875v-.375c-5.875-1.5-10.6875-.125-15.6875 3.1875-1.8125 1.1875-3.4375 3.875-5.625 4.1875 1.125-4.1875.625-11.9375-5-12.625-3.3125-.4375-7.125 2.1875-9.125 4.625-.875 1.0625-1.625 3-2.9375 3.5625-1.875.8125-6.4375-1.75-8.625-1.875-2.5-.1875-5 .5-7.3125 1.4375-1 .375-2.25 1.5-3.375 1.25-1.1875-.1875-2.1875-1.875-3-2.75-2.5-2.5625-4.75-5.875-7.625-8m21.625 9.6875v.3125c-3.625 1.125-5.3125 4.75-5.3125 8.375 0 2.125.25 4.25 2.6875 4.625-.625-4.4375-1.75-10.375 4.3125-11.5 1.875-.375 4 .3125 6 .1875-.8125 4.375-4.375 8.375-2.1875 13 1.5 3.375 5.6875 3.9375 8.875 2.8125 5.1875-1.8125 8.875-6.375 10.625-11.5 6.1875 1.875 4.6875 13.9375 1.8125 18-7.5625 10.5625-18 16.625-30.125 20.125-4.5 1.375-8.3125 3.625-12.6875 1.25 1.6875-5.75 5.375-9 5.375-15.375-4.1875.125-8.0625 5.3125-12.3125 3.5-3.5-1.5625-2.5625-9.125-1.4375-11.8125 2.9375-6.75 8.8125-8.875 15.375-6.3125v.3125c-6 .0625-11.5 3-13.5 9-.4375 1.375-2 7.125 0 7.875 1.5625.625 1.1875-3.1875 1.1875-3.875.25-4.8125 3.125-9.5 8-10.5625 2.125-.4375 5.4375.4375 7-1.125l1.3125.375c-2.875-4.4375-6.625-14.0625.375-17.0625 1.4375-.625 3.0625-.625 4.625-.625m-64.8125 9c-.9375.5625-.3125 1.625.25 2.1875 1.0625 1.125 5.8125 5.4375 7.4375 4.4375.9375-.5625.3125-1.5625-.25-2.125-1.0625-1.125-5.8125-5.5-7.4375-4.5m56.5 7-.3125.3125.3125-.3125m60.125 5.3125c-.75.625-.125 1.5.5625 1.8125 1.375.5625 8.0625 1.9375 9.0625.6875.75-.9375-.75-1.6875-1.4375-1.9375-1.75-.5-6.5625-1.75-8.1875-.5625m-25.8125 6.6875c.5625 2 1.375 4.625-.375 6.25-1.3125 1.25-4.0625.625-3.6875-1.5625.3125-1.75 2.875-3.5625 4.0625-4.6875m-8.625 8.6875c2.4375 4.5 4.1875 10.375 4 15.3125-3.0625-.0625-5.4375-2.25-8-3.6875 1.875-4.4375-1.6875-9.4375 4-11.625m-94.375 2.625c1.5625.4375 3.125.375 4.6875.375h3.3125c.5625 0 6.125 0 4.125-1.6875-.6875-.625-2.25-.3125-3.125-.3125-2.4375 0-7.9375-1.125-9 1.625m89 1 .375 6.375h-5c-.1875-4.3125.6875-4.6875 4.625-6.375m15.375 6.6875c0 1 .0625 2-.125 3-.1875 1.1875-2.4375 4.5625-3.875 2.8125-2.375-2.875 1.625-5.625 4-5.8125m-47.6875 6.3125c2.375 2.5 4.4375 5.125 7.3125 7 8.9375 5.75 20 5.1875 29.6875 1.625 4.9375-1.875 6.625-5.25 10.4375-8.5 1.0625-.875 3.4375-2.125 4.8125-1.375 1.8125 1 1.375 3.375.8125 4.9375-1.375 4.0625-4.375 7.25-8.0625 9.375-10.6875 6.125-25 6.625-36 1.0625-5.75-2.9375-11.6875-7-9-14.125M245 285.6875c-2.8125-.125-7.8125 2.6875-10.25 4-.75.375-2.375 1.9375-.625 2.25 1.0625.1875 2.3125-.5625 3.25-.9375 2.4375-1.0625 6.25-1.8125 8.25-3.5625.75-.6875.5-1.6875-.625-1.75m47.375 35.0625 4.6875 5.625c-7.0625 5-5.6875 12.75-3.6875 19.6875l-8.6875 6.3125 5.25-22.625 2.4375-9m-46.3125 37.3125-.375.3125.375-.3125m79.3125 2c.875 4.375 2.75 7.75 0 11.6875-1.9375-2.75-2.5625-8.375-3-11.6875h3zm-34.3125-151.625c.75-.0625 1.6875 0 2.125-.8125.4375-.9375-.0625-2.25-.125-3.1875-.25-2.625.1875-8.0625-1.4375-10.1875-2.1875-2.9375-1.9375 3.75-1.875 4.5.125 1.3125.25 2.6875.4375 4 .25 1.875.5 3.75.875 5.6875z"/>
</svg>