<?xml version="1.0" encoding="UTF-8" standalone="no"?>
<!DOCTYPE svg PUBLIC "-//W3C//DTD SVG 1.0//EN"
"http://www.w3.org/TR/2001/REC-SVG-20010904/DTD/svg10.dtd">
<svg xmlns="http://www.w3.org/2000/svg" width="600" height="500" version="1.0">
  <defs>
    <linearGradient id="a" x1="41.1948738" x2="118.931351" y1="616.477173" y2="527.555115" gradientTransform="matrix(4.55676 0 0 -4.31503 37.49756 2758.519)" gradientUnits="userSpaceOnUse">
      <stop offset="0" stop-color="#6a3093"/>
      <stop offset="1" stop-color="#3b095e"/>
    </linearGradient>
    <linearGradient id="b" x1="530.809509" x2="174.805481" y1="486.631012" y2="211.22995" gradientTransform="matrix(.96 0 0 .96 11.68071 9.787565)" gradientUnits="userSpaceOnUse">
      <stop offset="0" stop-color="#470b71"/>
      <stop offset="1" stop-color="#63288d"/>
    </linearGradient>
    <linearGradient id="c" x1="187.873566" x2="581.837463" y1="224.598923" y2="483.100006" gradientTransform="matrix(.96 0 0 .96 11.68071 9.787558)" gradientUnits="userSpaceOnUse">
      <stop offset="0" stop-color="#9c6fba"/>
      <stop offset="1" stop-color="#5a1d84"/>
    </linearGradient>
    <linearGradient id="d" x1="250.398453" x2="412.094299" y1="101.536331" y2="264.54187" gradientTransform="matrix(.96 0 0 .96 11.68071 9.787565)" gradientUnits="userSpaceOnUse">
      <stop offset="0" stop-color="#e6d9ff"/>
      <stop offset="1" stop-color="#6a3093"/>
    </linearGradient>
    <radialGradient id="e" cx="295.471252" cy="186.096344" r="179.550003" gradientTransform="matrix(0 1.53126 -.8765 -.00002 462.7486 -245.0023)" gradientUnits="userSpaceOnUse">
      <stop offset="0" stop-color="#fff"/>
      <stop offset=".5" stop-color="#fff"/>
      <stop offset="1" stop-color="#d5d5d5"/>
    </radialGradient>
  </defs>
  <path fill-opacity=".178571" d="M287.0439 30.68461 26.88238 457.8871c-4.99204 8.1601-4.99204 18.2401 0 26.4002 4.89603 8.064 14.11208 13.1521 24.09614 13.1521H571.3016c9.888 0 19.1041-5.0881 24.0961-13.1521 4.896-8.1601 4.896-18.2401 0-26.4002L335.2362 30.68461c-4.992-8.16004-14.2081-13.24807-24.0962-13.24807-9.888 0-19.1041 5.08803-24.0961 13.24807z"/>
  <path fill="url(#a)" d="M275.5863 23.03565 15.42473 450.2381c-4.99203 8.1601-4.99203 18.2402 0 26.4002 4.89603 8.0641 14.11208 13.1521 24.09614 13.1521H559.8439c9.8881 0 19.1041-5.088 24.0962-13.1521 4.896-8.16 4.896-18.2401 0-26.4002L323.7785 23.03565c-4.992-8.16005-14.208-13.248082-24.0961-13.248082S280.5783 14.8756 275.5863 23.03565z"/>
  <path fill="url(#b)" d="M299.6824 31.7717c-1.632 0-3.168.864-4.032 2.20801L165.5696 247.581 35.48885 461.1822c-.86401 1.344-.86401 3.072 0 4.416.864 1.344 2.40001 2.208 4.03202 2.208H559.8439c1.632 0 3.168-.864 4.0321-2.208.864-1.344.864-3.072 0-4.416L303.7144 33.97971c-.864-1.34401-2.4-2.20801-4.032-2.20801z"/>
  <path fill="none" stroke="url(#c)" stroke-linejoin="round" stroke-width="11.52007" d="M299.6464 31.7717c-1.632 0-3.1681.864-4.0321 2.20801L165.5336 247.581 35.45283 461.1822c-.86401 1.344-.86401 3.072 0 4.416.864 1.344 2.40001 2.208 4.03202 2.208H559.8079c1.632 0 3.168-.864 4.032-2.208.864-1.344.864-3.072 0-4.416L303.6784 33.97971c-.864-1.34401-2.4-2.20801-4.032-2.20801z"/>
  <path fill="url(#d)" d="M299.7514 39.46512c-1.5457.0764-2.9865.93901-3.81 2.22002L165.8606 255.2864l-18.1201 29.7602c44.1342 26.493 95.7728 41.7602 150.9609 41.7602 55.9718 0 108.3072-15.6775 152.8509-42.8702L304.0114 41.68514c-.864-1.34402-2.388-2.22002-4.02-2.22002-.0765 0-.164-.00376-.24 0z"/>
  <path fill="url(#e)" d="M286.4344 145.7244 129.2814 403.678c-2.688 4.5121-2.688 10.0801 0 14.4961 2.6881 4.512 7.7761 7.2961 13.2481 7.2961h314.21c5.472 0 10.5601-2.7841 13.2481-7.2961 2.688-4.512 2.688-9.984 0-14.4961l-157.057-257.9536c-2.688-4.512-7.7761-7.296-13.2481-7.296-5.472 0-10.5601 2.784-13.2481 7.296z"/>
  <path d="M346.08941 239.54128c-3.09375.84375-6.46875 10.59375-7.21875 13.5-.375 1.59375.09375 3.75 2.15625 3.375 3.1875-.65625 6.46875-10.5 7.21875-13.3125.375-1.5 0-4.125-2.15625-3.5625m-112.03125 18.5625c-1.03125 4.78125 4.5 9.46875 7.21875 12.9375.84375 1.125 2.71875 3.84375 4.5 2.53125 1.59375-1.3125-.75-3.9375-1.5-4.96875-2.71875-3.65625-5.71875-9.375-10.21875-10.5m40.03125 8.4375 7.96875 28.03125c-12.28125 2.0625-20.71875 13.40625-23.53125 25.03125-11.90625-2.34375-24.84375-6.75-36.9375-7.03125 3 10.59375 11.4375 21.375 16.875 31.03125 1.6875 2.90625 6.375 8.4375 6.28125 11.90625 0 1.96875-2.90625 3.46875-4.21875 4.59375-3.1875 2.71875-7.78125 6-8.4375 10.5 5.625-.46875 9.65625-9.5625 15-12l4.5 9c-5.15625 2.34375-8.90625 7.96875-12.1875 12.46875-.65625.9375-4.40625 5.34375-1.3125 5.71875 1.875.28125 3.46875-3 4.40625-4.21875 3.28125-4.40625 6.65625-8.625 11.0625-12 1.59375 5.34375 9.46875 3.46875 13.96875 3.46875 49.96875 49.40625 96.84375 0 88.03125 0 1.6875-4.03125 7.125-15.9375-1.5-16.78125-1.5-.09375-3.09375.46875-4.5.84375.5625-2.15625 1.03125-5.625-.75-7.21875-2.625-2.34375-6 1.21875-8.625.09375-2.90625-1.21875-3-8.71875-4.125-11.4375-.46875-1.125-1.5-2.625-1.21875-3.9375.375-1.3125 1.6875-1.96875 2.71875-2.53125 2.34375 5.8125 8.53125 4.59375 10.96875-.46875 1.78125-3.84375-1.59375-7.3125-.75-10.78125.5625-2.4375 2.8125-4.3125 3.5625-6.75 1.03125-3.65625.09375-9.46875 1.96875-12.46875 5.25-8.34375 16.6875-11.625 25.78125-11.53125v-.46875c-10.03125-4.125-18.9375 1.59375-27 6.9375-.5625-1.6875-2.71875-4.21875-2.25-5.90625.46875-2.15625 4.03125-3.9375 5.71875-5.25 6.46875-4.875 12.65625-8.34375 21-7.78125v-.5625c-8.8125-2.25-16.03125-.1875-23.53125 4.78125-2.71875 1.78125-5.15625 5.8125-8.4375 6.28125 1.6875-6.28125.9375-17.90625-7.5-18.9375-4.96875-.65625-10.6875 3.28125-13.6875 6.9375-1.3125 1.59375-2.4375 4.5-4.40625 5.34375-2.8125 1.21875-9.65625-2.625-12.9375-2.8125-3.75-.28125-7.5.75-10.96875 2.15625-1.5.5625-3.375 2.25-5.0625 1.875-1.78125-.28125-3.28125-2.8125-4.5-4.125-3.75-3.84375-7.125-8.8125-11.4375-12m32.4375 14.53125v.46875c-5.4375 1.6875-7.96875 7.125-7.96875 12.5625 0 3.1875.375 6.375 4.03125 6.9375-.9375-6.65625-2.625-15.5625 6.46875-17.25 2.8125-.5625 6 .46875 9 .28125-1.21875 6.5625-6.5625 12.5625-3.28125 19.5 2.25 5.0625 8.53125 5.90625 13.3125 4.21875 7.78125-2.71875 13.3125-9.5625 15.9375-17.25 9.28125 2.8125 7.03125 20.90625 2.71875 27-11.34375 15.84375-27 24.9375-45.1875 30.1875-6.75 2.0625-12.46875 5.4375-19.03125 1.875 2.53125-8.625 8.0625-13.5 8.0625-23.0625-6.28125.1875-12.09375 7.96875-18.46875 5.25-5.25-2.34375-3.84375-13.6875-2.15625-17.71875 4.40625-10.125 13.21875-13.3125 23.0625-9.46875v.46875c-9 .09375-17.25 4.5-20.25 13.5-.65625 2.0625-3 10.6875 0 11.8125 2.34375.9375 1.78125-4.78125 1.78125-5.8125.375-7.21875 4.6875-14.25 12-15.84375 3.1875-.65625 8.15625.65625 10.5-1.6875l1.96875.5625c-4.3125-6.65625-9.9375-21.09375.5625-25.59375 2.15625-.9375 4.59375-.9375 6.9375-.9375m-97.21875 13.5c-1.40625.84375-.46875 2.4375.375 3.28125 1.59375 1.6875 8.71875 8.15625 11.15625 6.65625 1.40625-.84375.46875-2.34375-.375-3.1875-1.59375-1.6875-8.71875-8.25-11.15625-6.75m84.75 10.5-.46875.46875.46875-.46875m90.1875 7.96875c-1.125.9375-.1875 2.25.84375 2.71875 2.0625.84375 12.09375 2.90625 13.59375 1.03125 1.125-1.40625-1.125-2.53125-2.15625-2.90625-2.625-.75-9.84375-2.625-12.28125-.84375m-38.71875 10.03125c.84375 3 2.0625 6.9375-.5625 9.375-1.96875 1.875-6.09375.9375-5.53125-2.34375.46875-2.625 4.3125-5.34375 6.09375-7.03125m-12.9375 13.03125c3.65625 6.75 6.28125 15.5625 6 22.96875-4.59375-.09375-8.15625-3.375-12-5.53125 2.8125-6.65625-2.53125-14.15625 6-17.4375m-141.5625 3.9375c2.34375.65625 4.6875.5625 7.03125.5625h4.96875c.84375 0 9.1875 0 6.1875-2.53125-1.03125-.9375-3.375-.46875-4.6875-.46875-3.65625 0-11.90625-1.6875-13.5 2.4375m133.5 1.5.5625 9.5625h-7.5c-.28125-6.46875 1.03125-7.03125 6.9375-9.5625m23.0625 10.03125c0 1.5.09375 3-.1875 4.5-.28125 1.78125-3.65625 6.84375-5.8125 4.21875-3.5625-4.3125 2.4375-8.4375 6-8.71875m-71.53125 9.46875c3.5625 3.75 6.65625 7.6875 10.96875 10.5 13.40625 8.625 30 7.78125 44.53125 2.4375 7.40625-2.8125 9.9375-7.875 15.65625-12.75 1.59375-1.3125 5.15625-3.1875 7.21875-2.0625 2.71875 1.5 2.0625 5.0625 1.21875 7.40625-2.0625 6.09375-6.5625 10.875-12.09375 14.0625-16.03125 9.1875-37.5 9.9375-54 1.59375-8.625-4.40625-17.53125-10.5-13.5-21.1875m-56.0625 2.4375c-4.21875-.1875-11.71875 4.03125-15.375 6-1.125.5625-3.5625 2.90625-.9375 3.375 1.59375.28125 3.46875-.84375 4.875-1.40625 3.65625-1.59375 9.375-2.71875 12.375-5.34375 1.125-1.03125.75-2.53125-.9375-2.625m69.09375-115.875c1.125-.09375 2.53125 0 3.1875-1.21875.65625-1.40625-.09375-3.375-.1875-4.78125-.375-3.9375.28125-12.09375-2.15625-15.28125-3.28125-4.40625-2.90625 5.625-2.8125 6.75.1875 1.96875.375 4.03125.65625 6 .375 2.8125.75 5.625 1.3125 8.53125z"/>
</svg>