<?xml version="1.0" encoding="UTF-8" standalone="no"?>
<svg xmlns="http://www.w3.org/2000/svg" xmlns:xlink="http://www.w3.org/1999/xlink" width="60" height="68.513756" version="1.0">
  <defs>
    <path id="c" fill="#2a4b8d" d="M60 10 47 0v20l13-10z"/>
    <path id="d" fill="#2a4b8d" d="M35 6h15v8H35z"/>
  </defs>
  <defs>
    <radialGradient id="a" cx="30" cy="-310" r="30" fx="30" fy="-310" gradientTransform="matrix(.1677 0 0 .168 22.26125 45.14375)" gradientUnits="userSpaceOnUse">
      <stop offset="0" stop-color="#72777d"/>
      <stop offset="1" stop-opacity="0"/>
    </radialGradient>
    <radialGradient id="b" cx="30" cy="10" r="13.13" fx="30" fy="10" gradientTransform="matrix(.639 0 0 .608 8.03825 -13.24525)" gradientUnits="userSpaceOnUse">
      <stop offset="0" stop-color="#fff"/>
      <stop offset=".6" stop-color="#fff" stop-opacity=".95"/>
      <stop offset="1" stop-color="#fff" stop-opacity="0"/>
    </radialGradient>
    <radialGradient xlink:href="#a" id="f" cx="30" cy="-310" r="30" fx="30" fy="-310" gradientTransform="matrix(.1677 0 0 .168 24.98 60.3)" gradientUnits="userSpaceOnUse"/>
    <radialGradient xlink:href="#b" id="e" cx="30" cy="10" r="13.13" fx="30" fy="10" gradientTransform="matrix(.639 0 0 .608 10.757 1.911)" gradientUnits="userSpaceOnUse"/>
  </defs>
  <g transform="translate(-1.4375 35.232509)">
    <g transform="rotate(90 44.078125 17.359375)">
      <use xlink:href="#c"/>
      <use xlink:href="#d"/>
    </g>
    <g transform="rotate(90 34.078125 7.359375)">
      <use xlink:href="#c"/>
      <use xlink:href="#d"/>
    </g>
    <g transform="rotate(90 24.078125 -2.640625)">
      <use xlink:href="#c"/>
      <use xlink:href="#d"/>
    </g>
  </g>
  <path fill="#d33" d="M26.017679 8.495731v15l3.78125 5.71875 4.21875-5.71875v-15h-8z"/>
  <path fill="#d33" d="m27.323996 22.21875-8.65625 8.65625-4.65625-4.65625-2.125 16.21875 16.28125-2.0625-3.84375-3.84375 8.65625-8.65625-5.65625-5.65625zm-15.4375 20.21875h-.0625l.0625.0625v-.0625z"/>
  <path fill="#d33" d="m32.667746 22.21875-5.65625 5.65625 8.6875 8.65625-3.78125 3.78125 16.1875 2.125-2.03125-16.28125-4.71875 4.71875-8.6875-8.65625zm15.4375 20.21875V42.5l.0625-.0625h-.0625z"/>
  <path fill="url(#e)" d="M38.3 8c0 4.4-3.7 8-8.3 8-4.6 0-8.3-3.6-8.3-8s3.7-8 8.3-8c4.6 0 8.3 3.6 8.3 8z"/>
  <path fill="url(#f)" d="M36 8c0 3.31-2.69 6-6 6s-6-2.69-6-6 2.69-6 6-6 6 2.69 6 6z"/>
</svg>