<?xml version="1.0" encoding="UTF-8" standalone="no"?>
<svg
   xmlns:dc="http://purl.org/dc/elements/1.1/"
   xmlns:cc="http://web.resource.org/cc/"
   xmlns:rdf="http://www.w3.org/1999/02/22-rdf-syntax-ns#"
   xmlns:svg="http://www.w3.org/2000/svg"
   xmlns="http://www.w3.org/2000/svg"
   xmlns:sodipodi="http://sodipodi.sourceforge.net/DTD/sodipodi-0.dtd"
   xmlns:inkscape="http://www.inkscape.org/namespaces/inkscape"
   version="1.0"
   width="500"
   height="250"
   id="svg2"
   sodipodi:version="0.32"
   inkscape:version="0.45.1"
   sodipodi:docname="The_Wrong_Version.svg"
   inkscape:output_extension="org.inkscape.output.svg.inkscape"
   sodipodi:docbase="C:\Documents and Settings\Tech U\Desktop">
  <metadata
     id="metadata31">
    <rdf:RDF>
      <cc:Work
         rdf:about="">
        <dc:format>image/svg+xml</dc:format>
        <dc:type
           rdf:resource="http://purl.org/dc/dcmitype/StillImage" />
      </cc:Work>
    </rdf:RDF>
  </metadata>
  <defs
     id="defs29" />
  <sodipodi:namedview
     inkscape:window-height="480"
     inkscape:window-width="640"
     inkscape:pageshadow="2"
     inkscape:pageopacity="0.0"
     guidetolerance="10.0"
     gridtolerance="10.0"
     objecttolerance="10.0"
     borderopacity="1.0"
     bordercolor="#666666"
     pagecolor="#ffffff"
     id="base" />
  <rect
     x="0"
     y="0"
     width="500"
     height="250"
     id="rect4" />
  <rect
     x="10"
     y="10"
     width="480"
     height="70"
     fill="#fc0"
     id="rect6" />
  <rect
     x="10"
     y="90"
     width="150"
     height="150"
     fill="#fff"
     id="rect8" />
  <rect
     x="170"
     y="90"
     width="320"
     height="150"
     fill="#fff"
     id="rect10" />
  <text
     x="250"
     y="63"
     text-anchor="middle"
     font-family="Bitstream Vera Sans"
     font-size="50"
     fill="#000"
     id="text12">CAUTION</text>
  <path
     style="font-size:20px;text-anchor:middle;fill:#000000;font-family:Bitstream Vera Sans"
     d="M 177.12891,105.41992 L 189.46289,105.41992 L 189.46289,107.08008 L 184.28711,107.08008 L 184.28711,120 L 182.30469,120 L 182.30469,107.08008 L 177.12891,107.08008 L 177.12891,105.41992 z M 191.37695,105.41992 L 193.34961,105.41992 L 193.34961,111.39648 L 200.51758,111.39648 L 200.51758,105.41992 L 202.49023,105.41992 L 202.49023,120 L 200.51758,120 L 200.51758,113.05664 L 193.34961,113.05664 L 193.34961,120 L 191.37695,120 L 191.37695,105.41992 z M 206.41602,105.41992 L 208.38867,105.41992 L 208.38867,120 L 206.41602,120 L 206.41602,105.41992 z M 221.05469,105.89844 L 221.05469,107.82227 C 220.30598,107.46421 219.5996,107.19728 218.93555,107.02148 C 218.27148,106.84572 217.6302,106.75783 217.01172,106.75781 C 215.93749,106.75783 215.10904,106.96616 214.52637,107.38281 C 213.94368,107.79949 213.65234,108.39194 213.65234,109.16016 C 213.65234,109.8047 213.84603,110.29135 214.2334,110.62012 C 214.62076,110.9489 215.35481,111.2142 216.43555,111.41602 L 217.62695,111.66016 C 219.0983,111.94011 220.18391,112.43328 220.88379,113.13965 C 221.58365,113.84603 221.93358,114.79167 221.93359,115.97656 C 221.93358,117.38933 221.45995,118.46029 220.5127,119.18945 C 219.56542,119.91862 218.17708,120.2832 216.34766,120.2832 C 215.65755,120.2832 214.9235,120.20508 214.14551,120.04883 C 213.36751,119.89258 212.56185,119.66146 211.72852,119.35547 L 211.72852,117.32422 C 212.52929,117.77344 213.3138,118.11198 214.08203,118.33984 C 214.85026,118.56771 215.60546,118.68164 216.34766,118.68164 C 217.47395,118.68164 218.34309,118.46029 218.95508,118.01758 C 219.56705,117.57487 219.87304,116.94336 219.87305,116.12305 C 219.87304,115.40691 219.65331,114.84701 219.21387,114.44336 C 218.77441,114.03972 218.05338,113.73699 217.05078,113.53516 L 215.84961,113.30078 C 214.37825,113.00782 213.3138,112.54884 212.65625,111.92383 C 211.9987,111.29884 211.66992,110.4297 211.66992,109.31641 C 211.66992,108.02736 212.12402,107.01173 213.03223,106.26953 C 213.94043,105.52736 215.19205,105.15626 216.78711,105.15625 C 217.4707,105.15626 218.16731,105.21811 218.87695,105.3418 C 219.58658,105.46551 220.31249,105.65106 221.05469,105.89844 L 221.05469,105.89844 z M 231.37695,105.41992 L 233.34961,105.41992 L 233.34961,120 L 231.37695,120 L 231.37695,105.41992 z M 246.01563,105.89844 L 246.01563,107.82227 C 245.26692,107.46421 244.56054,107.19728 243.89648,107.02148 C 243.23241,106.84572 242.59114,106.75783 241.97266,106.75781 C 240.89843,106.75783 240.06998,106.96616 239.4873,107.38281 C 238.90462,107.79949 238.61328,108.39194 238.61328,109.16016 C 238.61328,109.8047 238.80696,110.29135 239.19434,110.62012 C 239.5817,110.9489 240.31575,111.2142 241.39648,111.41602 L 242.58789,111.66016 C 244.05924,111.94011 245.14485,112.43328 245.84473,113.13965 C 246.54459,113.84603 246.89452,114.79167 246.89453,115.97656 C 246.89452,117.38933 246.42089,118.46029 245.47363,119.18945 C 244.52636,119.91862 243.13801,120.2832 241.30859,120.2832 C 240.61848,120.2832 239.88444,120.20508 239.10645,120.04883 C 238.32845,119.89258 237.52278,119.66146 236.68945,119.35547 L 236.68945,117.32422 C 237.49023,117.77344 238.27474,118.11198 239.04297,118.33984 C 239.81119,118.56771 240.5664,118.68164 241.30859,118.68164 C 242.43489,118.68164 243.30403,118.46029 243.91602,118.01758 C 244.52799,117.57487 244.83397,116.94336 244.83398,116.12305 C 244.83397,115.40691 244.61425,114.84701 244.1748,114.44336 C 243.73534,114.03972 243.01432,113.73699 242.01172,113.53516 L 240.81055,113.30078 C 239.33919,113.00782 238.27474,112.54884 237.61719,111.92383 C 236.95963,111.29884 236.63086,110.4297 236.63086,109.31641 C 236.63086,108.02736 237.08496,107.01173 237.99316,106.26953 C 238.90136,105.52736 240.15299,105.15626 241.74805,105.15625 C 242.43163,105.15626 243.12825,105.21811 243.83789,105.3418 C 244.54752,105.46551 245.27343,105.65106 246.01563,105.89844 L 246.01563,105.89844 z M 254.31641,105.41992 L 266.65039,105.41992 L 266.65039,107.08008 L 261.47461,107.08008 L 261.47461,120 L 259.49219,120 L 259.49219,107.08008 L 254.31641,107.08008 L 254.31641,105.41992 z M 268.56445,105.41992 L 270.53711,105.41992 L 270.53711,111.39648 L 277.70508,111.39648 L 277.70508,105.41992 L 279.67773,105.41992 L 279.67773,120 L 277.70508,120 L 277.70508,113.05664 L 270.53711,113.05664 L 270.53711,120 L 268.56445,120 L 268.56445,105.41992 z M 283.60352,105.41992 L 292.82227,105.41992 L 292.82227,107.08008 L 285.57617,107.08008 L 285.57617,111.39648 L 292.51953,111.39648 L 292.51953,113.05664 L 285.57617,113.05664 L 285.57617,118.33984 L 292.99805,118.33984 L 292.99805,120 L 283.60352,120 L 283.60352,105.41992 z M 301.32813,105.41992 L 303.32031,105.41992 L 306.38672,117.74414 L 309.44336,105.41992 L 311.66016,105.41992 L 314.72656,117.74414 L 317.7832,105.41992 L 319.78516,105.41992 L 316.12305,120 L 313.64258,120 L 310.56641,107.34375 L 307.46094,120 L 304.98047,120 L 301.32813,105.41992 z M 329.30664,113.16406 C 329.72981,113.3073 330.14159,113.61329 330.54199,114.08203 C 330.94237,114.55079 331.34439,115.19532 331.74805,116.01563 L 333.75,120 L 331.63086,120 L 329.76563,116.25977 C 329.28385,115.28321 328.81672,114.63542 328.36426,114.31641 C 327.91178,113.9974 327.29492,113.8379 326.51367,113.83789 L 324.36523,113.83789 L 324.36523,120 L 322.39258,120 L 322.39258,105.41992 L 326.8457,105.41992 C 328.51236,105.41994 329.75585,105.76824 330.57617,106.46484 C 331.39647,107.16147 331.80663,108.2129 331.80664,109.61914 C 331.80663,110.53712 331.59341,111.29884 331.16699,111.9043 C 330.74055,112.50977 330.12043,112.92969 329.30664,113.16406 L 329.30664,113.16406 z M 324.36523,107.04102 L 324.36523,112.2168 L 326.8457,112.2168 C 327.79622,112.2168 328.51399,111.99708 328.99902,111.55762 C 329.48404,111.11817 329.72655,110.47201 329.72656,109.61914 C 329.72655,108.76629 329.48404,108.12338 328.99902,107.69043 C 328.51399,107.2575 327.79622,107.04103 326.8457,107.04102 L 324.36523,107.04102 z M 342.2168,106.75781 C 340.7845,106.75783 339.6468,107.29168 338.80371,108.35938 C 337.96061,109.42709 337.53906,110.88217 337.53906,112.72461 C 337.53906,114.56055 337.96061,116.01237 338.80371,117.08008 C 339.6468,118.14779 340.7845,118.68164 342.2168,118.68164 C 343.64908,118.68164 344.78352,118.14779 345.62012,117.08008 C 346.45669,116.01237 346.87499,114.56055 346.875,112.72461 C 346.87499,110.88217 346.45669,109.42709 345.62012,108.35938 C 344.78352,107.29168 343.64908,106.75783 342.2168,106.75781 L 342.2168,106.75781 z M 342.2168,105.15625 C 344.26106,105.15626 345.89517,105.84149 347.11914,107.21191 C 348.34308,108.58237 348.95506,110.41993 348.95508,112.72461 C 348.95506,115.02279 348.34308,116.8571 347.11914,118.22754 C 345.89517,119.59798 344.26106,120.2832 342.2168,120.2832 C 340.16601,120.2832 338.52701,119.59961 337.2998,118.23242 C 336.07259,116.86524 335.45898,115.0293 335.45898,112.72461 C 335.45898,110.41993 336.07259,108.58237 337.2998,107.21191 C 338.52701,105.84149 340.16601,105.15626 342.2168,105.15625 L 342.2168,105.15625 z M 352.04102,105.41992 L 354.69727,105.41992 L 361.16211,117.61719 L 361.16211,105.41992 L 363.07617,105.41992 L 363.07617,120 L 360.41992,120 L 353.95508,107.80273 L 353.95508,120 L 352.04102,120 L 352.04102,105.41992 z M 376.94336,117.91992 L 376.94336,114.00391 L 373.7207,114.00391 L 373.7207,112.38281 L 378.89648,112.38281 L 378.89648,118.64258 C 378.13475,119.18294 377.29491,119.59147 376.37695,119.86816 C 375.45897,120.14486 374.47916,120.2832 373.4375,120.2832 C 371.15885,120.2832 369.37662,119.61751 368.09082,118.28613 C 366.80501,116.95476 366.16211,115.10092 366.16211,112.72461 C 366.16211,110.34181 366.80501,108.48471 368.09082,107.15332 C 369.37662,105.82195 371.15885,105.15626 373.4375,105.15625 C 374.38801,105.15626 375.29133,105.27345 376.14746,105.50781 C 377.00357,105.7422 377.79296,106.08725 378.51563,106.54297 L 378.51563,108.64258 C 377.78645,108.0241 377.01171,107.55861 376.19141,107.24609 C 375.37108,106.93361 374.50845,106.77736 373.60352,106.77734 C 371.81965,106.77736 370.48014,107.2754 369.58496,108.27148 C 368.68977,109.26759 368.24218,110.75196 368.24219,112.72461 C 368.24218,114.69076 368.68977,116.17188 369.58496,117.16797 C 370.48014,118.16406 371.81965,118.66211 373.60352,118.66211 C 374.30012,118.66211 374.92187,118.60189 375.46875,118.48145 C 376.01561,118.361 376.50715,118.17383 376.94336,117.91992 L 376.94336,117.91992 z M 392.63672,120 L 387.07031,105.41992 L 389.13086,105.41992 L 393.75,117.69531 L 398.37891,105.41992 L 400.42969,105.41992 L 394.87305,120 L 392.63672,120 z M 402.54883,105.41992 L 411.76758,105.41992 L 411.76758,107.08008 L 404.52148,107.08008 L 404.52148,111.39648 L 411.46484,111.39648 L 411.46484,113.05664 L 404.52148,113.05664 L 404.52148,118.33984 L 411.94336,118.33984 L 411.94336,120 L 402.54883,120 L 402.54883,105.41992 z M 422.11914,113.16406 C 422.54231,113.3073 422.95409,113.61329 423.35449,114.08203 C 423.75487,114.55079 424.15689,115.19532 424.56055,116.01563 L 426.5625,120 L 424.44336,120 L 422.57813,116.25977 C 422.09635,115.28321 421.62922,114.63542 421.17676,114.31641 C 420.72428,113.9974 420.10742,113.8379 419.32617,113.83789 L 417.17773,113.83789 L 417.17773,120 L 415.20508,120 L 415.20508,105.41992 L 419.6582,105.41992 C 421.32486,105.41994 422.56835,105.76824 423.38867,106.46484 C 424.20897,107.16147 424.61913,108.2129 424.61914,109.61914 C 424.61913,110.53712 424.40591,111.29884 423.97949,111.9043 C 423.55305,112.50977 422.93293,112.92969 422.11914,113.16406 L 422.11914,113.16406 z M 417.17773,107.04102 L 417.17773,112.2168 L 419.6582,112.2168 C 420.60872,112.2168 421.32649,111.99708 421.81152,111.55762 C 422.29654,111.11817 422.53905,110.47201 422.53906,109.61914 C 422.53905,108.76629 422.29654,108.12338 421.81152,107.69043 C 421.32649,107.2575 420.60872,107.04103 419.6582,107.04102 L 417.17773,107.04102 z M 437.85156,105.89844 L 437.85156,107.82227 C 437.10285,107.46421 436.39648,107.19728 435.73242,107.02148 C 435.06835,106.84572 434.42708,106.75783 433.80859,106.75781 C 432.73437,106.75783 431.90592,106.96616 431.32324,107.38281 C 430.74056,107.79949 430.44922,108.39194 430.44922,109.16016 C 430.44922,109.8047 430.6429,110.29135 431.03027,110.62012 C 431.41764,110.9489 432.15169,111.2142 433.23242,111.41602 L 434.42383,111.66016 C 435.89517,111.94011 436.98078,112.43328 437.68066,113.13965 C 438.38052,113.84603 438.73046,114.79167 438.73047,115.97656 C 438.73046,117.38933 438.25682,118.46029 437.30957,119.18945 C 436.3623,119.91862 434.97395,120.2832 433.14453,120.2832 C 432.45442,120.2832 431.72037,120.20508 430.94238,120.04883 C 430.16439,119.89258 429.35872,119.66146 428.52539,119.35547 L 428.52539,117.32422 C 429.32617,117.77344 430.11067,118.11198 430.87891,118.33984 C 431.64713,118.56771 432.40234,118.68164 433.14453,118.68164 C 434.27083,118.68164 435.13997,118.46029 435.75195,118.01758 C 436.36392,117.57487 436.66991,116.94336 436.66992,116.12305 C 436.66991,115.40691 436.45019,114.84701 436.01074,114.44336 C 435.57128,114.03972 434.85025,113.73699 433.84766,113.53516 L 432.64648,113.30078 C 431.17513,113.00782 430.11067,112.54884 429.45313,111.92383 C 428.79557,111.29884 428.4668,110.4297 428.4668,109.31641 C 428.4668,108.02736 428.9209,107.01173 429.8291,106.26953 C 430.7373,105.52736 431.98893,105.15626 433.58398,105.15625 C 434.26757,105.15626 434.96418,105.21811 435.67383,105.3418 C 436.38345,105.46551 437.10937,105.65106 437.85156,105.89844 L 437.85156,105.89844 z M 441.80664,105.41992 L 443.7793,105.41992 L 443.7793,120 L 441.80664,120 L 441.80664,105.41992 z M 453.62305,106.75781 C 452.19075,106.75783 451.05305,107.29168 450.20996,108.35938 C 449.36686,109.42709 448.94531,110.88217 448.94531,112.72461 C 448.94531,114.56055 449.36686,116.01237 450.20996,117.08008 C 451.05305,118.14779 452.19075,118.68164 453.62305,118.68164 C 455.05533,118.68164 456.18977,118.14779 457.02637,117.08008 C 457.86294,116.01237 458.28124,114.56055 458.28125,112.72461 C 458.28124,110.88217 457.86294,109.42709 457.02637,108.35938 C 456.18977,107.29168 455.05533,106.75783 453.62305,106.75781 L 453.62305,106.75781 z M 453.62305,105.15625 C 455.66731,105.15626 457.30142,105.84149 458.52539,107.21191 C 459.74933,108.58237 460.36131,110.41993 460.36133,112.72461 C 460.36131,115.02279 459.74933,116.8571 458.52539,118.22754 C 457.30142,119.59798 455.66731,120.2832 453.62305,120.2832 C 451.57226,120.2832 449.93326,119.59961 448.70605,118.23242 C 447.47884,116.86524 446.86523,115.0293 446.86523,112.72461 C 446.86523,110.41993 447.47884,108.58237 448.70605,107.21191 C 449.93326,105.84149 451.57226,105.15626 453.62305,105.15625 L 453.62305,105.15625 z M 463.44727,105.41992 L 466.10352,105.41992 L 472.56836,117.61719 L 472.56836,105.41992 L 474.48242,105.41992 L 474.48242,120 L 471.82617,120 L 465.36133,107.80273 L 465.36133,120 L 463.44727,120 L 463.44727,105.41992 z M 478.58398,117.51953 L 480.64453,117.51953 L 480.64453,120 L 478.58398,120 L 478.58398,117.51953 z M 203.55469,132.36328 L 200.87891,139.61914 L 206.24023,139.61914 L 203.55469,132.36328 z M 202.44141,130.41992 L 204.67773,130.41992 L 210.23438,145 L 208.18359,145 L 206.85547,141.25977 L 200.2832,141.25977 L 198.95508,145 L 196.875,145 L 202.44141,130.41992 z M 212.35352,130.41992 L 215.00977,130.41992 L 221.47461,142.61719 L 221.47461,130.41992 L 223.38867,130.41992 L 223.38867,145 L 220.73242,145 L 214.26758,132.80273 L 214.26758,145 L 212.35352,145 L 212.35352,130.41992 z M 225.3125,130.41992 L 227.43164,130.41992 L 231.47461,136.41602 L 235.48828,130.41992 L 237.60742,130.41992 L 232.45117,138.05664 L 232.45117,145 L 230.46875,145 L 230.46875,138.05664 L 225.3125,130.41992 z M 254.64844,130.89844 L 254.64844,132.82227 C 253.89973,132.46421 253.19335,132.19728 252.5293,132.02148 C 251.86523,131.84572 251.22395,131.75783 250.60547,131.75781 C 249.53124,131.75783 248.70279,131.96616 248.12012,132.38281 C 247.53743,132.79949 247.24609,133.39194 247.24609,134.16016 C 247.24609,134.8047 247.43978,135.29135 247.82715,135.62012 C 248.21451,135.9489 248.94856,136.2142 250.0293,136.41602 L 251.2207,136.66016 C 252.69205,136.94011 253.77766,137.43328 254.47754,138.13965 C 255.1774,138.84603 255.52733,139.79167 255.52734,140.97656 C 255.52733,142.38933 255.0537,143.46029 254.10645,144.18945 C 253.15917,144.91862 251.77083,145.2832 249.94141,145.2832 C 249.2513,145.2832 248.51725,145.20508 247.73926,145.04883 C 246.96126,144.89258 246.1556,144.66146 245.32227,144.35547 L 245.32227,142.32422 C 246.12304,142.77344 246.90755,143.11198 247.67578,143.33984 C 248.44401,143.56771 249.19921,143.68164 249.94141,143.68164 C 251.0677,143.68164 251.93684,143.46029 252.54883,143.01758 C 253.1608,142.57487 253.46679,141.94336 253.4668,141.12305 C 253.46679,140.40691 253.24706,139.84701 252.80762,139.44336 C 252.36816,139.03972 251.64713,138.73699 250.64453,138.53516 L 249.44336,138.30078 C 247.972,138.00782 246.90755,137.54884 246.25,136.92383 C 245.59245,136.29884 245.26367,135.4297 245.26367,134.31641 C 245.26367,133.02736 245.71777,132.01173 246.62598,131.26953 C 247.53418,130.52736 248.7858,130.15626 250.38086,130.15625 C 251.06445,130.15626 251.76106,130.21811 252.4707,130.3418 C 253.18033,130.46551 253.90624,130.65106 254.64844,130.89844 L 254.64844,130.89844 z M 256.60156,130.41992 L 258.7207,130.41992 L 262.76367,136.41602 L 266.77734,130.41992 L 268.89648,130.41992 L 263.74023,138.05664 L 263.74023,145 L 261.75781,145 L 261.75781,138.05664 L 256.60156,130.41992 z M 279.57031,130.89844 L 279.57031,132.82227 C 278.8216,132.46421 278.11523,132.19728 277.45117,132.02148 C 276.7871,131.84572 276.14583,131.75783 275.52734,131.75781 C 274.45312,131.75783 273.62467,131.96616 273.04199,132.38281 C 272.45931,132.79949 272.16797,133.39194 272.16797,134.16016 C 272.16797,134.8047 272.36165,135.29135 272.74902,135.62012 C 273.13639,135.9489 273.87044,136.2142 274.95117,136.41602 L 276.14258,136.66016 C 277.61392,136.94011 278.69953,137.43328 279.39941,138.13965 C 280.09927,138.84603 280.44921,139.79167 280.44922,140.97656 C 280.44921,142.38933 279.97557,143.46029 279.02832,144.18945 C 278.08105,144.91862 276.6927,145.2832 274.86328,145.2832 C 274.17317,145.2832 273.43912,145.20508 272.66113,145.04883 C 271.88314,144.89258 271.07747,144.66146 270.24414,144.35547 L 270.24414,142.32422 C 271.04492,142.77344 271.82942,143.11198 272.59766,143.33984 C 273.36588,143.56771 274.12109,143.68164 274.86328,143.68164 C 275.98958,143.68164 276.85872,143.46029 277.4707,143.01758 C 278.08267,142.57487 278.38866,141.94336 278.38867,141.12305 C 278.38866,140.40691 278.16894,139.84701 277.72949,139.44336 C 277.29003,139.03972 276.569,138.73699 275.56641,138.53516 L 274.36523,138.30078 C 272.89388,138.00782 271.82942,137.54884 271.17188,136.92383 C 270.51432,136.29884 270.18555,135.4297 270.18555,134.31641 C 270.18555,133.02736 270.63965,132.01173 271.54785,131.26953 C 272.45605,130.52736 273.70768,130.15626 275.30273,130.15625 C 275.98632,130.15626 276.68293,130.21811 277.39258,130.3418 C 278.1022,130.46551 278.82812,130.65106 279.57031,130.89844 L 279.57031,130.89844 z M 289.44336,131.75781 C 288.01106,131.75783 286.87337,132.29168 286.03027,133.35938 C 285.18717,134.42709 284.76562,135.88217 284.76563,137.72461 C 284.76562,139.56055 285.18717,141.01237 286.03027,142.08008 C 286.87337,143.14779 288.01106,143.68164 289.44336,143.68164 C 290.87564,143.68164 292.01008,143.14779 292.84668,142.08008 C 293.68326,141.01237 294.10155,139.56055 294.10156,137.72461 C 294.10155,135.88217 293.68326,134.42709 292.84668,133.35938 C 292.01008,132.29168 290.87564,131.75783 289.44336,131.75781 L 289.44336,131.75781 z M 289.44336,130.15625 C 291.48762,130.15626 293.12173,130.84149 294.3457,132.21191 C 295.56965,133.58237 296.18163,135.41993 296.18164,137.72461 C 296.18163,140.02279 295.56965,141.8571 294.3457,143.22754 C 293.12173,144.59798 291.48762,145.2832 289.44336,145.2832 C 287.39257,145.2832 285.75358,144.59961 284.52637,143.23242 C 283.29915,141.86524 282.68555,140.0293 282.68555,137.72461 C 282.68555,135.41993 283.29915,133.58237 284.52637,132.21191 C 285.75358,130.84149 287.39257,130.15626 289.44336,130.15625 L 289.44336,130.15625 z M 301.24023,132.04102 L 301.24023,137.51953 L 303.7207,137.51953 C 304.63866,137.51954 305.3483,137.28191 305.84961,136.80664 C 306.3509,136.33139 306.60155,135.65431 306.60156,134.77539 C 306.60155,133.90301 306.3509,133.22918 305.84961,132.75391 C 305.3483,132.27866 304.63866,132.04103 303.7207,132.04102 L 301.24023,132.04102 z M 299.26758,130.41992 L 303.7207,130.41992 C 305.35481,130.41994 306.59016,130.7894 307.42676,131.52832 C 308.26334,132.26727 308.68163,133.34962 308.68164,134.77539 C 308.68163,136.2142 308.26334,137.30144 307.42676,138.03711 C 306.59016,138.77279 305.35481,139.14063 303.7207,139.14063 L 301.24023,139.14063 L 301.24023,145 L 299.26758,145 L 299.26758,130.41992 z M 317.70508,130.41992 L 319.67773,130.41992 L 319.67773,145 L 317.70508,145 L 317.70508,130.41992 z M 332.34375,130.89844 L 332.34375,132.82227 C 331.59504,132.46421 330.88866,132.19728 330.22461,132.02148 C 329.56054,131.84572 328.91926,131.75783 328.30078,131.75781 C 327.22656,131.75783 326.39811,131.96616 325.81543,132.38281 C 325.23274,132.79949 324.9414,133.39194 324.94141,134.16016 C 324.9414,134.8047 325.13509,135.29135 325.52246,135.62012 C 325.90983,135.9489 326.64388,136.2142 327.72461,136.41602 L 328.91602,136.66016 C 330.38736,136.94011 331.47297,137.43328 332.17285,138.13965 C 332.87271,138.84603 333.22264,139.79167 333.22266,140.97656 C 333.22264,142.38933 332.74901,143.46029 331.80176,144.18945 C 330.85448,144.91862 329.46614,145.2832 327.63672,145.2832 C 326.94661,145.2832 326.21256,145.20508 325.43457,145.04883 C 324.65657,144.89258 323.85091,144.66146 323.01758,144.35547 L 323.01758,142.32422 C 323.81836,142.77344 324.60286,143.11198 325.37109,143.33984 C 326.13932,143.56771 326.89453,143.68164 327.63672,143.68164 C 328.76301,143.68164 329.63215,143.46029 330.24414,143.01758 C 330.85611,142.57487 331.1621,141.94336 331.16211,141.12305 C 331.1621,140.40691 330.94237,139.84701 330.50293,139.44336 C 330.06347,139.03972 329.34244,138.73699 328.33984,138.53516 L 327.13867,138.30078 C 325.66731,138.00782 324.60286,137.54884 323.94531,136.92383 C 323.28776,136.29884 322.95898,135.4297 322.95898,134.31641 C 322.95898,133.02736 323.41308,132.01173 324.32129,131.26953 C 325.22949,130.52736 326.48111,130.15626 328.07617,130.15625 C 328.75976,130.15626 329.45637,130.21811 330.16602,130.3418 C 330.87564,130.46551 331.60155,130.65106 332.34375,130.89844 L 332.34375,130.89844 z M 349.58008,138.16406 C 350.00325,138.3073 350.41503,138.61329 350.81543,139.08203 C 351.21581,139.55079 351.61783,140.19532 352.02148,141.01563 L 354.02344,145 L 351.9043,145 L 350.03906,141.25977 C 349.55728,140.28321 349.09016,139.63542 348.6377,139.31641 C 348.18521,138.9974 347.56835,138.8379 346.78711,138.83789 L 344.63867,138.83789 L 344.63867,145 L 342.66602,145 L 342.66602,130.41992 L 347.11914,130.41992 C 348.7858,130.41994 350.02929,130.76824 350.84961,131.46484 C 351.66991,132.16147 352.08007,133.2129 352.08008,134.61914 C 352.08007,135.53712 351.86685,136.29884 351.44043,136.9043 C 351.01399,137.50977 350.39387,137.92969 349.58008,138.16406 L 349.58008,138.16406 z M 344.63867,132.04102 L 344.63867,137.2168 L 347.11914,137.2168 C 348.06965,137.2168 348.78743,136.99708 349.27246,136.55762 C 349.75748,136.11817 349.99999,135.47201 350,134.61914 C 349.99999,133.76629 349.75748,133.12338 349.27246,132.69043 C 348.78743,132.2575 348.06965,132.04103 347.11914,132.04102 L 344.63867,132.04102 z M 356.57227,130.41992 L 365.79102,130.41992 L 365.79102,132.08008 L 358.54492,132.08008 L 358.54492,136.39648 L 365.48828,136.39648 L 365.48828,138.05664 L 358.54492,138.05664 L 358.54492,143.33984 L 365.9668,143.33984 L 365.9668,145 L 356.57227,145 L 356.57227,130.41992 z M 375.14648,131.75781 C 373.71419,131.75783 372.57649,132.29168 371.7334,133.35938 C 370.8903,134.42709 370.46875,135.88217 370.46875,137.72461 C 370.46875,139.56055 370.8903,141.01237 371.7334,142.08008 C 372.57649,143.14779 373.71419,143.68164 375.14648,143.68164 C 376.57877,143.68164 377.71321,143.14779 378.5498,142.08008 C 379.38638,141.01237 379.80467,139.56055 379.80469,137.72461 C 379.80467,135.88217 379.38638,134.42709 378.5498,133.35938 C 377.71321,132.29168 376.57877,131.75783 375.14648,131.75781 L 375.14648,131.75781 z M 377.91016,144.73633 L 380.50781,147.57813 L 378.125,147.57813 L 375.9668,145.24414 C 375.75194,145.25716 375.58756,145.26693 375.47363,145.27344 C 375.35969,145.27995 375.25064,145.2832 375.14648,145.2832 C 373.0957,145.2832 371.4567,144.59798 370.22949,143.22754 C 369.00228,141.8571 368.38867,140.02279 368.38867,137.72461 C 368.38867,135.41993 369.00228,133.58237 370.22949,132.21191 C 371.4567,130.84149 373.0957,130.15626 375.14648,130.15625 C 377.19075,130.15626 378.82486,130.84149 380.04883,132.21191 C 381.27277,133.58237 381.88475,135.41993 381.88477,137.72461 C 381.88475,139.41732 381.54458,140.86589 380.86426,142.07031 C 380.18391,143.27474 379.19921,144.16341 377.91016,144.73633 L 377.91016,144.73633 z M 384.74609,130.41992 L 386.72852,130.41992 L 386.72852,139.27734 C 386.72851,140.83985 387.01171,141.96452 387.57813,142.65137 C 388.14453,143.33822 389.06249,143.68164 390.33203,143.68164 C 391.59504,143.68164 392.50976,143.33822 393.07617,142.65137 C 393.64257,141.96452 393.92577,140.83985 393.92578,139.27734 L 393.92578,130.41992 L 395.9082,130.41992 L 395.9082,139.52148 C 395.90819,141.42253 395.43781,142.85808 394.49707,143.82813 C 393.5563,144.79818 392.16796,145.2832 390.33203,145.2832 C 388.48958,145.2832 387.09798,144.79818 386.15723,143.82813 C 385.21647,142.85808 384.74609,141.42253 384.74609,139.52148 L 384.74609,130.41992 z M 399.61914,130.41992 L 408.83789,130.41992 L 408.83789,132.08008 L 401.5918,132.08008 L 401.5918,136.39648 L 408.53516,136.39648 L 408.53516,138.05664 L 401.5918,138.05664 L 401.5918,143.33984 L 409.01367,143.33984 L 409.01367,145 L 399.61914,145 L 399.61914,130.41992 z M 421.01563,130.89844 L 421.01563,132.82227 C 420.26692,132.46421 419.56054,132.19728 418.89648,132.02148 C 418.23241,131.84572 417.59114,131.75783 416.97266,131.75781 C 415.89843,131.75783 415.06998,131.96616 414.4873,132.38281 C 413.90462,132.79949 413.61328,133.39194 413.61328,134.16016 C 413.61328,134.8047 413.80696,135.29135 414.19434,135.62012 C 414.5817,135.9489 415.31575,136.2142 416.39648,136.41602 L 417.58789,136.66016 C 419.05924,136.94011 420.14485,137.43328 420.84473,138.13965 C 421.54459,138.84603 421.89452,139.79167 421.89453,140.97656 C 421.89452,142.38933 421.42089,143.46029 420.47363,144.18945 C 419.52636,144.91862 418.13801,145.2832 416.30859,145.2832 C 415.61848,145.2832 414.88444,145.20508 414.10645,145.04883 C 413.32845,144.89258 412.52278,144.66146 411.68945,144.35547 L 411.68945,142.32422 C 412.49023,142.77344 413.27474,143.11198 414.04297,143.33984 C 414.81119,143.56771 415.5664,143.68164 416.30859,143.68164 C 417.43489,143.68164 418.30403,143.46029 418.91602,143.01758 C 419.52799,142.57487 419.83397,141.94336 419.83398,141.12305 C 419.83397,140.40691 419.61425,139.84701 419.1748,139.44336 C 418.73534,139.03972 418.01432,138.73699 417.01172,138.53516 L 415.81055,138.30078 C 414.33919,138.00782 413.27474,137.54884 412.61719,136.92383 C 411.95963,136.29884 411.63086,135.4297 411.63086,134.31641 C 411.63086,133.02736 412.08496,132.01173 412.99316,131.26953 C 413.90136,130.52736 415.15299,130.15626 416.74805,130.15625 C 417.43163,130.15626 418.12825,130.21811 418.83789,130.3418 C 419.54752,130.46551 420.27343,130.65106 421.01563,130.89844 L 421.01563,130.89844 z M 422.94922,130.41992 L 435.2832,130.41992 L 435.2832,132.08008 L 430.10742,132.08008 L 430.10742,145 L 428.125,145 L 428.125,132.08008 L 422.94922,132.08008 L 422.94922,130.41992 z M 437.19727,130.41992 L 446.41602,130.41992 L 446.41602,132.08008 L 439.16992,132.08008 L 439.16992,136.39648 L 446.11328,136.39648 L 446.11328,138.05664 L 439.16992,138.05664 L 439.16992,143.33984 L 446.5918,143.33984 L 446.5918,145 L 437.19727,145 L 437.19727,130.41992 z M 451.82617,132.04102 L 451.82617,143.37891 L 454.20898,143.37891 C 456.22069,143.37891 457.69368,142.92318 458.62793,142.01172 C 459.56216,141.10026 460.02928,139.66146 460.0293,137.69531 C 460.02928,135.7422 459.56216,134.31153 458.62793,133.40332 C 457.69368,132.49513 456.22069,132.04103 454.20898,132.04102 L 451.82617,132.04102 z M 449.85352,130.41992 L 453.90625,130.41992 C 456.73176,130.41994 458.80533,131.0075 460.12695,132.18262 C 461.44855,133.35776 462.10936,135.19532 462.10938,137.69531 C 462.10936,140.20834 461.4453,142.05404 460.11719,143.23242 C 458.78905,144.41081 456.71874,145 453.90625,145 L 449.85352,145 L 449.85352,130.41992 z M 181.66016,155.41992 L 193.99414,155.41992 L 193.99414,157.08008 L 188.81836,157.08008 L 188.81836,170 L 186.83594,170 L 186.83594,157.08008 L 181.66016,157.08008 L 181.66016,155.41992 z M 201.82617,156.75781 C 200.39387,156.75783 199.25618,157.29168 198.41309,158.35938 C 197.56998,159.42709 197.14843,160.88217 197.14844,162.72461 C 197.14843,164.56055 197.56998,166.01237 198.41309,167.08008 C 199.25618,168.14779 200.39387,168.68164 201.82617,168.68164 C 203.25845,168.68164 204.39289,168.14779 205.22949,167.08008 C 206.06607,166.01237 206.48436,164.56055 206.48438,162.72461 C 206.48436,160.88217 206.06607,159.42709 205.22949,158.35938 C 204.39289,157.29168 203.25845,156.75783 201.82617,156.75781 L 201.82617,156.75781 z M 201.82617,155.15625 C 203.87043,155.15626 205.50455,155.84149 206.72852,157.21191 C 207.95246,158.58237 208.56444,160.41993 208.56445,162.72461 C 208.56444,165.02279 207.95246,166.8571 206.72852,168.22754 C 205.50455,169.59798 203.87043,170.2832 201.82617,170.2832 C 199.77538,170.2832 198.13639,169.59961 196.90918,168.23242 C 195.68196,166.86524 195.06836,165.0293 195.06836,162.72461 C 195.06836,160.41993 195.68196,158.58237 196.90918,157.21191 C 198.13639,155.84149 199.77538,155.15626 201.82617,155.15625 L 201.82617,155.15625 z M 228.93555,156.54297 L 228.93555,158.62305 C 228.27147,158.00457 227.56347,157.54233 226.81152,157.23633 C 226.05956,156.93035 225.26041,156.77736 224.41406,156.77734 C 222.74739,156.77736 221.47135,157.2868 220.58594,158.30566 C 219.70052,159.32455 219.25781,160.79754 219.25781,162.72461 C 219.25781,164.64519 219.70052,166.11491 220.58594,167.13379 C 221.47135,168.15267 222.74739,168.66211 224.41406,168.66211 C 225.26041,168.66211 226.05956,168.50912 226.81152,168.20313 C 227.56347,167.89714 228.27147,167.4349 228.93555,166.81641 L 228.93555,168.87695 C 228.24543,169.3457 227.51464,169.69727 226.74316,169.93164 C 225.97167,170.16602 225.15624,170.2832 224.29688,170.2832 C 222.08984,170.2832 220.35156,169.60775 219.08203,168.25684 C 217.8125,166.90593 217.17773,165.06185 217.17773,162.72461 C 217.17773,160.38087 217.8125,158.53354 219.08203,157.18262 C 220.35156,155.83172 222.08984,155.15626 224.29688,155.15625 C 225.16926,155.15626 225.9912,155.27182 226.7627,155.50293 C 227.53417,155.73406 228.25845,156.08074 228.93555,156.54297 L 228.93555,156.54297 z M 232.00195,155.41992 L 233.97461,155.41992 L 233.97461,161.39648 L 241.14258,161.39648 L 241.14258,155.41992 L 243.11523,155.41992 L 243.11523,170 L 241.14258,170 L 241.14258,163.05664 L 233.97461,163.05664 L 233.97461,170 L 232.00195,170 L 232.00195,155.41992 z M 251.91406,157.36328 L 249.23828,164.61914 L 254.59961,164.61914 L 251.91406,157.36328 z M 250.80078,155.41992 L 253.03711,155.41992 L 258.59375,170 L 256.54297,170 L 255.21484,166.25977 L 248.64258,166.25977 L 247.31445,170 L 245.23438,170 L 250.80078,155.41992 z M 260.71289,155.41992 L 263.36914,155.41992 L 269.83398,167.61719 L 269.83398,155.41992 L 271.74805,155.41992 L 271.74805,170 L 269.0918,170 L 262.62695,157.80273 L 262.62695,170 L 260.71289,170 L 260.71289,155.41992 z M 285.61523,167.91992 L 285.61523,164.00391 L 282.39258,164.00391 L 282.39258,162.38281 L 287.56836,162.38281 L 287.56836,168.64258 C 286.80663,169.18294 285.96678,169.59147 285.04883,169.86816 C 284.13085,170.14486 283.15103,170.2832 282.10938,170.2832 C 279.83072,170.2832 278.0485,169.61751 276.7627,168.28613 C 275.47689,166.95476 274.83398,165.10092 274.83398,162.72461 C 274.83398,160.34181 275.47689,158.48471 276.7627,157.15332 C 278.0485,155.82195 279.83072,155.15626 282.10938,155.15625 C 283.05989,155.15626 283.96321,155.27345 284.81934,155.50781 C 285.67544,155.7422 286.46483,156.08725 287.1875,156.54297 L 287.1875,158.64258 C 286.45832,158.0241 285.68358,157.55861 284.86328,157.24609 C 284.04296,156.93361 283.18033,156.77736 282.27539,156.77734 C 280.49153,156.77736 279.15201,157.2754 278.25684,158.27148 C 277.36165,159.26759 276.91406,160.75196 276.91406,162.72461 C 276.91406,164.69076 277.36165,166.17188 278.25684,167.16797 C 279.15201,168.16406 280.49153,168.66211 282.27539,168.66211 C 282.972,168.66211 283.59374,168.60189 284.14063,168.48145 C 284.68749,168.361 285.17902,168.17383 285.61523,167.91992 L 285.61523,167.91992 z M 291.18164,155.41992 L 300.40039,155.41992 L 300.40039,157.08008 L 293.1543,157.08008 L 293.1543,161.39648 L 300.09766,161.39648 L 300.09766,163.05664 L 293.1543,163.05664 L 293.1543,168.33984 L 300.57617,168.33984 L 300.57617,170 L 291.18164,170 L 291.18164,155.41992 z M 308.18359,155.41992 L 320.51758,155.41992 L 320.51758,157.08008 L 315.3418,157.08008 L 315.3418,170 L 313.35938,170 L 313.35938,157.08008 L 308.18359,157.08008 L 308.18359,155.41992 z M 322.43164,155.41992 L 324.4043,155.41992 L 324.4043,161.39648 L 331.57227,161.39648 L 331.57227,155.41992 L 333.54492,155.41992 L 333.54492,170 L 331.57227,170 L 331.57227,163.05664 L 324.4043,163.05664 L 324.4043,170 L 322.43164,170 L 322.43164,155.41992 z M 337.4707,155.41992 L 339.44336,155.41992 L 339.44336,170 L 337.4707,170 L 337.4707,155.41992 z M 352.10938,155.89844 L 352.10938,157.82227 C 351.36067,157.46421 350.65429,157.19728 349.99023,157.02148 C 349.32616,156.84572 348.68489,156.75783 348.06641,156.75781 C 346.99218,156.75783 346.16373,156.96616 345.58105,157.38281 C 344.99837,157.79949 344.70703,158.39194 344.70703,159.16016 C 344.70703,159.8047 344.90071,160.29135 345.28809,160.62012 C 345.67545,160.9489 346.4095,161.2142 347.49023,161.41602 L 348.68164,161.66016 C 350.15299,161.94011 351.2386,162.43328 351.93848,163.13965 C 352.63834,163.84603 352.98827,164.79167 352.98828,165.97656 C 352.98827,167.38933 352.51464,168.46029 351.56738,169.18945 C 350.62011,169.91862 349.23176,170.2832 347.40234,170.2832 C 346.71223,170.2832 345.97819,170.20508 345.2002,170.04883 C 344.4222,169.89258 343.61653,169.66146 342.7832,169.35547 L 342.7832,167.32422 C 343.58398,167.77344 344.36849,168.11198 345.13672,168.33984 C 345.90494,168.56771 346.66015,168.68164 347.40234,168.68164 C 348.52864,168.68164 349.39778,168.46029 350.00977,168.01758 C 350.62174,167.57487 350.92772,166.94336 350.92773,166.12305 C 350.92772,165.40691 350.708,164.84701 350.26855,164.44336 C 349.82909,164.03972 349.10807,163.73699 348.10547,163.53516 L 346.9043,163.30078 C 345.43294,163.00782 344.36849,162.54884 343.71094,161.92383 C 343.05338,161.29884 342.72461,160.4297 342.72461,159.31641 C 342.72461,158.02736 343.17871,157.01173 344.08691,156.26953 C 344.99511,155.52736 346.24674,155.15626 347.8418,155.15625 C 348.52538,155.15626 349.222,155.21811 349.93164,155.3418 C 350.64127,155.46551 351.36718,155.65106 352.10938,155.89844 L 352.10938,155.89844 z M 367.30469,157.36328 L 364.62891,164.61914 L 369.99023,164.61914 L 367.30469,157.36328 z M 366.19141,155.41992 L 368.42773,155.41992 L 373.98438,170 L 371.93359,170 L 370.60547,166.25977 L 364.0332,166.25977 L 362.70508,170 L 360.625,170 L 366.19141,155.41992 z M 383.01758,163.16406 C 383.44075,163.3073 383.85253,163.61329 384.25293,164.08203 C 384.65331,164.55079 385.05533,165.19532 385.45898,166.01563 L 387.46094,170 L 385.3418,170 L 383.47656,166.25977 C 382.99478,165.28321 382.52766,164.63542 382.0752,164.31641 C 381.62271,163.9974 381.00585,163.8379 380.22461,163.83789 L 378.07617,163.83789 L 378.07617,170 L 376.10352,170 L 376.10352,155.41992 L 380.55664,155.41992 C 382.2233,155.41994 383.46679,155.76824 384.28711,156.46484 C 385.10741,157.16147 385.51757,158.2129 385.51758,159.61914 C 385.51757,160.53712 385.30435,161.29884 384.87793,161.9043 C 384.45149,162.50977 383.83137,162.92969 383.01758,163.16406 L 383.01758,163.16406 z M 378.07617,157.04102 L 378.07617,162.2168 L 380.55664,162.2168 C 381.50715,162.2168 382.22493,161.99708 382.70996,161.55762 C 383.19498,161.11817 383.43749,160.47201 383.4375,159.61914 C 383.43749,158.76629 383.19498,158.12338 382.70996,157.69043 C 382.22493,157.2575 381.50715,157.04103 380.55664,157.04102 L 378.07617,157.04102 z M 387.98828,155.41992 L 400.32227,155.41992 L 400.32227,157.08008 L 395.14648,157.08008 L 395.14648,170 L 393.16406,170 L 393.16406,157.08008 L 387.98828,157.08008 L 387.98828,155.41992 z M 402.23633,155.41992 L 404.20898,155.41992 L 404.20898,170 L 402.23633,170 L 402.23633,155.41992 z M 419.05273,156.54297 L 419.05273,158.62305 C 418.38866,158.00457 417.68065,157.54233 416.92871,157.23633 C 416.17675,156.93035 415.37759,156.77736 414.53125,156.77734 C 412.86458,156.77736 411.58854,157.2868 410.70313,158.30566 C 409.8177,159.32455 409.375,160.79754 409.375,162.72461 C 409.375,164.64519 409.8177,166.11491 410.70313,167.13379 C 411.58854,168.15267 412.86458,168.66211 414.53125,168.66211 C 415.37759,168.66211 416.17675,168.50912 416.92871,168.20313 C 417.68065,167.89714 418.38866,167.4349 419.05273,166.81641 L 419.05273,168.87695 C 418.36262,169.3457 417.63182,169.69727 416.86035,169.93164 C 416.08886,170.16602 415.27343,170.2832 414.41406,170.2832 C 412.20703,170.2832 410.46875,169.60775 409.19922,168.25684 C 407.92969,166.90593 407.29492,165.06185 407.29492,162.72461 C 407.29492,160.38087 407.92969,158.53354 409.19922,157.18262 C 410.46875,155.83172 412.20703,155.15626 414.41406,155.15625 C 415.28645,155.15626 416.10839,155.27182 416.87988,155.50293 C 417.65136,155.73406 418.37564,156.08074 419.05273,156.54297 L 419.05273,156.54297 z M 422.11914,155.41992 L 424.0918,155.41992 L 424.0918,168.33984 L 431.19141,168.33984 L 431.19141,170 L 422.11914,170 L 422.11914,155.41992 z M 433.25195,155.41992 L 442.4707,155.41992 L 442.4707,157.08008 L 435.22461,157.08008 L 435.22461,161.39648 L 442.16797,161.39648 L 442.16797,163.05664 L 435.22461,163.05664 L 435.22461,168.33984 L 442.64648,168.33984 L 442.64648,170 L 433.25195,170 L 433.25195,155.41992 z M 450.25391,155.41992 L 462.58789,155.41992 L 462.58789,157.08008 L 457.41211,157.08008 L 457.41211,170 L 455.42969,170 L 455.42969,157.08008 L 450.25391,157.08008 L 450.25391,155.41992 z M 470.41992,156.75781 C 468.98762,156.75783 467.84993,157.29168 467.00684,158.35938 C 466.16373,159.42709 465.74218,160.88217 465.74219,162.72461 C 465.74218,164.56055 466.16373,166.01237 467.00684,167.08008 C 467.84993,168.14779 468.98762,168.68164 470.41992,168.68164 C 471.8522,168.68164 472.98664,168.14779 473.82324,167.08008 C 474.65982,166.01237 475.07811,164.56055 475.07813,162.72461 C 475.07811,160.88217 474.65982,159.42709 473.82324,158.35938 C 472.98664,157.29168 471.8522,156.75783 470.41992,156.75781 L 470.41992,156.75781 z M 470.41992,155.15625 C 472.46418,155.15626 474.0983,155.84149 475.32227,157.21191 C 476.54621,158.58237 477.15819,160.41993 477.1582,162.72461 C 477.15819,165.02279 476.54621,166.8571 475.32227,168.22754 C 474.0983,169.59798 472.46418,170.2832 470.41992,170.2832 C 468.36913,170.2832 466.73014,169.59961 465.50293,168.23242 C 464.27571,166.86524 463.66211,165.0293 463.66211,162.72461 C 463.66211,160.41993 464.27571,158.58237 465.50293,157.21191 C 466.73014,155.84149 468.36913,155.15626 470.41992,155.15625 L 470.41992,155.15625 z M 193.47656,182.36328 L 190.80078,189.61914 L 196.16211,189.61914 L 193.47656,182.36328 z M 192.36328,180.41992 L 194.59961,180.41992 L 200.15625,195 L 198.10547,195 L 196.77734,191.25977 L 190.20508,191.25977 L 188.87695,195 L 186.79688,195 L 192.36328,180.41992 z M 202.27539,180.41992 L 204.93164,180.41992 L 211.39648,192.61719 L 211.39648,180.41992 L 213.31055,180.41992 L 213.31055,195 L 210.6543,195 L 204.18945,182.80273 L 204.18945,195 L 202.27539,195 L 202.27539,180.41992 z M 223.1543,181.75781 C 221.722,181.75783 220.5843,182.29168 219.74121,183.35938 C 218.89811,184.42709 218.47656,185.88217 218.47656,187.72461 C 218.47656,189.56055 218.89811,191.01237 219.74121,192.08008 C 220.5843,193.14779 221.722,193.68164 223.1543,193.68164 C 224.58658,193.68164 225.72102,193.14779 226.55762,192.08008 C 227.39419,191.01237 227.81249,189.56055 227.8125,187.72461 C 227.81249,185.88217 227.39419,184.42709 226.55762,183.35938 C 225.72102,182.29168 224.58658,181.75783 223.1543,181.75781 L 223.1543,181.75781 z M 223.1543,180.15625 C 225.19856,180.15626 226.83267,180.84149 228.05664,182.21191 C 229.28058,183.58237 229.89256,185.41993 229.89258,187.72461 C 229.89256,190.02279 229.28058,191.8571 228.05664,193.22754 C 226.83267,194.59798 225.19856,195.2832 223.1543,195.2832 C 221.10351,195.2832 219.46451,194.59961 218.2373,193.23242 C 217.01009,191.86524 216.39648,190.0293 216.39648,187.72461 C 216.39648,185.41993 217.01009,183.58237 218.2373,182.21191 C 219.46451,180.84149 221.10351,180.15626 223.1543,180.15625 L 223.1543,180.15625 z M 230.95703,180.41992 L 243.29102,180.41992 L 243.29102,182.08008 L 238.11523,182.08008 L 238.11523,195 L 236.13281,195 L 236.13281,182.08008 L 230.95703,182.08008 L 230.95703,180.41992 z M 245.20508,180.41992 L 247.17773,180.41992 L 247.17773,186.39648 L 254.3457,186.39648 L 254.3457,180.41992 L 256.31836,180.41992 L 256.31836,195 L 254.3457,195 L 254.3457,188.05664 L 247.17773,188.05664 L 247.17773,195 L 245.20508,195 L 245.20508,180.41992 z M 260.24414,180.41992 L 269.46289,180.41992 L 269.46289,182.08008 L 262.2168,182.08008 L 262.2168,186.39648 L 269.16016,186.39648 L 269.16016,188.05664 L 262.2168,188.05664 L 262.2168,193.33984 L 269.63867,193.33984 L 269.63867,195 L 260.24414,195 L 260.24414,180.41992 z M 279.81445,188.16406 C 280.23762,188.3073 280.6494,188.61329 281.0498,189.08203 C 281.45018,189.55079 281.8522,190.19532 282.25586,191.01563 L 284.25781,195 L 282.13867,195 L 280.27344,191.25977 C 279.79166,190.28321 279.32454,189.63542 278.87207,189.31641 C 278.41959,188.9974 277.80273,188.8379 277.02148,188.83789 L 274.87305,188.83789 L 274.87305,195 L 272.90039,195 L 272.90039,180.41992 L 277.35352,180.41992 C 279.02017,180.41994 280.26366,180.76824 281.08398,181.46484 C 281.90429,182.16147 282.31444,183.2129 282.31445,184.61914 C 282.31444,185.53712 282.10123,186.29884 281.6748,186.9043 C 281.24836,187.50977 280.62825,187.92969 279.81445,188.16406 L 279.81445,188.16406 z M 274.87305,182.04102 L 274.87305,187.2168 L 277.35352,187.2168 C 278.30403,187.2168 279.0218,186.99708 279.50684,186.55762 C 279.99185,186.11817 280.23437,185.47201 280.23438,184.61914 C 280.23437,183.76629 279.99185,183.12338 279.50684,182.69043 C 279.0218,182.2575 278.30403,182.04103 277.35352,182.04102 L 274.87305,182.04102 z M 291.875,180.41992 L 293.86719,180.41992 L 296.93359,192.74414 L 299.99023,180.41992 L 302.20703,180.41992 L 305.27344,192.74414 L 308.33008,180.41992 L 310.33203,180.41992 L 306.66992,195 L 304.18945,195 L 301.11328,182.34375 L 298.00781,195 L 295.52734,195 L 291.875,180.41992 z M 319.85352,188.16406 C 320.27668,188.3073 320.68847,188.61329 321.08887,189.08203 C 321.48925,189.55079 321.89127,190.19532 322.29492,191.01563 L 324.29688,195 L 322.17773,195 L 320.3125,191.25977 C 319.83072,190.28321 319.3636,189.63542 318.91113,189.31641 C 318.45865,188.9974 317.84179,188.8379 317.06055,188.83789 L 314.91211,188.83789 L 314.91211,195 L 312.93945,195 L 312.93945,180.41992 L 317.39258,180.41992 C 319.05924,180.41994 320.30273,180.76824 321.12305,181.46484 C 321.94335,182.16147 322.3535,183.2129 322.35352,184.61914 C 322.3535,185.53712 322.14029,186.29884 321.71387,186.9043 C 321.28742,187.50977 320.66731,187.92969 319.85352,188.16406 L 319.85352,188.16406 z M 314.91211,182.04102 L 314.91211,187.2168 L 317.39258,187.2168 C 318.34309,187.2168 319.06086,186.99708 319.5459,186.55762 C 320.03092,186.11817 320.27343,185.47201 320.27344,184.61914 C 320.27343,183.76629 320.03092,183.12338 319.5459,182.69043 C 319.06086,182.2575 318.34309,182.04103 317.39258,182.04102 L 314.91211,182.04102 z M 332.76367,181.75781 C 331.33137,181.75783 330.19368,182.29168 329.35059,183.35938 C 328.50748,184.42709 328.08593,185.88217 328.08594,187.72461 C 328.08593,189.56055 328.50748,191.01237 329.35059,192.08008 C 330.19368,193.14779 331.33137,193.68164 332.76367,193.68164 C 334.19595,193.68164 335.33039,193.14779 336.16699,192.08008 C 337.00357,191.01237 337.42186,189.56055 337.42188,187.72461 C 337.42186,185.88217 337.00357,184.42709 336.16699,183.35938 C 335.33039,182.29168 334.19595,181.75783 332.76367,181.75781 L 332.76367,181.75781 z M 332.76367,180.15625 C 334.80793,180.15626 336.44205,180.84149 337.66602,182.21191 C 338.88996,183.58237 339.50194,185.41993 339.50195,187.72461 C 339.50194,190.02279 338.88996,191.8571 337.66602,193.22754 C 336.44205,194.59798 334.80793,195.2832 332.76367,195.2832 C 330.71288,195.2832 329.07389,194.59961 327.84668,193.23242 C 326.61946,191.86524 326.00586,190.0293 326.00586,187.72461 C 326.00586,185.41993 326.61946,183.58237 327.84668,182.21191 C 329.07389,180.84149 330.71288,180.15626 332.76367,180.15625 L 332.76367,180.15625 z M 342.58789,180.41992 L 345.24414,180.41992 L 351.70898,192.61719 L 351.70898,180.41992 L 353.62305,180.41992 L 353.62305,195 L 350.9668,195 L 344.50195,182.80273 L 344.50195,195 L 342.58789,195 L 342.58789,180.41992 z M 367.49023,192.91992 L 367.49023,189.00391 L 364.26758,189.00391 L 364.26758,187.38281 L 369.44336,187.38281 L 369.44336,193.64258 C 368.68163,194.18294 367.84178,194.59147 366.92383,194.86816 C 366.00585,195.14486 365.02603,195.2832 363.98438,195.2832 C 361.70572,195.2832 359.9235,194.61751 358.6377,193.28613 C 357.35189,191.95476 356.70898,190.10092 356.70898,187.72461 C 356.70898,185.34181 357.35189,183.48471 358.6377,182.15332 C 359.9235,180.82195 361.70572,180.15626 363.98438,180.15625 C 364.93489,180.15626 365.83821,180.27345 366.69434,180.50781 C 367.55044,180.7422 368.33983,181.08725 369.0625,181.54297 L 369.0625,183.64258 C 368.33332,183.0241 367.55858,182.55861 366.73828,182.24609 C 365.91796,181.93361 365.05533,181.77736 364.15039,181.77734 C 362.36653,181.77736 361.02701,182.2754 360.13184,183.27148 C 359.23665,184.26759 358.78906,185.75196 358.78906,187.72461 C 358.78906,189.69076 359.23665,191.17188 360.13184,192.16797 C 361.02701,193.16406 362.36653,193.66211 364.15039,193.66211 C 364.847,193.66211 365.46874,193.60189 366.01563,193.48145 C 366.56249,193.361 367.05402,193.17383 367.49023,192.91992 L 367.49023,192.91992 z M 383.18359,195 L 377.61719,180.41992 L 379.67773,180.41992 L 384.29688,192.69531 L 388.92578,180.41992 L 390.97656,180.41992 L 385.41992,195 L 383.18359,195 z M 393.0957,180.41992 L 402.31445,180.41992 L 402.31445,182.08008 L 395.06836,182.08008 L 395.06836,186.39648 L 402.01172,186.39648 L 402.01172,188.05664 L 395.06836,188.05664 L 395.06836,193.33984 L 402.49023,193.33984 L 402.49023,195 L 393.0957,195 L 393.0957,180.41992 z M 412.66602,188.16406 C 413.08918,188.3073 413.50097,188.61329 413.90137,189.08203 C 414.30175,189.55079 414.70377,190.19532 415.10742,191.01563 L 417.10938,195 L 414.99023,195 L 413.125,191.25977 C 412.64322,190.28321 412.1761,189.63542 411.72363,189.31641 C 411.27115,188.9974 410.65429,188.8379 409.87305,188.83789 L 407.72461,188.83789 L 407.72461,195 L 405.75195,195 L 405.75195,180.41992 L 410.20508,180.41992 C 411.87174,180.41994 413.11523,180.76824 413.93555,181.46484 C 414.75585,182.16147 415.166,183.2129 415.16602,184.61914 C 415.166,185.53712 414.95279,186.29884 414.52637,186.9043 C 414.09992,187.50977 413.47981,187.92969 412.66602,188.16406 L 412.66602,188.16406 z M 407.72461,182.04102 L 407.72461,187.2168 L 410.20508,187.2168 C 411.15559,187.2168 411.87336,186.99708 412.3584,186.55762 C 412.84342,186.11817 413.08593,185.47201 413.08594,184.61914 C 413.08593,183.76629 412.84342,183.12338 412.3584,182.69043 C 411.87336,182.2575 411.15559,182.04103 410.20508,182.04102 L 407.72461,182.04102 z M 428.39844,180.89844 L 428.39844,182.82227 C 427.64973,182.46421 426.94335,182.19728 426.2793,182.02148 C 425.61523,181.84572 424.97395,181.75783 424.35547,181.75781 C 423.28124,181.75783 422.45279,181.96616 421.87012,182.38281 C 421.28743,182.79949 420.99609,183.39194 420.99609,184.16016 C 420.99609,184.8047 421.18978,185.29135 421.57715,185.62012 C 421.96451,185.9489 422.69856,186.2142 423.7793,186.41602 L 424.9707,186.66016 C 426.44205,186.94011 427.52766,187.43328 428.22754,188.13965 C 428.9274,188.84603 429.27733,189.79167 429.27734,190.97656 C 429.27733,192.38933 428.8037,193.46029 427.85645,194.18945 C 426.90917,194.91862 425.52083,195.2832 423.69141,195.2832 C 423.0013,195.2832 422.26725,195.20508 421.48926,195.04883 C 420.71126,194.89258 419.9056,194.66146 419.07227,194.35547 L 419.07227,192.32422 C 419.87304,192.77344 420.65755,193.11198 421.42578,193.33984 C 422.19401,193.56771 422.94921,193.68164 423.69141,193.68164 C 424.8177,193.68164 425.68684,193.46029 426.29883,193.01758 C 426.9108,192.57487 427.21679,191.94336 427.2168,191.12305 C 427.21679,190.40691 426.99706,189.84701 426.55762,189.44336 C 426.11816,189.03972 425.39713,188.73699 424.39453,188.53516 L 423.19336,188.30078 C 421.722,188.00782 420.65755,187.54884 420,186.92383 C 419.34245,186.29884 419.01367,185.4297 419.01367,184.31641 C 419.01367,183.02736 419.46777,182.01173 420.37598,181.26953 C 421.28418,180.52736 422.5358,180.15626 424.13086,180.15625 C 424.81445,180.15626 425.51106,180.21811 426.2207,180.3418 C 426.93033,180.46551 427.65624,180.65106 428.39844,180.89844 L 428.39844,180.89844 z M 432.35352,180.41992 L 434.32617,180.41992 L 434.32617,195 L 432.35352,195 L 432.35352,180.41992 z M 444.16992,181.75781 C 442.73762,181.75783 441.59993,182.29168 440.75684,183.35938 C 439.91373,184.42709 439.49218,185.88217 439.49219,187.72461 C 439.49218,189.56055 439.91373,191.01237 440.75684,192.08008 C 441.59993,193.14779 442.73762,193.68164 444.16992,193.68164 C 445.6022,193.68164 446.73664,193.14779 447.57324,192.08008 C 448.40982,191.01237 448.82811,189.56055 448.82813,187.72461 C 448.82811,185.88217 448.40982,184.42709 447.57324,183.35938 C 446.73664,182.29168 445.6022,181.75783 444.16992,181.75781 L 444.16992,181.75781 z M 444.16992,180.15625 C 446.21418,180.15626 447.8483,180.84149 449.07227,182.21191 C 450.29621,183.58237 450.90819,185.41993 450.9082,187.72461 C 450.90819,190.02279 450.29621,191.8571 449.07227,193.22754 C 447.8483,194.59798 446.21418,195.2832 444.16992,195.2832 C 442.11913,195.2832 440.48014,194.59961 439.25293,193.23242 C 438.02571,191.86524 437.41211,190.0293 437.41211,187.72461 C 437.41211,185.41993 438.02571,183.58237 439.25293,182.21191 C 440.48014,180.84149 442.11913,180.15626 444.16992,180.15625 L 444.16992,180.15625 z M 453.99414,180.41992 L 456.65039,180.41992 L 463.11523,192.61719 L 463.11523,180.41992 L 465.0293,180.41992 L 465.0293,195 L 462.37305,195 L 455.9082,182.80273 L 455.9082,195 L 453.99414,195 L 453.99414,180.41992 z M 469.13086,192.51953 L 471.19141,192.51953 L 471.19141,195 L 469.13086,195 L 469.13086,192.51953 z M 267.75391,215.41992 L 280.08789,215.41992 L 280.08789,217.08008 L 274.91211,217.08008 L 274.91211,230 L 272.92969,230 L 272.92969,217.08008 L 267.75391,217.08008 L 267.75391,215.41992 z M 282.00195,215.41992 L 283.97461,215.41992 L 283.97461,221.39648 L 291.14258,221.39648 L 291.14258,215.41992 L 293.11523,215.41992 L 293.11523,230 L 291.14258,230 L 291.14258,223.05664 L 283.97461,223.05664 L 283.97461,230 L 282.00195,230 L 282.00195,215.41992 z M 301.91406,217.36328 L 299.23828,224.61914 L 304.59961,224.61914 L 301.91406,217.36328 z M 300.80078,215.41992 L 303.03711,215.41992 L 308.59375,230 L 306.54297,230 L 305.21484,226.25977 L 298.64258,226.25977 L 297.31445,230 L 295.23438,230 L 300.80078,215.41992 z M 310.71289,215.41992 L 313.36914,215.41992 L 319.83398,227.61719 L 319.83398,215.41992 L 321.74805,215.41992 L 321.74805,230 L 319.0918,230 L 312.62695,217.80273 L 312.62695,230 L 310.71289,230 L 310.71289,215.41992 z M 325.67383,215.41992 L 327.64648,215.41992 L 327.64648,221.58203 L 334.18945,215.41992 L 336.72852,215.41992 L 329.49219,222.2168 L 337.24609,230 L 334.64844,230 L 327.64648,222.97852 L 327.64648,230 L 325.67383,230 L 325.67383,215.41992 z M 343.16406,215.41992 L 345.2832,215.41992 L 349.32617,221.41602 L 353.33984,215.41992 L 355.45898,215.41992 L 350.30273,223.05664 L 350.30273,230 L 348.32031,230 L 348.32031,223.05664 L 343.16406,215.41992 z M 363.31055,216.75781 C 361.87825,216.75783 360.74055,217.29168 359.89746,218.35938 C 359.05436,219.42709 358.63281,220.88217 358.63281,222.72461 C 358.63281,224.56055 359.05436,226.01237 359.89746,227.08008 C 360.74055,228.14779 361.87825,228.68164 363.31055,228.68164 C 364.74283,228.68164 365.87727,228.14779 366.71387,227.08008 C 367.55044,226.01237 367.96874,224.56055 367.96875,222.72461 C 367.96874,220.88217 367.55044,219.42709 366.71387,218.35938 C 365.87727,217.29168 364.74283,216.75783 363.31055,216.75781 L 363.31055,216.75781 z M 363.31055,215.15625 C 365.35481,215.15626 366.98892,215.84149 368.21289,217.21191 C 369.43683,218.58237 370.04881,220.41993 370.04883,222.72461 C 370.04881,225.02279 369.43683,226.8571 368.21289,228.22754 C 366.98892,229.59798 365.35481,230.2832 363.31055,230.2832 C 361.25976,230.2832 359.62076,229.59961 358.39355,228.23242 C 357.16634,226.86524 356.55273,225.0293 356.55273,222.72461 C 356.55273,220.41993 357.16634,218.58237 358.39355,217.21191 C 359.62076,215.84149 361.25976,215.15626 363.31055,215.15625 L 363.31055,215.15625 z M 372.91016,215.41992 L 374.89258,215.41992 L 374.89258,224.27734 C 374.89257,225.83985 375.17578,226.96452 375.74219,227.65137 C 376.30859,228.33822 377.22656,228.68164 378.49609,228.68164 C 379.75911,228.68164 380.67382,228.33822 381.24023,227.65137 C 381.80663,226.96452 382.08983,225.83985 382.08984,224.27734 L 382.08984,215.41992 L 384.07227,215.41992 L 384.07227,224.52148 C 384.07225,226.42253 383.60188,227.85808 382.66113,228.82813 C 381.72037,229.79818 380.33202,230.2832 378.49609,230.2832 C 376.65364,230.2832 375.26204,229.79818 374.32129,228.82813 C 373.38053,227.85808 372.91015,226.42253 372.91016,224.52148 L 372.91016,215.41992 z M 387.95898,227.51953 L 390.01953,227.51953 L 390.01953,230 L 387.95898,230 L 387.95898,227.51953 z "
     id="text14" />
  <path
     fill="#000"
     id="boom"
     d="M 25 100 L 42 179 L 33 100 L 25 100 M 45 100 L 51 148 C 52 156 54 163 47 168 L 52 178 C 57 153 54 126 54 100 L 45 100 M 58 100 L 59 147 L 65 100 L 58 100 M 59 183 L 114 110  L 119 100 L 107 100 L 66 170 L 88 100 L 75 100 L 59 183 M 63 187 L 67 185 L 67 189 L 150 162 L 150 125 L 90 172 L 98 169 L 102 174 L 74 183 L 81 177 L 81 176 L 75 176 L 150 110 L 150 100 L 137 100 L 118 123 L 63 187 M 39 120 C 39 127 38.713 134 46 138 C 46 132 45 122 39 120 M 20 131 L 20 150 C 25 163 38 177 37 190 L 35 190 C 33 184 32 180 26 177 C 28 184 29 194 39 189 L 39 193 L 40 193 L 34 172 L 34 162 L 28 154 L 20 131 M 109 183 C 121 184 142 188 143 171 C 134 171 114 175 109 183 M 48 181 L 46 196 L 47 196 L 49 184 C 57 190 52 192 52 201 L 53 201 C 54 190 58 189 48 181 M 67 198 L 67 199 L 74 199 L 76 205 L 76 199 L 89 199 C 90 208 106 206 112 202 L 102 198 L 102 197 C 116 196 126 207 141 203 L 135 196 L 150 196 L 150 182 L 116 190 L 67 198 M 88 189 C 94 189 100 191.55 102 185 C 97 184 91 184 88 189 M 77 191 L 77 192 L 85 191 L 77 191 M 70 192 L 70 194 L 72 194 L 72 192 L 70 192 M 57 203 L 58 203 C 57 199 57 197 61 195 L 59 203 L 63 193 C 57 194 55 197 57 203 M 58 204 L 60 206 L 58 204 M 60 207 L 61 212 L 62 212 L 64 207 L 60 207 M 101 207 L 101 208 L 107 208 L 101 207 M 89 208 L 106 215 L 150 229 L 150 218 L 117 213 L 117 212 L 129 212 L 129 211 C 124 209 113 205 111 212 L 89 208 M 65 211 L 66 211 L 65 211 M 74 210 C 74 215 74 219 78 222 L 77 216 L 81 216 L 74 210 M 63 214 L 66 221 L 65 214 L 63 214 M 89 216 L 89 222 L 100 230 L 121 230 L 89 216 M 30 120 L 24 118 L 27 141 L 44 147 L 30 120 M 77 144 C 84 141 90 129 88 122 L 77 129 L 77 144 M 103 130 C 108 126 116 120 120 115 C 124 109 119 108 114 110 L 103 130" />
  <path
     fill="#000"
     id="brackets"
     d="M 25 200 L 25 228 L 34 228 L 34 225 L 30 225 L 30 203 L 34 203 L 34 200 L 25 200      M 39 200 L 39 228 L 48 228 L 48 225 L 44 225 L 44 203 L 48 203 L 48 200 L 39 200      M 64 200 L 64 203 L 68 203 L 68 225 L 64 225 L 64 228 L 73 228 L 73 200 L 64 200      M 78 200 L 78 203 L 82 203 L 82 225 L 78 225 L 78 228 L 87 228 L 87 200 L 78 200" />
</svg>
