<svg width="32" height="32" focusable="false" role="img" aria-hidden="true" viewBox="0 0 32 32" xmlns="http://www.w3.org/2000/svg">
	<path d="m32 16c0 8.9-7.1 16-16 16s-16-7.1-16-16 7.2-16 16-16 16 7.2 16 16z" fill="#fff"></path>
	<path d="m16 32c-8.8 0-16-7.2-16-16s7.2-16 16-16 16 7.2 16 16-7.2 16-16 16m0-30.8c-8.1 0-14.8 6.7-14.8 14.8s6.6 14.8 14.8 14.8 14.8-6.6 14.8-14.8-6.7-14.8-14.8-14.8" fill="#ff0000"></path>
	<path d="m15.9 8.3s-6.9 0-8.6.4c-.9.2-1.7 1-1.9 1.9-.5 1.8-.5 5.4-.5 5.4s0 3.6.4 5.3c.2 1 1 1.7 1.9 2 1.8.5 8.6.5 8.6.5s6.9 0 8.6-.5c1-.2 1.7-1 2-2 .6-1.7.6-5.3.6-5.3s0-3.6-.5-5.3c-.2-.9-1-1.7-2-1.9-1.7-.5-8.6-.5-8.6-.5z" fill="#ff0000"></path>
	<path d="m13.2 11.6 7.5 4.4-7.5 4.4z" fill="#fff"></path>
</svg>