<?xml version="1.0" encoding="UTF-8"?>
<!-- Created with Grafika (https://www.grafika.cc/) -->
<svg xmlns="http://www.w3.org/2000/svg" xmlns:svg="http://www.w3.org/2000/svg" xmlns:xlink="http://www.w3.org/1999/xlink" width="4500" height="2500" viewBox="0 0 4500 2500" preserveAspectRatio="xMidYMid meet">
	<defs>
		<clipPath id="mask_1">
			<rect x="-250" y="-250" width="500" height="500" />
		</clipPath>
		<clipPath id="mask_2">
			<rect x="-250" y="-250" width="500" height="500" />
		</clipPath>
		<clipPath id="mask_3">
			<rect x="-250" y="-250" width="500" height="500" />
		</clipPath>
		<clipPath id="mask_4">
			<rect x="-250" y="-250" width="500" height="500" />
		</clipPath>
		<clipPath id="mask_5">
			<rect x="-250" y="-250" width="500" height="500" />
		</clipPath>
		<clipPath id="mask_6">
			<rect x="-250" y="-250" width="500" height="500" />
		</clipPath>
		<clipPath id="mask_7">
			<rect x="-250" y="-250" width="500" height="500" />
		</clipPath>
		<clipPath id="mask_8">
			<rect x="-250" y="-250" width="500" height="500" />
		</clipPath>
		<clipPath id="mask_9">
			<rect x="-250" y="-250" width="500" height="500" />
		</clipPath>
		<clipPath id="mask_10">
			<rect x="-250" y="-250" width="500" height="500" />
		</clipPath>
		<clipPath id="mask_11">
			<rect x="-250" y="-250" width="500" height="500" />
		</clipPath>
		<clipPath id="mask_12">
			<rect x="-250" y="-250" width="500" height="500" />
		</clipPath>
		<clipPath id="mask_13">
			<rect x="-250" y="-250" width="500" height="500" />
		</clipPath>
		<clipPath id="mask_14">
			<rect x="-250" y="-250" width="500" height="500" />
		</clipPath>
		<clipPath id="mask_15">
			<rect x="-250" y="-250" width="500" height="500" />
		</clipPath>
		<clipPath id="mask_16">
			<rect x="-250" y="-250" width="500" height="500" />
		</clipPath>
		<clipPath id="mask_17">
			<rect x="-250" y="-250" width="500" height="500" />
		</clipPath>
		<clipPath id="mask_18">
			<rect x="-250" y="-250" width="500" height="500" />
		</clipPath>
		<clipPath id="mask_19">
			<rect x="-250" y="-250" width="500" height="500" />
		</clipPath>
		<clipPath id="mask_20">
			<rect x="-250" y="-250" width="500" height="500" />
		</clipPath>
		<clipPath id="mask_21">
			<rect x="-250" y="-250" width="500" height="500" />
		</clipPath>
		<clipPath id="mask_22">
			<rect x="-250" y="-250" width="500" height="500" />
		</clipPath>
		<clipPath id="mask_23">
			<rect x="-250" y="-250" width="500" height="500" />
		</clipPath>
		<clipPath id="mask_24">
			<rect x="-250" y="-250" width="500" height="500" />
		</clipPath>
		<clipPath id="mask_25">
			<rect x="-250" y="-250" width="500" height="500" />
		</clipPath>
		<clipPath id="mask_26">
			<rect x="-250" y="-250" width="500" height="500" />
		</clipPath>
		<clipPath id="mask_27">
			<rect x="-250" y="-250" width="500" height="500" />
		</clipPath>
		<clipPath id="mask_28">
			<rect x="-250" y="-250" width="500" height="500" />
		</clipPath>
		<clipPath id="mask_29">
			<rect x="-250" y="-250" width="500" height="500" />
		</clipPath>
		<clipPath id="mask_30">
			<rect x="-250" y="-250" width="500" height="500" />
		</clipPath>
		<clipPath id="mask_31">
			<rect x="-250" y="-250" width="500" height="500" />
		</clipPath>
		<clipPath id="mask_32">
			<rect x="-250" y="-250" width="500" height="500" />
		</clipPath>
		<clipPath id="mask_33">
			<rect x="-250" y="-250" width="500" height="500" />
		</clipPath>
		<clipPath id="mask_34">
			<rect x="-250" y="-250" width="500" height="500" />
		</clipPath>
		<clipPath id="mask_35">
			<rect x="2000" y="2000" width="500" height="500" />
		</clipPath>
		<clipPath id="mask_36">
			<rect x="-250" y="-250" width="500" height="500" />
		</clipPath>
		<clipPath id="mask_37">
			<rect x="-250" y="-250" width="500" height="500" />
		</clipPath>
		<clipPath id="mask_38">
			<rect x="-250" y="-250" width="500" height="500" />
		</clipPath>
		<clipPath id="mask_39">
			<rect x="-250" y="-250" width="500" height="500" />
		</clipPath>
		<clipPath id="mask_40">
			<rect x="-250" y="-250" width="500" height="500" />
		</clipPath>
	</defs>
	<g id="Group 8812">
		<g id="BSicon_uhvSTR.svg 1662" transform="matrix(-0.00000012554994555102894, 1.0000005960464478, -1.0000005960464478, -0.00000012554994555102894, 3749.779296875, 1250)" clip-path="url(#mask_1)">
			<path d="M-125,-250 L-125,250M125,250 L125,-250" style="fill:#000000;stroke:#00B500;stroke-linecap:butt;stroke-linejoin:miter;stroke-miterlimit:4;stroke-width:100;" />
			<path d="M-250,-250 L-250,250M250,250 L250,-250" style="fill:#000000;stroke:#80A080;stroke-linecap:butt;stroke-linejoin:miter;stroke-miterlimit:4;stroke-width:50;" />
		</g>
		<g id="BSicon_uhvSTR.svg 1672" transform="matrix(-0.00000012554994555102894, 1.0000005960464478, -1.0000005960464478, -0.00000012554994555102894, 3250.001953125, 1250)" clip-path="url(#mask_2)">
			<path d="M-125,-250 L-125,250M125,250 L125,-250" style="fill:#000000;stroke:#00B500;stroke-linecap:butt;stroke-linejoin:miter;stroke-miterlimit:4;stroke-width:100;" />
			<path d="M-250,-250 L-250,250M250,250 L250,-250" style="fill:#000000;stroke:#80A080;stroke-linecap:butt;stroke-linejoin:miter;stroke-miterlimit:4;stroke-width:50;" />
		</g>
		<g id="BSicon_uhvSTR.svg 1682" transform="matrix(-0.00000012554994555102894, 1.0000005960464478, -1.0000005960464478, -0.00000012554994555102894, 750, 1250)" clip-path="url(#mask_3)">
			<path d="M-125,-250 L-125,250M125,250 L125,-250" style="fill:#000000;stroke:#00B500;stroke-linecap:butt;stroke-linejoin:miter;stroke-miterlimit:4;stroke-width:100;" />
			<path d="M-250,-250 L-250,250M250,250 L250,-250" style="fill:#000000;stroke:#80A080;stroke-linecap:butt;stroke-linejoin:miter;stroke-miterlimit:4;stroke-width:50;" />
		</g>
		<g id="BSicon_uhvSTR.svg 1692" transform="matrix(-0.00000012554994555102894, 1.0000005960464478, -1.0000005960464478, -0.00000012554994555102894, 1250, 1250)" clip-path="url(#mask_4)">
			<path d="M-125,-250 L-125,250M125,250 L125,-250" style="fill:#000000;stroke:#00B500;stroke-linecap:butt;stroke-linejoin:miter;stroke-miterlimit:4;stroke-width:100;" />
			<path d="M-250,-250 L-250,250M250,250 L250,-250" style="fill:#000000;stroke:#80A080;stroke-linecap:butt;stroke-linejoin:miter;stroke-miterlimit:4;stroke-width:50;" />
		</g>
		<g id="BSicon_uvSTR.svg 782" transform="matrix(-0.00000012554994555102894, 1.0000005960464478, -1.0000005960464478, -0.00000012554994555102894, 2750.001953125, 1250)" clip-path="url(#mask_5)">
			<path d="M-125,-250 L-125,250M125,250 L125,-250" style="fill:#000000;stroke:#00B500;stroke-linecap:butt;stroke-linejoin:miter;stroke-miterlimit:4;stroke-width:100;" />
		</g>
		<g id="BSicon_uvSTR.svg 792" transform="matrix(-0.00000012554994555102894, 1.0000005960464478, -1.0000005960464478, -0.00000012554994555102894, 1750.0029296875, 1250)" clip-path="url(#mask_6)">
			<path d="M-125,-250 L-125,250M125,250 L125,-250" style="fill:#000000;stroke:#00B500;stroke-linecap:butt;stroke-linejoin:miter;stroke-miterlimit:4;stroke-width:100;" />
		</g>
		<g id="BSicon_uvSTR.svg 802" transform="matrix(-0.00000012554994555102894, 1.0000005960464478, -1.0000005960464478, -0.00000012554994555102894, 2250.00390625, 1250)" clip-path="url(#mask_7)">
			<path d="M-125,-250 L-125,250M125,250 L125,-250" style="fill:#000000;stroke:#00B500;stroke-linecap:butt;stroke-linejoin:miter;stroke-miterlimit:4;stroke-width:100;" />
		</g>
		<g id="BSicon_PLTl.svg 432" transform="matrix(-0.00000012554994555102894, 1.0000005960464478, -1.0000005960464478, -0.00000012554994555102894, 1750.0029296875, 750)" clip-path="url(#mask_8)">
			<rect x="125" y="-250" width="125" height="500" style="fill:#888888;" />
		</g>
		<g id="BSicon_PLTl.svg 492" transform="matrix(-0.00000012554994555102894, 1.0000005960464478, -1.0000005960464478, -0.00000012554994555102894, 2250.00390625, 750)" clip-path="url(#mask_9)">
			<rect x="125" y="-250" width="125" height="500" style="fill:#888888;" />
		</g>
		<g id="BSicon_PLTl.svg 482" transform="matrix(-0.00000012554951922538748, 0.9999971985816956, -0.9999971985816956, -0.00000012554951922538748, 2750.0029296875, 750)" clip-path="url(#mask_10)">
			<rect x="125" y="-250" width="125" height="500" style="fill:#888888;" />
		</g>
		<g id="BSicon_PLTr.svg 1442" transform="matrix(-0.00000012554994555102894, 1.0000005960464478, -1.0000005960464478, -0.00000012554994555102894, 1750, 1750)" clip-path="url(#mask_11)">
			<rect x="-250" y="-250" width="125" height="500" style="fill:#888888;" />
		</g>
		<g id="BSicon_PLTr.svg 1482" transform="matrix(-0.00000012554994555102894, 1.0000005960464478, -1.0000005960464478, -0.00000012554994555102894, 2250, 1750)" clip-path="url(#mask_12)">
			<rect x="-250" y="-250" width="125" height="500" style="fill:#888888;" />
		</g>
		<g id="BSicon_PLTr.svg 1452" transform="matrix(-0.00000012554994555102894, 1.0000005960464478, -1.0000005960464478, -0.00000012554994555102894, 1750, 1750)" clip-path="url(#mask_13)">
			<rect x="-250" y="-250" width="125" height="500" style="fill:#888888;" />
		</g>
		<g id="BSicon_PLTr.svg 1492" transform="matrix(-0.00000012554994555102894, 1.0000005960464478, -1.0000005960464478, -0.00000012554994555102894, 2250, 1750)" clip-path="url(#mask_14)">
			<rect x="-250" y="-250" width="125" height="500" style="fill:#888888;" />
		</g>
		<g id="BSicon_PLTr.svg 1462" transform="matrix(-0.00000012554994555102894, 1.0000005960464478, -1.0000005960464478, -0.00000012554994555102894, 2750.001953125, 1750)" clip-path="url(#mask_15)">
			<rect x="-250" y="-250" width="125" height="500" style="fill:#888888;" />
		</g>
		<g id="BSicon_PLTr.svg 1472" transform="matrix(-0.00000012554994555102894, 1.0000005960464478, -1.0000005960464478, -0.00000012554994555102894, 2750.001953125, 1750)" clip-path="url(#mask_16)">
			<rect x="-250" y="-250" width="125" height="500" style="fill:#888888;" />
		</g>
		<g id="BSicon_vNULfg.svg 502" transform="matrix(-0.00000012554994555102894, 1.0000005960464478, -1.0000005960464478, -0.00000012554994555102894, 3250.001953125, 1250)" clip-path="url(#mask_17)">
			<path d="M75,0 L125,-50 L175,0 L175,50 L125,0 L75,50M-175,-50 L-125,0 L-75,-50 L-75,0 L-125,50 L-175,0" style="fill:#FFFFFF;" />
		</g>
		<g id="BSicon_vNULfg.svg 512" transform="matrix(-0.00000012554994555102894, 1.0000005960464478, -1.0000005960464478, -0.00000012554994555102894, 1250, 1250)" clip-path="url(#mask_18)">
			<path d="M75,0 L125,-50 L175,0 L175,50 L125,0 L75,50M-175,-50 L-125,0 L-75,-50 L-75,0 L-125,50 L-175,0" style="fill:#FFFFFF;" />
		</g>
		<g id="BSicon_RP2.svg 1802" transform="matrix(-0.000000005805211866771742, 1.0000001192092896, -1.0000001192092896, -0.000000005805211866771742, 1750.001953125, 750)" clip-path="url(#mask_19)">
			<path d="M0,-250 L0,250" style="fill:none;stroke:#999999;stroke-linecap:butt;stroke-linejoin:miter;stroke-miterlimit:4;stroke-width:110;" />
			<path d="M0,-218.8 L0,250" style="fill:none;stroke:#FFFFFF;stroke-linecap:butt;stroke-linejoin:miter;stroke-miterlimit:4;stroke-width:25;stroke-dasharray:62.5;" />
		</g>
		<g id="BSicon_RP2.svg 1922" transform="matrix(-0.000000005805211866771742, 1.0000001192092896, -1.0000001192092896, -0.000000005805211866771742, 2250.001953125, 750)" clip-path="url(#mask_20)">
			<path d="M0,-250 L0,250" style="fill:none;stroke:#999999;stroke-linecap:butt;stroke-linejoin:miter;stroke-miterlimit:4;stroke-width:110;" />
			<path d="M0,-218.8 L0,250" style="fill:none;stroke:#FFFFFF;stroke-linecap:butt;stroke-linejoin:miter;stroke-miterlimit:4;stroke-width:25;stroke-dasharray:62.5;" />
		</g>
		<g id="BSicon_RP2.svg 1812" transform="matrix(-0.000000005805211866771742, 1.0000001192092896, -1.0000001192092896, -0.000000005805211866771742, 1750.001953125, 1750)" clip-path="url(#mask_21)">
			<path d="M0,-250 L0,250" style="fill:none;stroke:#999999;stroke-linecap:butt;stroke-linejoin:miter;stroke-miterlimit:4;stroke-width:110;" />
			<path d="M0,-218.8 L0,250" style="fill:none;stroke:#FFFFFF;stroke-linecap:butt;stroke-linejoin:miter;stroke-miterlimit:4;stroke-width:25;stroke-dasharray:62.5;" />
		</g>
		<g id="BSicon_RP2.svg 1822" transform="matrix(0.000000005805211866771742, 1.0000001192092896, 1.0000001192092896, -0.000000005805211866771742, 2750.00390625, 1750)" clip-path="url(#mask_22)">
			<path d="M0,-250 L0,250" style="fill:none;stroke:#999999;stroke-linecap:butt;stroke-linejoin:miter;stroke-miterlimit:4;stroke-width:110;" />
			<path d="M0,-218.8 L0,250" style="fill:none;stroke:#FFFFFF;stroke-linecap:butt;stroke-linejoin:miter;stroke-miterlimit:4;stroke-width:25;stroke-dasharray:62.5;" />
		</g>
		<g id="BSicon_RP2.svg 1832" transform="matrix(0.000000005805211866771742, 1.0000001192092896, 1.0000001192092896, -0.000000005805211866771742, 2750.00390625, 750)" clip-path="url(#mask_23)">
			<path d="M0,-250 L0,250" style="fill:none;stroke:#999999;stroke-linecap:butt;stroke-linejoin:miter;stroke-miterlimit:4;stroke-width:110;" />
			<path d="M0,-218.8 L0,250" style="fill:none;stroke:#FFFFFF;stroke-linecap:butt;stroke-linejoin:miter;stroke-miterlimit:4;stroke-width:25;stroke-dasharray:62.5;" />
		</g>
		<g id="BSicon_RP2.svg 1842" transform="matrix(0.000000005805211866771742, 1.0000001192092896, 1.0000001192092896, -0.000000005805211866771742, 3250.001953125, 1750)" clip-path="url(#mask_24)">
			<path d="M0,-250 L0,250" style="fill:none;stroke:#999999;stroke-linecap:butt;stroke-linejoin:miter;stroke-miterlimit:4;stroke-width:110;" />
			<path d="M0,-218.8 L0,250" style="fill:none;stroke:#FFFFFF;stroke-linecap:butt;stroke-linejoin:miter;stroke-miterlimit:4;stroke-width:25;stroke-dasharray:62.5;" />
		</g>
		<g id="BSicon_RP2.svg 1862" transform="matrix(0.000000005805211866771742, 1.0000001192092896, 1.0000001192092896, -0.000000005805211866771742, 3750.001953125, 1750)" clip-path="url(#mask_25)">
			<path d="M0,-250 L0,250" style="fill:none;stroke:#999999;stroke-linecap:butt;stroke-linejoin:miter;stroke-miterlimit:4;stroke-width:110;" />
			<path d="M0,-218.8 L0,250" style="fill:none;stroke:#FFFFFF;stroke-linecap:butt;stroke-linejoin:miter;stroke-miterlimit:4;stroke-width:25;stroke-dasharray:62.5;" />
		</g>
		<g id="BSicon_RP2.svg 1872" transform="matrix(0.000000005805211866771742, 1.0000001192092896, 1.0000001192092896, -0.000000005805211866771742, 3750, 750)" clip-path="url(#mask_26)">
			<path d="M0,-250 L0,250" style="fill:none;stroke:#999999;stroke-linecap:butt;stroke-linejoin:miter;stroke-miterlimit:4;stroke-width:110;" />
			<path d="M0,-218.8 L0,250" style="fill:none;stroke:#FFFFFF;stroke-linecap:butt;stroke-linejoin:miter;stroke-miterlimit:4;stroke-width:25;stroke-dasharray:62.5;" />
		</g>
		<g id="BSicon_RP2CONTf.svg 502" transform="matrix(0.000000005805211866771742, 1.0000001192092896, 1.0000001192092896, -0.000000005805211866771742, 4250.005859375, 1750)" clip-path="url(#mask_27)">
			<path d="M0,-250 L0,0" style="fill:#000000;stroke:#999999;stroke-linecap:butt;stroke-linejoin:miter;stroke-miterlimit:4;stroke-width:110;" />
			<path d="M0,-250 L0,0" style="fill:#000000;stroke:#FFFFFF;stroke-linecap:butt;stroke-linejoin:miter;stroke-miterlimit:4;stroke-width:25;stroke-dasharray:62.5;stroke-dashoffset:93.8;" />
			<path d="M-100,-50 L-100,0 L0,100 L100,0 L100,-50 L-100,-50 Z" style="fill:#999999;stroke:#999999;stroke-linecap:butt;stroke-linejoin:miter;stroke-miterlimit:4;stroke-width:1;" />
		</g>
		<g id="BSicon_RP2CONTf.svg 522" transform="matrix(0.000000005805211866771742, 1.0000001192092896, 1.0000001192092896, -0.000000005805211866771742, 4250.00390625, 750)" clip-path="url(#mask_28)">
			<path d="M0,-250 L0,0" style="fill:#000000;stroke:#999999;stroke-linecap:butt;stroke-linejoin:miter;stroke-miterlimit:4;stroke-width:110;" />
			<path d="M0,-250 L0,0" style="fill:#000000;stroke:#FFFFFF;stroke-linecap:butt;stroke-linejoin:miter;stroke-miterlimit:4;stroke-width:25;stroke-dasharray:62.5;stroke-dashoffset:93.8;" />
			<path d="M-100,-50 L-100,0 L0,100 L100,0 L100,-50 L-100,-50 Z" style="fill:#999999;stroke:#999999;stroke-linecap:butt;stroke-linejoin:miter;stroke-miterlimit:4;stroke-width:1;" />
		</g>
		<g id="BSicon_RP2.svg 1882" transform="matrix(-0.000000005805211866771742, 1.0000001192092896, -1.0000001192092896, -0.000000005805211866771742, 750.0009765625, 750)" clip-path="url(#mask_29)">
			<path d="M0,-250 L0,250" style="fill:none;stroke:#999999;stroke-linecap:butt;stroke-linejoin:miter;stroke-miterlimit:4;stroke-width:110;" />
			<path d="M0,-218.8 L0,250" style="fill:none;stroke:#FFFFFF;stroke-linecap:butt;stroke-linejoin:miter;stroke-miterlimit:4;stroke-width:25;stroke-dasharray:62.5;" />
		</g>
		<g id="BSicon_RP2.svg 1892" transform="matrix(-0.000000005805211866771742, 1.0000001192092896, -1.0000001192092896, -0.000000005805211866771742, 1250.0009765625, 750)" clip-path="url(#mask_30)">
			<path d="M0,-250 L0,250" style="fill:none;stroke:#999999;stroke-linecap:butt;stroke-linejoin:miter;stroke-miterlimit:4;stroke-width:110;" />
			<path d="M0,-218.8 L0,250" style="fill:none;stroke:#FFFFFF;stroke-linecap:butt;stroke-linejoin:miter;stroke-miterlimit:4;stroke-width:25;stroke-dasharray:62.5;" />
		</g>
		<g id="BSicon_RP2.svg 1902" transform="matrix(-0.000000005805211866771742, 1.0000001192092896, -1.0000001192092896, -0.000000005805211866771742, 750.001953125, 1750)" clip-path="url(#mask_31)">
			<path d="M0,-250 L0,250" style="fill:none;stroke:#999999;stroke-linecap:butt;stroke-linejoin:miter;stroke-miterlimit:4;stroke-width:110;" />
			<path d="M0,-218.8 L0,250" style="fill:none;stroke:#FFFFFF;stroke-linecap:butt;stroke-linejoin:miter;stroke-miterlimit:4;stroke-width:25;stroke-dasharray:62.5;" />
		</g>
		<g id="BSicon_RP2.svg 1912" transform="matrix(-0.000000005805211866771742, 1.0000001192092896, -1.0000001192092896, -0.000000005805211866771742, 1250.001953125, 1750)" clip-path="url(#mask_32)">
			<path d="M0,-250 L0,250" style="fill:none;stroke:#999999;stroke-linecap:butt;stroke-linejoin:miter;stroke-miterlimit:4;stroke-width:110;" />
			<path d="M0,-218.8 L0,250" style="fill:none;stroke:#FFFFFF;stroke-linecap:butt;stroke-linejoin:miter;stroke-miterlimit:4;stroke-width:25;stroke-dasharray:62.5;" />
		</g>
		<g id="BSicon_RP2CONTf.svg 532" transform="matrix(-0.000000005805211866771742, 1.0000001192092896, -1.0000001192092896, -0.000000005805211866771742, 250.0009765625, 750)" clip-path="url(#mask_33)">
			<path d="M0,-250 L0,0" style="fill:#000000;stroke:#999999;stroke-linecap:butt;stroke-linejoin:miter;stroke-miterlimit:4;stroke-width:110;" />
			<path d="M0,-250 L0,0" style="fill:#000000;stroke:#FFFFFF;stroke-linecap:butt;stroke-linejoin:miter;stroke-miterlimit:4;stroke-width:25;stroke-dasharray:62.5;stroke-dashoffset:93.8;" />
			<path d="M-100,-50 L-100,0 L0,100 L100,0 L100,-50 L-100,-50 Z" style="fill:#999999;stroke:#999999;stroke-linecap:butt;stroke-linejoin:miter;stroke-miterlimit:4;stroke-width:1;" />
		</g>
		<g id="BSicon_RP2CONTf.svg 542" transform="matrix(-0.000000005805211866771742, 1.0000001192092896, -1.0000001192092896, -0.000000005805211866771742, 250, 1750)" clip-path="url(#mask_34)">
			<path d="M0,-250 L0,0" style="fill:#000000;stroke:#999999;stroke-linecap:butt;stroke-linejoin:miter;stroke-miterlimit:4;stroke-width:110;" />
			<path d="M0,-250 L0,0" style="fill:#000000;stroke:#FFFFFF;stroke-linecap:butt;stroke-linejoin:miter;stroke-miterlimit:4;stroke-width:25;stroke-dasharray:62.5;stroke-dashoffset:93.8;" />
			<path d="M-100,-50 L-100,0 L0,100 L100,0 L100,-50 L-100,-50 Z" style="fill:#999999;stroke:#999999;stroke-linecap:butt;stroke-linejoin:miter;stroke-miterlimit:4;stroke-width:1;" />
		</g>
		<g id="BSicon_RP1CONTf.svg2" clip-path="url(#mask_35)">
			<path d="M2250,2352.5 L2352.5,2250 L2352.5,2200 L2287.5,2200 L2287.5,2000 L2212.5,2000 L2212.5,2200 L2147.5,2200 L2147.5,2250" style="fill:#999999;" />
		</g>
		<g id="BSicon_RP1CONTf.svg 12" transform="matrix(1, 0, 0, -1, 3250, 250)" clip-path="url(#mask_36)">
			<path d="M0,102.5 L102.5,0 L102.5,-50 L37.5,-50 L37.5,-250 L-37.5,-250 L-37.5,-50 L-102.5,-50 L-102.5,0" style="fill:#999999;" />
		</g>
		<g id="BSicon_RP2nRP1.svg2" transform="matrix(-0.9999999403953552, 0.0000000005632538879751792, -0.0000000005632538879751792, -0.9999999403953552, 2250, 1750)" clip-path="url(#mask_37)">
			<g id="Group 5792" transform="matrix(0, -1, 1, 0, -250, 250)">
				<g id="Group 5802">
					<path d="M250,250 L500,250" style="fill:#000000;stroke:#999999;stroke-linecap:butt;stroke-linejoin:miter;stroke-miterlimit:4;stroke-width:75;" />
					<path d="M250,0 L250,500" style="fill:#000000;stroke:#999999;stroke-linecap:butt;stroke-linejoin:miter;stroke-miterlimit:4;stroke-width:110;" />
				</g>
				<path d="M250,31.3 L250,500" style="fill:#000000;stroke:#FFFFFF;stroke-linecap:butt;stroke-linejoin:miter;stroke-miterlimit:4;stroke-width:25;stroke-dasharray:62.5;" />
			</g>
		</g>
		<g id="BSicon_RP2nRP1.svg 12" transform="matrix(-0.9999999403953552, -0.0000000005632539434863304, -0.0000000005632539434863304, 0.9999999403953552, 3250, 750)" clip-path="url(#mask_38)">
			<g id="Group 5822" transform="matrix(0, -1, 1, 0, -250, 250)">
				<g id="Group 5812">
					<path d="M250,250 L500,250" style="fill:#000000;stroke:#999999;stroke-linecap:butt;stroke-linejoin:miter;stroke-miterlimit:4;stroke-width:75;" />
					<path d="M250,0 L250,500" style="fill:#000000;stroke:#999999;stroke-linecap:butt;stroke-linejoin:miter;stroke-miterlimit:4;stroke-width:110;" />
				</g>
				<path d="M250,31.3 L250,500" style="fill:#000000;stroke:#FFFFFF;stroke-linecap:butt;stroke-linejoin:miter;stroke-miterlimit:4;stroke-width:25;stroke-dasharray:62.5;" />
			</g>
		</g>
		<g id="BSicon_lhvCONTg++.svg 262" transform="matrix(0.00000000033581071257060557, -1.000000238418579, 1.000000238418579, 0.00000000033581071257060557, 250, 1250)" clip-path="url(#mask_39)">
			<g id="Right_Track_and_Arrow 282">
				<path d="M125,250 L125,50" style="fill:none;stroke:#00B500;stroke-linecap:butt;stroke-linejoin:miter;stroke-miterlimit:4;stroke-width:100;" />
				<path d="M227.5,50 L227.5,0 L125,-102.5 L22.5,0 L22.5,50" style="fill:#00B500;" />
			</g>
			<g id="Left_Track_and_Ribbon_Tail 282">
				<path d="M-75,250 L-75,-100 L-125,-50 L-175,-100 L-175,250" style="fill:#00B500;" />
			</g>
			<g id="Left_Elevated_Tails 282">
				<path d="M-250,250 L-250,50" style="fill:none;stroke:#80A080;stroke-linecap:round;stroke-linejoin:miter;stroke-miterlimit:4;stroke-width:50;stroke-dasharray:0 75;" />
			</g>
			<g id="Right_Elevated_Tails 282">
				<path d="M250,250 L250,50" style="fill:none;stroke:#80A080;stroke-linecap:round;stroke-linejoin:miter;stroke-miterlimit:4;stroke-width:50;stroke-dasharray:0 75;" />
			</g>
		</g>
		<g id="BSicon_lhvCONTg++.svg 272" transform="matrix(0.0000000020619337348648514, 1.000000238418579, -1.000000238418579, 0.0000000020619337348648514, 4250.00390625, 1250)" clip-path="url(#mask_40)">
			<g id="Right_Track_and_Arrow 292">
				<path d="M125,250 L125,50" style="fill:none;stroke:#00B500;stroke-linecap:butt;stroke-linejoin:miter;stroke-miterlimit:4;stroke-width:100;" />
				<path d="M227.5,50 L227.5,0 L125,-102.5 L22.5,0 L22.5,50" style="fill:#00B500;" />
			</g>
			<g id="Left_Track_and_Ribbon_Tail 292">
				<path d="M-75,250 L-75,-100 L-125,-50 L-175,-100 L-175,250" style="fill:#00B500;" />
			</g>
			<g id="Left_Elevated_Tails 292">
				<path d="M-250,250 L-250,50" style="fill:none;stroke:#80A080;stroke-linecap:round;stroke-linejoin:miter;stroke-miterlimit:4;stroke-width:50;stroke-dasharray:0 75;" />
			</g>
			<g id="Right_Elevated_Tails 292">
				<path d="M250,250 L250,50" style="fill:none;stroke:#80A080;stroke-linecap:round;stroke-linejoin:miter;stroke-miterlimit:4;stroke-width:50;stroke-dasharray:0 75;" />
			</g>
		</g>
	</g>
</svg>