<?xml version="1.0" encoding="UTF-8"?>
<!-- Created with Grafika (https://www.grafika.cc/) -->
<svg xmlns="http://www.w3.org/2000/svg" xmlns:svg="http://www.w3.org/2000/svg" xmlns:xlink="http://www.w3.org/1999/xlink" width="8000" height="2500" viewBox="0 0 8000 2500" preserveAspectRatio="xMidYMid meet">
	<defs>
		<clipPath id="mask_1">
			<rect x="-250" y="-250" width="500" height="500" />
		</clipPath>
		<clipPath id="mask_2">
			<rect x="-250" y="-250" width="500" height="500" />
		</clipPath>
		<clipPath id="mask_3">
			<rect x="-250" y="-250" width="500" height="500" />
		</clipPath>
		<clipPath id="mask_4">
			<rect x="-250" y="-250" width="500" height="500" />
		</clipPath>
		<clipPath id="mask_5">
			<rect x="-250" y="-250" width="500" height="500" />
		</clipPath>
		<clipPath id="mask_6">
			<rect x="-250" y="-250" width="500" height="500" />
		</clipPath>
		<clipPath id="mask_7">
			<rect x="-250" y="-250" width="500" height="500" />
		</clipPath>
		<clipPath id="mask_8">
			<rect x="-250" y="-250" width="500" height="500" />
		</clipPath>
		<clipPath id="mask_9">
			<rect x="-250" y="-250" width="500" height="500" />
		</clipPath>
		<clipPath id="mask_10">
			<rect x="-250" y="-250" width="500" height="500" />
		</clipPath>
		<clipPath id="mask_11">
			<rect x="-250" y="-250" width="500" height="500" />
		</clipPath>
		<clipPath id="mask_12">
			<rect x="-250" y="-250" width="500" height="500" />
		</clipPath>
		<clipPath id="mask_13">
			<rect x="-250" y="-250" width="500" height="500" />
		</clipPath>
		<clipPath id="mask_14">
			<rect x="-250" y="-250" width="500" height="500" />
		</clipPath>
		<clipPath id="mask_15">
			<rect x="-250" y="-250" width="500" height="500" />
		</clipPath>
		<clipPath id="mask_16">
			<rect x="-250" y="-250" width="500" height="500" />
		</clipPath>
		<clipPath id="mask_17">
			<rect x="-250" y="-250" width="500" height="500" />
		</clipPath>
		<clipPath id="mask_18">
			<rect x="-250" y="-250" width="500" height="500" />
		</clipPath>
		<clipPath id="mask_19">
			<rect x="-250" y="-250" width="500" height="500" />
		</clipPath>
		<clipPath id="mask_20">
			<rect x="-250" y="-250" width="500" height="500" />
		</clipPath>
		<clipPath id="mask_21">
			<rect x="-250" y="-250" width="500" height="500" />
		</clipPath>
		<clipPath id="mask_22">
			<rect x="-250" y="-250" width="500" height="500" />
		</clipPath>
		<clipPath id="mask_23">
			<rect x="-250" y="-250" width="500" height="500" />
		</clipPath>
		<clipPath id="mask_24">
			<rect x="-250" y="-250" width="500" height="500" />
		</clipPath>
		<clipPath id="mask_25">
			<rect x="-250" y="-250" width="500" height="500" />
		</clipPath>
		<clipPath id="mask_26">
			<rect x="-250" y="-250" width="500" height="500" />
		</clipPath>
		<clipPath id="mask_27">
			<rect x="-250" y="-250" width="500" height="500" />
		</clipPath>
		<clipPath id="mask_28">
			<rect x="-250" y="-250" width="500" height="500" />
		</clipPath>
		<clipPath id="mask_29">
			<rect x="-250" y="-250" width="500" height="500" />
		</clipPath>
		<clipPath id="mask_30">
			<rect x="-250" y="-250" width="500" height="500" />
		</clipPath>
		<clipPath id="mask_31">
			<rect x="-229.1" y="-250" width="458.2" height="500" />
		</clipPath>
		<clipPath id="mask_32">
			<rect x="-250" y="-250" width="500" height="500" />
		</clipPath>
		<clipPath id="mask_33">
			<rect x="-250" y="-250" width="500" height="500" />
		</clipPath>
		<clipPath id="mask_34">
			<rect x="-250" y="-250" width="500" height="500" />
		</clipPath>
		<clipPath id="mask_35">
			<rect x="-250" y="-250" width="500" height="500" />
		</clipPath>
		<clipPath id="mask_36">
			<rect x="-250" y="-250" width="500" height="500" />
		</clipPath>
		<clipPath id="mask_37">
			<rect x="-250" y="-250" width="500" height="500" />
		</clipPath>
		<clipPath id="mask_38">
			<rect x="-250" y="-250" width="500" height="500" />
		</clipPath>
		<clipPath id="mask_39">
			<rect x="-250" y="-250" width="500" height="500" />
		</clipPath>
		<clipPath id="mask_40">
			<rect x="-250" y="-250" width="500" height="500" />
		</clipPath>
		<clipPath id="mask_41">
			<rect x="-250" y="-250" width="500" height="500" />
		</clipPath>
		<clipPath id="mask_42">
			<rect x="-250" y="-250" width="500" height="500" />
		</clipPath>
		<clipPath id="mask_43">
			<rect x="-250" y="-250" width="500" height="500" />
		</clipPath>
		<clipPath id="mask_44">
			<rect x="-250" y="-250" width="500" height="500" />
		</clipPath>
		<clipPath id="mask_45">
			<rect x="-250" y="-250" width="500" height="500" />
		</clipPath>
		<clipPath id="mask_46">
			<rect x="-250" y="-250" width="500" height="500" />
		</clipPath>
		<clipPath id="mask_47">
			<rect x="-250" y="-250" width="500" height="500" />
		</clipPath>
		<clipPath id="mask_48">
			<rect x="-250" y="-250" width="500" height="500" />
		</clipPath>
		<clipPath id="mask_49">
			<rect x="-250" y="-250" width="500" height="500" />
		</clipPath>
		<clipPath id="mask_50">
			<rect x="-250" y="-250" width="500" height="500" />
		</clipPath>
		<clipPath id="mask_51">
			<rect x="4500.3" y="1500" width="500" height="500" />
		</clipPath>
		<clipPath id="mask_52">
			<rect x="-250" y="-250" width="500" height="500" />
		</clipPath>
		<clipPath id="mask_53">
			<rect x="-250" y="-250" width="500" height="500" />
		</clipPath>
		<clipPath id="mask_54">
			<rect x="-250" y="-250" width="500" height="500" />
		</clipPath>
		<clipPath id="mask_55">
			<rect x="2500.3" y="1500" width="500" height="500" />
		</clipPath>
		<clipPath id="mask_56">
			<rect x="-250" y="-250" width="500" height="500" />
		</clipPath>
		<clipPath id="mask_57">
			<rect x="-250" y="-250" width="500" height="500" />
		</clipPath>
		<clipPath id="mask_58">
			<rect x="-250" y="-250" width="500" height="500" />
		</clipPath>
		<clipPath id="mask_59">
			<rect x="-250" y="-250" width="500" height="500" />
		</clipPath>
		<clipPath id="mask_60">
			<rect x="4500.3" y="2000" width="500" height="500" />
		</clipPath>
		<clipPath id="mask_61">
			<rect x="-250" y="-250" width="500" height="500" />
		</clipPath>
		<clipPath id="mask_62">
			<rect x="-250" y="-250" width="500" height="500" />
		</clipPath>
		<clipPath id="mask_63">
			<rect x="1000.3" y="1751.1" width="500" height="248.9" />
		</clipPath>
		<clipPath id="mask_64">
			<rect x="-250" y="-250" width="500" height="500" />
		</clipPath>
		<clipPath id="mask_65">
			<rect x="7500" y="34242.4" width="500" height="248.9" />
		</clipPath>
		<clipPath id="mask_66">
			<rect x="-250" y="-250" width="500" height="500" />
		</clipPath>
		<clipPath id="mask_67">
			<rect x="-250" y="-250" width="500" height="500" />
		</clipPath>
		<clipPath id="mask_68">
			<rect x="-250" y="-250" width="500" height="500" />
		</clipPath>
		<clipPath id="mask_69">
			<rect x="-250" y="-250" width="500" height="500" />
		</clipPath>
		<clipPath id="mask_70">
			<rect x="-250" y="-250" width="500" height="500" />
		</clipPath>
		<clipPath id="mask_71">
			<rect x="1000" y="500" width="500" height="297.3" />
		</clipPath>
		<clipPath id="mask_72">
			<rect x="-250" y="-148.6" width="500" height="297.3" />
		</clipPath>
		<clipPath id="mask_73">
			<rect x="-250" y="-250" width="500" height="500" />
		</clipPath>
		<clipPath id="mask_74">
			<rect x="-250" y="-250" width="500" height="500" />
		</clipPath>
		<clipPath id="mask_75">
			<rect x="-250" y="-250" width="500" height="500" />
		</clipPath>
		<clipPath id="mask_76">
			<rect x="-250" y="-250" width="500" height="500" />
		</clipPath>
		<clipPath id="mask_77">
			<rect x="-250" y="-250" width="500" height="500" />
		</clipPath>
	</defs>
	<g id="Group 8892">
		<g id="BSicon_uhvSTR.svg 1892" transform="matrix(0.0000000264589239407087, -1.0000003576278687, 1.0000003576278687, 0.0000000264589239407087, 750.314453125, 1250)" clip-path="url(#mask_1)">
			<path d="M-125,-250 L-125,250M125,250 L125,-250" style="fill:#000000;stroke:#00B500;stroke-linecap:butt;stroke-linejoin:miter;stroke-miterlimit:4;stroke-width:100;" />
			<path d="M-250,-250 L-250,250M250,250 L250,-250" style="fill:#000000;stroke:#80A080;stroke-linecap:butt;stroke-linejoin:miter;stroke-miterlimit:4;stroke-width:50;" />
		</g>
		<g id="BSicon_RP2.svg 3122" transform="matrix(0.000000004455731339447766, -1.000000238418579, 1.000000238418579, 0.000000004455731339447766, 750.314453125, 1750)" clip-path="url(#mask_2)">
			<path d="M0,-250 L0,250" style="fill:none;stroke:#999999;stroke-linecap:butt;stroke-linejoin:miter;stroke-miterlimit:4;stroke-width:110;" />
			<path d="M0,-218.8 L0,250" style="fill:none;stroke:#FFFFFF;stroke-linecap:butt;stroke-linejoin:miter;stroke-miterlimit:4;stroke-width:25;stroke-dasharray:62.5;" />
		</g>
		<g id="BSicon_RP2.svg 3132" transform="matrix(0.000000004455731339447766, -1.000000238418579, 1.000000238418579, 0.000000004455731339447766, 750.314453125, 750)" clip-path="url(#mask_3)">
			<path d="M0,-250 L0,250" style="fill:none;stroke:#999999;stroke-linecap:butt;stroke-linejoin:miter;stroke-miterlimit:4;stroke-width:110;" />
			<path d="M0,-218.8 L0,250" style="fill:none;stroke:#FFFFFF;stroke-linecap:butt;stroke-linejoin:miter;stroke-miterlimit:4;stroke-width:25;stroke-dasharray:62.5;" />
		</g>
		<g id="BSicon_RP2CONTf.svg 912" transform="matrix(-0.000000000393950205790361, 1.0000001192092896, -1.0000001192092896, -0.000000000393950205790361, 250.3134765625, 750)" clip-path="url(#mask_4)">
			<path d="M0,-250 L0,0" style="fill:#000000;stroke:#999999;stroke-linecap:butt;stroke-linejoin:miter;stroke-miterlimit:4;stroke-width:110;" />
			<path d="M0,-250 L0,0" style="fill:#000000;stroke:#FFFFFF;stroke-linecap:butt;stroke-linejoin:miter;stroke-miterlimit:4;stroke-width:25;stroke-dasharray:62.5;stroke-dashoffset:93.8;" />
			<path d="M-100,-50 L-100,0 L0,100 L100,0 L100,-50 L-100,-50 Z" style="fill:#999999;stroke:#999999;stroke-linecap:butt;stroke-linejoin:miter;stroke-miterlimit:4;stroke-width:1;" />
		</g>
		<g id="BSicon_RP2CONTf.svg 922" transform="matrix(-0.000000000393950205790361, 1.0000001192092896, -1.0000001192092896, -0.000000000393950205790361, 250.3134765625, 1750)" clip-path="url(#mask_5)">
			<path d="M0,-250 L0,0" style="fill:#000000;stroke:#999999;stroke-linecap:butt;stroke-linejoin:miter;stroke-miterlimit:4;stroke-width:110;" />
			<path d="M0,-250 L0,0" style="fill:#000000;stroke:#FFFFFF;stroke-linecap:butt;stroke-linejoin:miter;stroke-miterlimit:4;stroke-width:25;stroke-dasharray:62.5;stroke-dashoffset:93.8;" />
			<path d="M-100,-50 L-100,0 L0,100 L100,0 L100,-50 L-100,-50 Z" style="fill:#999999;stroke:#999999;stroke-linecap:butt;stroke-linejoin:miter;stroke-miterlimit:4;stroke-width:1;" />
		</g>
		<g id="BSicon_uvSTR.svg 742" transform="matrix(-0.00000012554994555102894, 1.0000005960464478, -1.0000005960464478, -0.00000012554994555102894, 3750.3154296875, 1250)" clip-path="url(#mask_6)">
			<path d="M-125,-250 L-125,250M125,250 L125,-250" style="fill:#000000;stroke:#00B500;stroke-linecap:butt;stroke-linejoin:miter;stroke-miterlimit:4;stroke-width:100;" />
		</g>
		<g id="BSicon_uvSTR.svg 752" transform="matrix(-0.00000012554994555102894, 1.0000005960464478, -1.0000005960464478, -0.00000012554994555102894, 3250.3154296875, 1250)" clip-path="url(#mask_7)">
			<path d="M-125,-250 L-125,250M125,250 L125,-250" style="fill:#000000;stroke:#00B500;stroke-linecap:butt;stroke-linejoin:miter;stroke-miterlimit:4;stroke-width:100;" />
		</g>
		<g id="BSicon_uvSTR.svg 762" transform="matrix(-0.00000012554994555102894, 1.0000005960464478, -1.0000005960464478, -0.00000012554994555102894, 2750.3154296875, 1250)" clip-path="url(#mask_8)">
			<path d="M-125,-250 L-125,250M125,250 L125,-250" style="fill:#000000;stroke:#00B500;stroke-linecap:butt;stroke-linejoin:miter;stroke-miterlimit:4;stroke-width:100;" />
		</g>
		<g id="BSicon_PLTl.svg 752" transform="matrix(-0.00000012554994555102894, 1.0000005960464478, -1.0000005960464478, -0.00000012554994555102894, 2750.3154296875, 750)" clip-path="url(#mask_9)">
			<rect x="125" y="-250" width="125" height="500" style="fill:#888888;" />
		</g>
		<g id="BSicon_PLTl.svg 762" transform="matrix(-0.00000012554994555102894, 1.0000005960464478, -1.0000005960464478, -0.00000012554994555102894, 3250.0927734375, 750.00390625)" clip-path="url(#mask_10)">
			<rect x="125" y="-250" width="125" height="500" style="fill:#888888;" />
		</g>
		<g id="BSicon_PLTl.svg 772" transform="matrix(-0.00000012554951922538748, 0.9999971985816956, -0.9999971985816956, -0.00000012554951922538748, 3750.3154296875, 750)" clip-path="url(#mask_11)">
			<rect x="125" y="-250" width="125" height="500" style="fill:#888888;" />
		</g>
		<g id="BSicon_PLTr.svg 1182" transform="matrix(-0.00000012554994555102894, 1.0000005960464478, -1.0000005960464478, -0.00000012554994555102894, 2750.3134765625, 1750)" clip-path="url(#mask_12)">
			<rect x="-250" y="-250" width="125" height="500" style="fill:#888888;" />
		</g>
		<g id="BSicon_PLTr.svg 1192" transform="matrix(-0.00000012554994555102894, 1.0000005960464478, -1.0000005960464478, -0.00000012554994555102894, 2750.3134765625, 1750)" clip-path="url(#mask_13)">
			<rect x="-250" y="-250" width="125" height="500" style="fill:#888888;" />
		</g>
		<g id="BSicon_PLTr.svg 1202" transform="matrix(-0.00000012554994555102894, 1.0000005960464478, -1.0000005960464478, -0.00000012554994555102894, 3750.3134765625, 1750)" clip-path="url(#mask_14)">
			<rect x="-250" y="-250" width="125" height="500" style="fill:#888888;" />
		</g>
		<g id="BSicon_PLTr.svg 1212" transform="matrix(-0.00000012554994555102894, 1.0000005960464478, -1.0000005960464478, -0.00000012554994555102894, 3250.0927734375, 1750)" clip-path="url(#mask_15)">
			<rect x="-250" y="-250" width="125" height="500" style="fill:#888888;" />
		</g>
		<g id="BSicon_uhvSTR.svg 1332" transform="matrix(0.0000000264589239407087, -1.0000003576278687, 1.0000003576278687, 0.0000000264589239407087, 1750.3134765625, 1250)" clip-path="url(#mask_16)">
			<path d="M-125,-250 L-125,250M125,250 L125,-250" style="fill:#000000;stroke:#00B500;stroke-linecap:butt;stroke-linejoin:miter;stroke-miterlimit:4;stroke-width:100;" />
			<path d="M-250,-250 L-250,250M250,250 L250,-250" style="fill:#000000;stroke:#80A080;stroke-linecap:butt;stroke-linejoin:miter;stroke-miterlimit:4;stroke-width:50;" />
		</g>
		<g id="BSicon_uhvSTR.svg 1872" transform="matrix(0.0000000264589239407087, -1.0000003576278687, 1.0000003576278687, 0.0000000264589239407087, 1250.3134765625, 1250)" clip-path="url(#mask_17)">
			<path d="M-125,-250 L-125,250M125,250 L125,-250" style="fill:#000000;stroke:#00B500;stroke-linecap:butt;stroke-linejoin:miter;stroke-miterlimit:4;stroke-width:100;" />
			<path d="M-250,-250 L-250,250M250,250 L250,-250" style="fill:#000000;stroke:#80A080;stroke-linecap:butt;stroke-linejoin:miter;stroke-miterlimit:4;stroke-width:50;" />
		</g>
		<g id="BSicon_uhvSTR.svg 1342" transform="matrix(0.0000000264589239407087, -1.0000003576278687, 1.0000003576278687, 0.0000000264589239407087, 2250.3134765625, 1250)" clip-path="url(#mask_18)">
			<path d="M-125,-250 L-125,250M125,250 L125,-250" style="fill:#000000;stroke:#00B500;stroke-linecap:butt;stroke-linejoin:miter;stroke-miterlimit:4;stroke-width:100;" />
			<path d="M-250,-250 L-250,250M250,250 L250,-250" style="fill:#000000;stroke:#80A080;stroke-linecap:butt;stroke-linejoin:miter;stroke-miterlimit:4;stroke-width:50;" />
		</g>
		<g id="BSicon_uhvSTR.svg 1352" transform="matrix(0.0000000264589239407087, -1.0000003576278687, 1.0000003576278687, 0.0000000264589239407087, 4250.3134765625, 1250)" clip-path="url(#mask_19)">
			<path d="M-125,-250 L-125,250M125,250 L125,-250" style="fill:#000000;stroke:#00B500;stroke-linecap:butt;stroke-linejoin:miter;stroke-miterlimit:4;stroke-width:100;" />
			<path d="M-250,-250 L-250,250M250,250 L250,-250" style="fill:#000000;stroke:#80A080;stroke-linecap:butt;stroke-linejoin:miter;stroke-miterlimit:4;stroke-width:50;" />
		</g>
		<g id="BSicon_uhvSTR.svg 1362" transform="matrix(0.0000000264589239407087, -1.0000003576278687, 1.0000003576278687, 0.0000000264589239407087, 5250.3134765625, 1250)" clip-path="url(#mask_20)">
			<path d="M-125,-250 L-125,250M125,250 L125,-250" style="fill:#000000;stroke:#00B500;stroke-linecap:butt;stroke-linejoin:miter;stroke-miterlimit:4;stroke-width:100;" />
			<path d="M-250,-250 L-250,250M250,250 L250,-250" style="fill:#000000;stroke:#80A080;stroke-linecap:butt;stroke-linejoin:miter;stroke-miterlimit:4;stroke-width:50;" />
		</g>
		<g id="BSicon_uhvSTR.svg 1372" transform="matrix(0.0000000264589239407087, -1.0000003576278687, 1.0000003576278687, 0.0000000264589239407087, 6250.3134765625, 1250)" clip-path="url(#mask_21)">
			<path d="M-125,-250 L-125,250M125,250 L125,-250" style="fill:#000000;stroke:#00B500;stroke-linecap:butt;stroke-linejoin:miter;stroke-miterlimit:4;stroke-width:100;" />
			<path d="M-250,-250 L-250,250M250,250 L250,-250" style="fill:#000000;stroke:#80A080;stroke-linecap:butt;stroke-linejoin:miter;stroke-miterlimit:4;stroke-width:50;" />
		</g>
		<g id="BSicon_uhvSTR.svg 1382" transform="matrix(0.0000000264589239407087, -1.0000003576278687, 1.0000003576278687, 0.0000000264589239407087, 6750.3125, 1250)" clip-path="url(#mask_22)">
			<path d="M-125,-250 L-125,250M125,250 L125,-250" style="fill:#000000;stroke:#00B500;stroke-linecap:butt;stroke-linejoin:miter;stroke-miterlimit:4;stroke-width:100;" />
			<path d="M-250,-250 L-250,250M250,250 L250,-250" style="fill:#000000;stroke:#80A080;stroke-linecap:butt;stroke-linejoin:miter;stroke-miterlimit:4;stroke-width:50;" />
		</g>
		<g id="BSicon_vNULfg.svg 432" transform="matrix(0.000000021912082814878886, 1.000000238418579, -1.000000238418579, 0.000000021912082814878886, 1250.3134765625, 1250)" clip-path="url(#mask_23)">
			<path d="M75,0 L125,-50 L175,0 L175,50 L125,0 L75,50M-175,-50 L-125,0 L-75,-50 L-75,0 L-125,50 L-175,0" style="fill:#FFFFFF;" />
		</g>
		<g id="BSicon_uhv%C3%9CST.svg2" transform="matrix(-0.00000004469667658213439, 1, -1, -0.00000004469667658213439, 4750.3154296875, 1250)" clip-path="url(#mask_24)">
			<path d="M-250,-250 L-250,250M250,-250 L250,250" style="fill:#000000;stroke:#80A080;stroke-linecap:butt;stroke-linejoin:miter;stroke-miterlimit:4;stroke-width:50;" />
			<path d="M-140,-250 L-140,250M140,-250 L140,250M-110,-250 C-110,0 110,0 110,250M110,-250 C110,0 -110,0 -110,250" style="fill:none;stroke:#00B500;stroke-linecap:butt;stroke-linejoin:miter;stroke-miterlimit:4;stroke-width:70;" />
		</g>
		<g id="BSicon_uhv%C3%9CSTl.svg2" transform="matrix(-0.0000000036239375944546737, -1.000001072883606, -1.000001072883606, 0.0000000036239375944546737, 7250.3125, 1250)" clip-path="url(#mask_25)">
			<path d="M-125,250 L-125,-250 C-125,0 125,0 125,250 L125,-250" style="fill:none;stroke:#00B500;stroke-linecap:butt;stroke-linejoin:miter;stroke-miterlimit:4;stroke-width:100;" />
			<path d="M-250,-250 L-250,250M250,250 L250,-250" style="fill:#000000;stroke:#80A080;stroke-linecap:butt;stroke-linejoin:miter;stroke-miterlimit:4;stroke-width:50;" />
		</g>
		<g id="BSicon_uexvKRWl.svg2" transform="matrix(-0.000000010301658193156982, -1.0000004768371582, 1.0000004768371582, -0.000000010301658193156982, 5750.3134765625, 1250)" clip-path="url(#mask_26)">
			<path d="M-125,-250 C-125,0 375,125 375,250M125,-250 C125,-125 625,0 625,250" style="fill:none;stroke:#80DA80;stroke-linecap:butt;stroke-linejoin:miter;stroke-miterlimit:4;stroke-width:100;" />
		</g>
		<g id="BSicon_uexvKRWl.svg 12" transform="matrix(0.000000010301656416800142, 1.0000004768371582, -1.0000004768371582, 0.000000010301656416800142, 5750.3134765625, 750)" clip-path="url(#mask_27)">
			<path d="M-125,-250 C-125,0 375,125 375,250M125,-250 C125,-125 625,0 625,250" style="fill:none;stroke:#80DA80;stroke-linecap:butt;stroke-linejoin:miter;stroke-miterlimit:4;stroke-width:100;" />
		</g>
		<g id="BSicon_uhvSTR - Copy.svg2" transform="matrix(-0.00000005833719640691015, 1.000000238418579, -1.000000238418579, -0.00000005833719640691015, 6250.3134765625, 750)" clip-path="url(#mask_28)">
			<path d="M-125,-250 L-125,250M125,250 L125,-250" style="fill:#000000;stroke:#80DA80;stroke-linecap:butt;stroke-linejoin:miter;stroke-miterlimit:4;stroke-width:100;" />
			<path d="M-250,-250 L-250,250M250,250 L250,-250" style="fill:#000000;stroke:#80A080;stroke-linecap:butt;stroke-linejoin:miter;stroke-miterlimit:4;stroke-width:50;" />
		</g>
		<g id="BSicon_uhvSTR - Copy.svg 12" transform="matrix(-0.00000005833719640691015, 1.000000238418579, -1.000000238418579, -0.00000005833719640691015, 6750.3125, 750)" clip-path="url(#mask_29)">
			<path d="M-125,-250 L-125,250M125,250 L125,-250" style="fill:#000000;stroke:#80DA80;stroke-linecap:butt;stroke-linejoin:miter;stroke-miterlimit:4;stroke-width:100;" />
			<path d="M-250,-250 L-250,250M250,250 L250,-250" style="fill:#000000;stroke:#80A080;stroke-linecap:butt;stroke-linejoin:miter;stroke-miterlimit:4;stroke-width:50;" />
		</g>
		<g id="BSicon_uhvSTR - Copy.svg 22" transform="matrix(-0.00000005833719640691015, 1.000000238418579, -1.000000238418579, -0.00000005833719640691015, 7250.3125, 750)" clip-path="url(#mask_30)">
			<path d="M-125,-250 L-125,250M125,250 L125,-250" style="fill:#000000;stroke:#80DA80;stroke-linecap:butt;stroke-linejoin:miter;stroke-miterlimit:4;stroke-width:100;" />
			<path d="M-250,-250 L-250,250M250,250 L250,-250" style="fill:#000000;stroke:#80A080;stroke-linecap:butt;stroke-linejoin:miter;stroke-miterlimit:4;stroke-width:50;" />
		</g>
		<g id="BSicon_uhvSTR.svg2" transform="matrix(-0.000000022348338291067193, 1, -1, -0.000000022348338291067193, 5750.3134765625, 1270.8828125)" clip-path="url(#mask_31)">
			<path d="M-145.9,-250 L-145.9,250M104.1,250 L104.1,-250" style="fill:#000000;stroke:#00B500;stroke-linecap:butt;stroke-linejoin:miter;stroke-miterlimit:4;stroke-width:100;" />
			<path d="M-270.9,-250 L-270.9,250M229.1,250 L229.1,-250" style="fill:#000000;stroke:#80A080;stroke-linecap:butt;stroke-linejoin:miter;stroke-miterlimit:4;stroke-width:50;" />
		</g>
		<g id="BSicon_lhvSTR%28l%29.svg2" transform="matrix(-1.0000008344650269, -0.000008849673577060457, 0.000008849673577060457, -1.0000008344650269, 5750.3154296875, 774.9921875)" clip-path="url(#mask_32)">
			<path d="M250,-250 L250,250" style="fill:none;stroke:#80A080;stroke-linecap:butt;stroke-linejoin:miter;stroke-miterlimit:4;stroke-width:50;" />
		</g>
		<g id="BSicon_lhvSTR%28l%29.svg3" transform="matrix(-0.00000008337001133895683, -1.000000238418579, 1.000000238418579, -0.00000008337001133895683, 5750.3134765625, 750)" clip-path="url(#mask_33)">
			<path d="M250,-250 L250,250" style="fill:none;stroke:#80A080;stroke-linecap:butt;stroke-linejoin:miter;stroke-miterlimit:4;stroke-width:50;" />
		</g>
		<g id="BSicon_RP2.svg2" transform="matrix(-0.00012832277570851147, -1, 1, -0.00012832277570851147, 2750.345703125, 1750.03125)" clip-path="url(#mask_34)">
			<path d="M0,-250 L0,250" style="fill:none;stroke:#999999;stroke-linecap:butt;stroke-linejoin:miter;stroke-miterlimit:4;stroke-width:110;" />
			<path d="M0,-218.8 L0,250" style="fill:none;stroke:#FFFFFF;stroke-linecap:butt;stroke-linejoin:miter;stroke-miterlimit:4;stroke-width:25;stroke-dasharray:62.5;" />
		</g>
		<g id="BSicon_RP2.svg 2952" transform="matrix(-0.00012832277570851147, -1, 1, -0.00012832277570851147, 3250.345703125, 1750.03125)" clip-path="url(#mask_35)">
			<path d="M0,-250 L0,250" style="fill:none;stroke:#999999;stroke-linecap:butt;stroke-linejoin:miter;stroke-miterlimit:4;stroke-width:110;" />
			<path d="M0,-218.8 L0,250" style="fill:none;stroke:#FFFFFF;stroke-linecap:butt;stroke-linejoin:miter;stroke-miterlimit:4;stroke-width:25;stroke-dasharray:62.5;" />
		</g>
		<g id="BSicon_RP2.svg 2972" transform="matrix(-0.00012832277570851147, -1, 1, -0.00012832277570851147, 4250.345703125, 1750.03125)" clip-path="url(#mask_36)">
			<path d="M0,-250 L0,250" style="fill:none;stroke:#999999;stroke-linecap:butt;stroke-linejoin:miter;stroke-miterlimit:4;stroke-width:110;" />
			<path d="M0,-218.8 L0,250" style="fill:none;stroke:#FFFFFF;stroke-linecap:butt;stroke-linejoin:miter;stroke-miterlimit:4;stroke-width:25;stroke-dasharray:62.5;" />
		</g>
		<g id="BSicon_RP2.svg 3022" transform="matrix(-0.00012832277570851147, -1, 1, -0.00012832277570851147, 4250.345703125, 750.03125)" clip-path="url(#mask_37)">
			<path d="M0,-250 L0,250" style="fill:none;stroke:#999999;stroke-linecap:butt;stroke-linejoin:miter;stroke-miterlimit:4;stroke-width:110;" />
			<path d="M0,-218.8 L0,250" style="fill:none;stroke:#FFFFFF;stroke-linecap:butt;stroke-linejoin:miter;stroke-miterlimit:4;stroke-width:25;stroke-dasharray:62.5;" />
		</g>
		<g id="BSicon_RP2.svg 3032" transform="matrix(-0.00012832277570851147, -1, 1, -0.00012832277570851147, 3750.345703125, 750.03125)" clip-path="url(#mask_38)">
			<path d="M0,-250 L0,250" style="fill:none;stroke:#999999;stroke-linecap:butt;stroke-linejoin:miter;stroke-miterlimit:4;stroke-width:110;" />
			<path d="M0,-218.8 L0,250" style="fill:none;stroke:#FFFFFF;stroke-linecap:butt;stroke-linejoin:miter;stroke-miterlimit:4;stroke-width:25;stroke-dasharray:62.5;" />
		</g>
		<g id="BSicon_RP2.svg 3042" transform="matrix(-0.00012832277570851147, -1, 1, -0.00012832277570851147, 3250.345703125, 750.03125)" clip-path="url(#mask_39)">
			<path d="M0,-250 L0,250" style="fill:none;stroke:#999999;stroke-linecap:butt;stroke-linejoin:miter;stroke-miterlimit:4;stroke-width:110;" />
			<path d="M0,-218.8 L0,250" style="fill:none;stroke:#FFFFFF;stroke-linecap:butt;stroke-linejoin:miter;stroke-miterlimit:4;stroke-width:25;stroke-dasharray:62.5;" />
		</g>
		<g id="BSicon_RP2.svg 3052" transform="matrix(-0.00012832277570851147, -1, 1, -0.00012832277570851147, 2750.345703125, 750.03125)" clip-path="url(#mask_40)">
			<path d="M0,-250 L0,250" style="fill:none;stroke:#999999;stroke-linecap:butt;stroke-linejoin:miter;stroke-miterlimit:4;stroke-width:110;" />
			<path d="M0,-218.8 L0,250" style="fill:none;stroke:#FFFFFF;stroke-linecap:butt;stroke-linejoin:miter;stroke-miterlimit:4;stroke-width:25;stroke-dasharray:62.5;" />
		</g>
		<g id="BSicon_RP2.svg 3062" transform="matrix(-0.00012832277570851147, -1, 1, -0.00012832277570851147, 2250.345703125, 750.03125)" clip-path="url(#mask_41)">
			<path d="M0,-250 L0,250" style="fill:none;stroke:#999999;stroke-linecap:butt;stroke-linejoin:miter;stroke-miterlimit:4;stroke-width:110;" />
			<path d="M0,-218.8 L0,250" style="fill:none;stroke:#FFFFFF;stroke-linecap:butt;stroke-linejoin:miter;stroke-miterlimit:4;stroke-width:25;stroke-dasharray:62.5;" />
		</g>
		<g id="BSicon_RP2.svg 3072" transform="matrix(-0.00012832277570851147, -1, 1, -0.00012832277570851147, 1750.345703125, 750.03125)" clip-path="url(#mask_42)">
			<path d="M0,-250 L0,250" style="fill:none;stroke:#999999;stroke-linecap:butt;stroke-linejoin:miter;stroke-miterlimit:4;stroke-width:110;" />
			<path d="M0,-218.8 L0,250" style="fill:none;stroke:#FFFFFF;stroke-linecap:butt;stroke-linejoin:miter;stroke-miterlimit:4;stroke-width:25;stroke-dasharray:62.5;" />
		</g>
		<g id="BSicon_RP2.svg 3082" transform="matrix(-0.00012832277570851147, -1, 1, -0.00012832277570851147, 1750.345703125, 750.03125)" clip-path="url(#mask_43)">
			<path d="M0,-250 L0,250" style="fill:none;stroke:#999999;stroke-linecap:butt;stroke-linejoin:miter;stroke-miterlimit:4;stroke-width:110;" />
			<path d="M0,-218.8 L0,250" style="fill:none;stroke:#FFFFFF;stroke-linecap:butt;stroke-linejoin:miter;stroke-miterlimit:4;stroke-width:25;stroke-dasharray:62.5;" />
		</g>
		<g id="BSicon_RP2.svg 3002" transform="matrix(-0.00012832277570851147, -1, 1, -0.00012832277570851147, 1750.345703125, 1750.03125)" clip-path="url(#mask_44)">
			<path d="M0,-250 L0,250" style="fill:none;stroke:#999999;stroke-linecap:butt;stroke-linejoin:miter;stroke-miterlimit:4;stroke-width:110;" />
			<path d="M0,-218.8 L0,250" style="fill:none;stroke:#FFFFFF;stroke-linecap:butt;stroke-linejoin:miter;stroke-miterlimit:4;stroke-width:25;stroke-dasharray:62.5;" />
		</g>
		<g id="BSicon_RP2.svg 2992" transform="matrix(-0.00012832277570851147, -1, 1, -0.00012832277570851147, 5250.345703125, 1750.03125)" clip-path="url(#mask_45)">
			<path d="M0,-250 L0,250" style="fill:none;stroke:#999999;stroke-linecap:butt;stroke-linejoin:miter;stroke-miterlimit:4;stroke-width:110;" />
			<path d="M0,-218.8 L0,250" style="fill:none;stroke:#FFFFFF;stroke-linecap:butt;stroke-linejoin:miter;stroke-miterlimit:4;stroke-width:25;stroke-dasharray:62.5;" />
		</g>
		<g id="BSicon_RP2.svg 3092" transform="matrix(-0.00012832277570851147, -1, 1, -0.00012832277570851147, 5750.0322265625, 1750.03125)" clip-path="url(#mask_46)">
			<path d="M0,-250 L0,250" style="fill:none;stroke:#999999;stroke-linecap:butt;stroke-linejoin:miter;stroke-miterlimit:4;stroke-width:110;" />
			<path d="M0,-218.8 L0,250" style="fill:none;stroke:#FFFFFF;stroke-linecap:butt;stroke-linejoin:miter;stroke-miterlimit:4;stroke-width:25;stroke-dasharray:62.5;" />
		</g>
		<g id="BSicon_RP2.svg 3112" transform="matrix(-0.00012832277570851147, -1, 1, -0.00012832277570851147, 6250.0322265625, 1750.03125)" clip-path="url(#mask_47)">
			<path d="M0,-250 L0,250" style="fill:none;stroke:#999999;stroke-linecap:butt;stroke-linejoin:miter;stroke-miterlimit:4;stroke-width:110;" />
			<path d="M0,-218.8 L0,250" style="fill:none;stroke:#FFFFFF;stroke-linecap:butt;stroke-linejoin:miter;stroke-miterlimit:4;stroke-width:25;stroke-dasharray:62.5;" />
		</g>
		<g id="BSicon_RP2.svg 3142" transform="matrix(-0.00012832277570851147, -1, 1, -0.00012832277570851147, 6750.03125, 1750.03125)" clip-path="url(#mask_48)">
			<path d="M0,-250 L0,250" style="fill:none;stroke:#999999;stroke-linecap:butt;stroke-linejoin:miter;stroke-miterlimit:4;stroke-width:110;" />
			<path d="M0,-218.8 L0,250" style="fill:none;stroke:#FFFFFF;stroke-linecap:butt;stroke-linejoin:miter;stroke-miterlimit:4;stroke-width:25;stroke-dasharray:62.5;" />
		</g>
		<g id="BSicon_RP2.svg 3152" transform="matrix(-0.00012832277570851147, -1, 1, -0.00012832277570851147, 7250.03125, 1750.03125)" clip-path="url(#mask_49)">
			<path d="M0,-250 L0,250" style="fill:none;stroke:#999999;stroke-linecap:butt;stroke-linejoin:miter;stroke-miterlimit:4;stroke-width:110;" />
			<path d="M0,-218.8 L0,250" style="fill:none;stroke:#FFFFFF;stroke-linecap:butt;stroke-linejoin:miter;stroke-miterlimit:4;stroke-width:25;stroke-dasharray:62.5;" />
		</g>
		<g id="BSicon_RP2.svg 3012" transform="matrix(-0.00012832277570851147, -1, 1, -0.00012832277570851147, 5250.345703125, 750.03125)" clip-path="url(#mask_50)">
			<path d="M0,-250 L0,250" style="fill:none;stroke:#999999;stroke-linecap:butt;stroke-linejoin:miter;stroke-miterlimit:4;stroke-width:110;" />
			<path d="M0,-218.8 L0,250" style="fill:none;stroke:#FFFFFF;stroke-linecap:butt;stroke-linejoin:miter;stroke-miterlimit:4;stroke-width:25;stroke-dasharray:62.5;" />
		</g>
		<g id="BSicon_RP2sRP2.svg 12" clip-path="url(#mask_51)">
			<g id="Group 7962">
				<path d="M4500.3,1750 L5000.3,1750" style="fill:none;stroke:#999999;stroke-linecap:butt;stroke-linejoin:miter;stroke-miterlimit:4;stroke-width:110;" />
				<path d="M4750.3,1750 L4750.3,2000" style="fill:none;stroke:#999999;stroke-linecap:butt;stroke-linejoin:miter;stroke-miterlimit:4;stroke-width:110;" />
				<path d="M4531.6,1750 L5000.3,1750" style="fill:none;stroke:#FFFFFF;stroke-linecap:butt;stroke-linejoin:miter;stroke-miterlimit:4;stroke-width:25;stroke-dasharray:62.5;" />
				<path d="M4750.3,1968.8 L4750.3,1800" style="fill:none;stroke:#FFFFFF;stroke-linecap:butt;stroke-linejoin:miter;stroke-miterlimit:4;stroke-width:25;stroke-dasharray:62.5;" />
			</g>
		</g>
		<g id="BSicon_RP2sRP2.svg 22" transform="matrix(1, 0, 0, -1, 4750.3134765625, 750)" clip-path="url(#mask_52)">
			<g id="Group 7972">
				<path d="M-250,0 L250,0" style="fill:none;stroke:#999999;stroke-linecap:butt;stroke-linejoin:miter;stroke-miterlimit:4;stroke-width:110;" />
				<path d="M0,0 L0,250" style="fill:none;stroke:#999999;stroke-linecap:butt;stroke-linejoin:miter;stroke-miterlimit:4;stroke-width:110;" />
				<path d="M-218.8,0 L250,0" style="fill:none;stroke:#FFFFFF;stroke-linecap:butt;stroke-linejoin:miter;stroke-miterlimit:4;stroke-width:25;stroke-dasharray:62.5;" />
				<path d="M0,218.8 L0,50" style="fill:none;stroke:#FFFFFF;stroke-linecap:butt;stroke-linejoin:miter;stroke-miterlimit:4;stroke-width:25;stroke-dasharray:62.5;" />
			</g>
		</g>
		<g id="BSicon_RP2s%2B1RP1.svg2" transform="matrix(0.0000000047049559803724605, 0.9999997615814209, -0.9999997615814209, 0.0000000047049559803724605, 2250.3134765625, 1749.40625)" clip-path="url(#mask_53)">
			<g id="Group 7922">
				<path d="M250,-250 L194.3,-194.3 C76.7,-76.9 12.8,83.9 17.5,250" style="fill:none;stroke:#999999;stroke-linecap:butt;stroke-linejoin:miter;stroke-miterlimit:4;stroke-width:75;" />
				<path d="M0,-250 L0,250" style="fill:#000000;stroke:#999999;stroke-linecap:butt;stroke-linejoin:miter;stroke-miterlimit:4;stroke-width:110;" />
			</g>
			<path d="M0,-218.8 L0,250" style="fill:#000000;stroke:#FFFFFF;stroke-linecap:butt;stroke-linejoin:miter;stroke-miterlimit:4;stroke-width:25;stroke-dasharray:62.5;" />
		</g>
		<g id="BSicon_RP12%2Bw.svg2" transform="matrix(-1, 0, 0, -1, 2750.3134765625, 2250)" clip-path="url(#mask_54)">
			<path d="M-250,0 Q0,0 177,177 L250,250" style="fill:none;stroke:#999999;stroke-linecap:butt;stroke-linejoin:miter;stroke-miterlimit:4;stroke-width:75;" />
		</g>
		<g id="BSicon_RP1c3.svg2" clip-path="url(#mask_55)">
			<path d="M2525.3,2025 L2475.3,1975" style="fill:none;stroke:#999999;stroke-linecap:butt;stroke-linejoin:miter;stroke-miterlimit:4;stroke-width:75;" />
		</g>
		<g id="BSicon_RP1c3.svg 42" transform="matrix(-0.9999998807907104, -0.000000004418087673485616, 0.000000004418087673485616, -0.9999998807907104, 2250.3134765625, 2250)" clip-path="url(#mask_56)">
			<path d="M-225,275 L-275,225" style="fill:none;stroke:#999999;stroke-linecap:butt;stroke-linejoin:miter;stroke-miterlimit:4;stroke-width:75;" />
		</g>
		<g id="BSicon_RP1.svg2" transform="matrix(-0.0000000006691975862338495, -1.0000001192092896, 1.0000001192092896, -0.0000000006691975862338495, 3250.3134765625, 2250)" clip-path="url(#mask_57)">
			<path d="M0,-250 L0,250" style="fill:none;stroke:#999999;stroke-linecap:butt;stroke-linejoin:miter;stroke-miterlimit:4;stroke-width:75;" />
		</g>
		<g id="BSicon_RP2nRP1.svg2" transform="matrix(1, 0, 0, -1, 3750.3134765625, 1750)" clip-path="url(#mask_58)">
			<g id="Group 7932" transform="matrix(0, -1, 1, 0, -250, 250)">
				<g id="Group 7942">
					<path d="M250,250 L500,250" style="fill:#000000;stroke:#999999;stroke-linecap:butt;stroke-linejoin:miter;stroke-miterlimit:4;stroke-width:75;" />
					<path d="M250,0 L250,500" style="fill:#000000;stroke:#999999;stroke-linecap:butt;stroke-linejoin:miter;stroke-miterlimit:4;stroke-width:110;" />
				</g>
				<path d="M250,31.3 L250,500" style="fill:#000000;stroke:#FFFFFF;stroke-linecap:butt;stroke-linejoin:miter;stroke-miterlimit:4;stroke-width:25;stroke-dasharray:62.5;" />
			</g>
		</g>
		<g id="BSicon_RP1%2Br.svg2" transform="matrix(-0.0000000008418332697601727, 1.0000001192092896, -1.0000001192092896, -0.0000000008418332697601727, 3750.3134765625, 2250)" clip-path="url(#mask_59)">
			<ellipse cx="-250" cy="250" rx="250" ry="250" style="fill:none;stroke:#999999;stroke-linecap:butt;stroke-linejoin:miter;stroke-miterlimit:4;stroke-width:75;" />
		</g>
		<g id="BSicon_RP2CONTf.svg2" clip-path="url(#mask_60)">
			<path d="M4750.3,2000 L4750.3,2250" style="fill:#000000;stroke:#999999;stroke-linecap:butt;stroke-linejoin:miter;stroke-miterlimit:4;stroke-width:110;" />
			<path d="M4750.3,2000 L4750.3,2250" style="fill:#000000;stroke:#FFFFFF;stroke-linecap:butt;stroke-linejoin:miter;stroke-miterlimit:4;stroke-width:25;stroke-dasharray:62.5;stroke-dashoffset:93.8;" />
			<path d="M4650.3,2200 L4650.3,2250 L4750.3,2350 L4850.3,2250 L4850.3,2200 L4650.3,2200 Z" style="fill:#999999;stroke:#999999;stroke-linecap:butt;stroke-linejoin:miter;stroke-miterlimit:4;stroke-width:1;" />
		</g>
		<g id="BSicon_RP2CONTf.svg 932" transform="matrix(-0.0000000023687967143359856, -0.9999998211860657, 0.9999998211860657, -0.0000000023687967143359856, 7750, 1750)" clip-path="url(#mask_61)">
			<path d="M0,-250 L0,0" style="fill:#000000;stroke:#999999;stroke-linecap:butt;stroke-linejoin:miter;stroke-miterlimit:4;stroke-width:110;" />
			<path d="M0,-250 L0,0" style="fill:#000000;stroke:#FFFFFF;stroke-linecap:butt;stroke-linejoin:miter;stroke-miterlimit:4;stroke-width:25;stroke-dasharray:62.5;stroke-dashoffset:93.8;" />
			<path d="M-100,-50 L-100,0 L0,100 L100,0 L100,-50 L-100,-50 Z" style="fill:#999999;stroke:#999999;stroke-linecap:butt;stroke-linejoin:miter;stroke-miterlimit:4;stroke-width:1;" />
		</g>
		<g id="BSicon_RP2CONTf.svg 902" transform="matrix(1, 0, 0, -1, 4750.3134765625, 250)" clip-path="url(#mask_62)">
			<path d="M0,-250 L0,0" style="fill:#000000;stroke:#999999;stroke-linecap:butt;stroke-linejoin:miter;stroke-miterlimit:4;stroke-width:110;" />
			<path d="M0,-250 L0,0" style="fill:#000000;stroke:#FFFFFF;stroke-linecap:butt;stroke-linejoin:miter;stroke-miterlimit:4;stroke-width:25;stroke-dasharray:62.5;stroke-dashoffset:93.8;" />
			<path d="M-100,-50 L-100,0 L0,100 L100,0 L100,-50 L-100,-50 Z" style="fill:#999999;stroke:#999999;stroke-linecap:butt;stroke-linejoin:miter;stroke-miterlimit:4;stroke-width:1;" />
		</g>
		<g id="Group 8092">
			<g id="BSicon_RP4.svg2" clip-path="url(#mask_63)">
				<g id="Group 7992">
					<path d="M1250.3,1500 L1250.3,2000" style="fill:none;stroke:#999999;stroke-linecap:butt;stroke-linejoin:miter;stroke-miterlimit:4;stroke-width:220;" />
					<g id="Group 7982">
						<path d="M1250.3,1500 L1250.3,2000" style="fill:none;stroke:#FFFFFF;stroke-linecap:butt;stroke-linejoin:miter;stroke-miterlimit:4;stroke-width:25;" />
						<path d="M1190.3,1531.3 L1190.3,2000M1310.3,1531.3 L1310.3,2000" style="fill:none;stroke:#FFFFFF;stroke-linecap:butt;stroke-linejoin:miter;stroke-miterlimit:4;stroke-width:25;stroke-dasharray:62.5;" />
					</g>
				</g>
			</g>
			<g id="BSicon_RP2.svg3" transform="matrix(0.0000000040511585197577915, -1, 1, 0.0000000040511585197577915, 1250.31201171875, 1750)" clip-path="url(#mask_64)">
				<path d="M0,-250 L0,250" style="fill:none;stroke:#999999;stroke-linecap:butt;stroke-linejoin:miter;stroke-miterlimit:4;stroke-width:110;" />
				<path d="M0,-218.8 L0,250" style="fill:none;stroke:#FFFFFF;stroke-linecap:butt;stroke-linejoin:miter;stroke-miterlimit:4;stroke-width:25;stroke-dasharray:62.5;" />
			</g>
		</g>
		<g id="Group 8082" transform="matrix(-1.0000001192092896, -0.0000000010980341080824019, 0.0000000010980341080824019, -1.0000001192092896, 9000.00390625, 34991.359375)">
			<g id="BSicon_RP4.svg 552" clip-path="url(#mask_65)">
				<g id="Group 8072">
					<path d="M7750,33991.4 L7750,34491.4" style="fill:none;stroke:#999999;stroke-linecap:butt;stroke-linejoin:miter;stroke-miterlimit:4;stroke-width:220;" />
					<g id="Group 8062">
						<path d="M7750,33991.4 L7750,34491.4" style="fill:none;stroke:#FFFFFF;stroke-linecap:butt;stroke-linejoin:miter;stroke-miterlimit:4;stroke-width:25;" />
						<path d="M7690,34022.6 L7690,34491.4M7810,34022.6 L7810,34491.4" style="fill:none;stroke:#FFFFFF;stroke-linecap:butt;stroke-linejoin:miter;stroke-miterlimit:4;stroke-width:25;stroke-dasharray:62.5;" />
					</g>
				</g>
			</g>
			<g id="BSicon_RP2.svg 3102" transform="matrix(0.0000000040511585197577915, -1, 1, 0.0000000040511585197577915, 7750, 34241.3515625)" clip-path="url(#mask_66)">
				<path d="M0,-250 L0,250" style="fill:none;stroke:#999999;stroke-linecap:butt;stroke-linejoin:miter;stroke-miterlimit:4;stroke-width:110;" />
				<path d="M0,-218.8 L0,250" style="fill:none;stroke:#FFFFFF;stroke-linecap:butt;stroke-linejoin:miter;stroke-miterlimit:4;stroke-width:25;stroke-dasharray:62.5;" />
			</g>
		</g>
		<g id="BSicon_RP4CONTfq.svg2" transform="matrix(-0.0000000006583573686214095, -1.0000001192092896, 1.0000001192092896, -0.0000000006583573686214095, 1250.3125, 250)" clip-path="url(#mask_67)">
			<g id="Group 8022" transform="matrix(-1, 0, 0, -1, 250, 250)">
				<path d="M250,250 L500,250" style="fill:#000000;stroke:#999999;stroke-linecap:butt;stroke-linejoin:miter;stroke-miterlimit:4;stroke-width:110;" />
				<path d="M250,250 L500,250" style="fill:#000000;stroke:#FFFFFF;stroke-linecap:butt;stroke-linejoin:miter;stroke-miterlimit:4;stroke-width:25;stroke-dasharray:62.5;stroke-dashoffset:93.8;" />
			</g>
			<g id="Group 8012" transform="matrix(0, -1, 1, 0, -500, 250)">
				<path d="M250,250 L250,500" style="fill:none;stroke:#999999;stroke-linecap:butt;stroke-linejoin:miter;stroke-miterlimit:4;stroke-width:220;" />
				<g id="Group 8002">
					<path d="M250,250 L250,500" style="fill:none;stroke:#FFFFFF;stroke-linecap:butt;stroke-linejoin:miter;stroke-miterlimit:4;stroke-width:25;" />
					<path d="M190,257.8 L190,492.2M310,257.8 L310,492.2" style="fill:none;stroke:#FFFFFF;stroke-linecap:butt;stroke-linejoin:miter;stroke-miterlimit:4;stroke-width:25;stroke-dasharray:62.5;stroke-dashoffset:101.3;" />
				</g>
			</g>
			<path d="M-48.6,146.3 L24.6,146.3 L170.9,-0 L24.6,-146.3 L-48.6,-146.3 L-48.6,146.3 Z" style="fill:#999999;stroke:#999999;stroke-linecap:butt;stroke-linejoin:miter;stroke-miterlimit:4;stroke-width:1;" />
		</g>
		<g id="BSicon_RP4CONTfq.svg 232" transform="matrix(-0.000000004124550923023662, 1, -1, -0.000000004124550923023662, 1250.3095703125, 2250)" clip-path="url(#mask_68)">
			<g id="Group 8032" transform="matrix(-1, 0, 0, -1, 250, 250)">
				<path d="M250,250 L500,250" style="fill:#000000;stroke:#999999;stroke-linecap:butt;stroke-linejoin:miter;stroke-miterlimit:4;stroke-width:110;" />
				<path d="M250,250 L500,250" style="fill:#000000;stroke:#FFFFFF;stroke-linecap:butt;stroke-linejoin:miter;stroke-miterlimit:4;stroke-width:25;stroke-dasharray:62.5;stroke-dashoffset:93.8;" />
			</g>
			<g id="Group 8052" transform="matrix(0, -1, 1, 0, -500, 250)">
				<path d="M250,250 L250,500" style="fill:none;stroke:#999999;stroke-linecap:butt;stroke-linejoin:miter;stroke-miterlimit:4;stroke-width:220;" />
				<g id="Group 8042">
					<path d="M250,250 L250,500" style="fill:none;stroke:#FFFFFF;stroke-linecap:butt;stroke-linejoin:miter;stroke-miterlimit:4;stroke-width:25;" />
					<path d="M190,257.8 L190,492.2M310,257.8 L310,492.2" style="fill:none;stroke:#FFFFFF;stroke-linecap:butt;stroke-linejoin:miter;stroke-miterlimit:4;stroke-width:25;stroke-dasharray:62.5;stroke-dashoffset:101.3;" />
				</g>
			</g>
			<path d="M-48.6,146.3 L24.6,146.3 L170.9,-0 L24.6,-146.3 L-48.6,-146.3 L-48.6,146.3 Z" style="fill:#999999;stroke:#999999;stroke-linecap:butt;stroke-linejoin:miter;stroke-miterlimit:4;stroke-width:1;" />
		</g>
		<g id="BSicon_uexvCONTgq - Copy.svg2" transform="matrix(-1, 0, 0, 1, 7750, 750)" clip-path="url(#mask_69)">
			<g id="Group 8182">
				<path d="M250,-125 L50,-125" style="fill:none;stroke:#80DA80;stroke-linecap:butt;stroke-linejoin:miter;stroke-miterlimit:4;stroke-width:100;" />
				<path d="M250,125 L50,125" style="fill:none;stroke:#80DA80;stroke-linecap:butt;stroke-linejoin:miter;stroke-miterlimit:4;stroke-width:100;" />
			</g>
			<g id="Group 8192">
				<path d="M50,-22.5 L0,-22.5 L-102.5,-125 L0,-227.5 L50,-227.5" style="fill:#80DA80;" />
				<path d="M50,227.5 L0,227.5 L-102.5,125 L0,22.5 L50,22.5" style="fill:#80DA80;" />
			</g>
		</g>
		<g id="BSicon_uexvCONTgq.svg2" transform="matrix(-1, 0, 0, 1, 7750, 1250)" clip-path="url(#mask_70)">
			<g id="Group 8202">
				<path d="M250,-125 L50,-125" style="fill:none;stroke:#00B500;stroke-linecap:butt;stroke-linejoin:miter;stroke-miterlimit:4;stroke-width:100;" />
				<path d="M250,125 L50,125" style="fill:none;stroke:#00B500;stroke-linecap:butt;stroke-linejoin:miter;stroke-miterlimit:4;stroke-width:100;" />
			</g>
			<g id="Group 8212">
				<path d="M50,-22.5 L0,-22.5 L-102.5,-125 L0,-227.5 L50,-227.5" style="fill:#00B500;" />
				<path d="M50,227.5 L0,227.5 L-102.5,125 L0,22.5 L50,22.5" style="fill:#00B500;" />
			</g>
		</g>
		<g id="BSicon_RP4xRP2.svg2" clip-path="url(#mask_71)">
			<g id="Group 8302">
				<path d="M1250,500 L1250,1000" style="fill:none;stroke:#999999;stroke-linecap:butt;stroke-linejoin:miter;stroke-miterlimit:4;stroke-width:220;" />
				<path d="M1310,531.3 L1310,1000" style="fill:none;stroke:#FFFFFF;stroke-linecap:butt;stroke-linejoin:miter;stroke-miterlimit:4;stroke-width:25;stroke-dasharray:62.5;" />
				<path d="M1190,531.3 L1190,1000" style="fill:none;stroke:#FFFFFF;stroke-linecap:butt;stroke-linejoin:miter;stroke-miterlimit:4;stroke-width:25;stroke-dasharray:62.5;" />
				<path d="M1250,500 L1250,1000" style="fill:none;stroke:#FFFFFF;stroke-linecap:butt;stroke-linejoin:miter;stroke-miterlimit:4;stroke-width:25;" />
				<path d="M1000,750 L1500,750" style="fill:none;stroke:#999999;stroke-linecap:butt;stroke-linejoin:miter;stroke-miterlimit:4;stroke-width:110;" />
				<path d="M1031.3,750 L1140,750" style="fill:none;stroke:#FFFFFF;stroke-linecap:butt;stroke-linejoin:miter;stroke-miterlimit:4;stroke-width:25;stroke-dasharray:62.5;" />
				<path d="M1468.8,750 L1360,750" style="fill:none;stroke:#FFFFFF;stroke-linecap:butt;stroke-linejoin:miter;stroke-miterlimit:4;stroke-width:25;stroke-dasharray:62.5;" />
				<rect x="1237.5" y="737.5" width="25" height="25" style="fill:#FFFFFF;" />
			</g>
		</g>
		<g id="BSicon_RP4xRP2.svg 72" transform="matrix(1, 0, 0, -1, 1250, 1851.375)" clip-path="url(#mask_72)">
			<g id="Group 8462">
				<path d="M0,-148.6 L0,351.4" style="fill:none;stroke:#999999;stroke-linecap:butt;stroke-linejoin:miter;stroke-miterlimit:4;stroke-width:220;" />
				<path d="M60,-117.4 L60,351.4" style="fill:none;stroke:#FFFFFF;stroke-linecap:butt;stroke-linejoin:miter;stroke-miterlimit:4;stroke-width:25;stroke-dasharray:62.5;" />
				<path d="M-60,-117.4 L-60,351.4" style="fill:none;stroke:#FFFFFF;stroke-linecap:butt;stroke-linejoin:miter;stroke-miterlimit:4;stroke-width:25;stroke-dasharray:62.5;" />
				<path d="M0,-148.6 L0,351.4" style="fill:none;stroke:#FFFFFF;stroke-linecap:butt;stroke-linejoin:miter;stroke-miterlimit:4;stroke-width:25;" />
				<path d="M-250,101.4 L250,101.4" style="fill:none;stroke:#999999;stroke-linecap:butt;stroke-linejoin:miter;stroke-miterlimit:4;stroke-width:110;" />
				<path d="M-218.8,101.4 L-110,101.4" style="fill:none;stroke:#FFFFFF;stroke-linecap:butt;stroke-linejoin:miter;stroke-miterlimit:4;stroke-width:25;stroke-dasharray:62.5;" />
				<path d="M218.8,101.4 L110,101.4" style="fill:none;stroke:#FFFFFF;stroke-linecap:butt;stroke-linejoin:miter;stroke-miterlimit:4;stroke-width:25;stroke-dasharray:62.5;" />
				<rect x="-12.5" y="88.9" width="25" height="25" style="fill:#FFFFFF;" />
			</g>
		</g>
		<g id="BSicon_lhvCONTg++.svg 392" transform="matrix(0.00000000033581071257060557, -1.000000238418579, 1.000000238418579, 0.00000000033581071257060557, 250, 1250)" clip-path="url(#mask_73)">
			<g id="Right_Track_and_Arrow 412">
				<path d="M125,250 L125,50" style="fill:none;stroke:#00B500;stroke-linecap:butt;stroke-linejoin:miter;stroke-miterlimit:4;stroke-width:100;" />
				<path d="M227.5,50 L227.5,0 L125,-102.5 L22.5,0 L22.5,50" style="fill:#00B500;" />
			</g>
			<g id="Left_Track_and_Ribbon_Tail 412">
				<path d="M-75,250 L-75,-100 L-125,-50 L-175,-100 L-175,250" style="fill:#00B500;" />
			</g>
			<g id="Left_Elevated_Tails 412">
				<path d="M-250,250 L-250,50" style="fill:none;stroke:#80A080;stroke-linecap:round;stroke-linejoin:miter;stroke-miterlimit:4;stroke-width:50;stroke-dasharray:0 75;" />
			</g>
			<g id="Right_Elevated_Tails 412">
				<path d="M250,250 L250,50" style="fill:none;stroke:#80A080;stroke-linecap:round;stroke-linejoin:miter;stroke-miterlimit:4;stroke-width:50;stroke-dasharray:0 75;" />
			</g>
		</g>
		<g id="BSicon_lhvCONTg%28r%29.svg2" transform="matrix(-0.000000006311042355378049, 0.9999997615814209, -0.9999997615814209, -0.000000006311042355378049, 7750, 750)" clip-path="url(#mask_74)">
			<path d="M-250,250 L-250,50" style="fill:#000000;stroke:#80A080;stroke-linecap:round;stroke-linejoin:miter;stroke-miterlimit:4;stroke-width:50;stroke-dasharray:0 75;" />
		</g>
		<g id="BSicon_lhvCONTg%28r%29.svg 72" transform="matrix(-0.000000006311042355378049, 0.9999997615814209, -0.9999997615814209, -0.000000006311042355378049, 7750, 1250)" clip-path="url(#mask_75)">
			<path d="M-250,250 L-250,50" style="fill:#000000;stroke:#80A080;stroke-linecap:round;stroke-linejoin:miter;stroke-miterlimit:4;stroke-width:50;stroke-dasharray:0 75;" />
		</g>
		<g id="BSicon_lhvCONTg%28r%29.svg 82" transform="matrix(-0.000000006311041911288839, -0.9999997615814209, -0.9999997615814209, 0.000000006311041911288839, 7750, 1250)" clip-path="url(#mask_76)">
			<path d="M-250,250 L-250,50" style="fill:#000000;stroke:#80A080;stroke-linecap:round;stroke-linejoin:miter;stroke-miterlimit:4;stroke-width:50;stroke-dasharray:0 75;" />
		</g>
		<g id="BSicon_lhvCONTg%28r%29.svg 92" transform="matrix(-0.000000006311041911288839, -0.9999997615814209, -0.9999997615814209, 0.000000006311041911288839, 7750, 750)" clip-path="url(#mask_77)">
			<path d="M-250,250 L-250,50" style="fill:#000000;stroke:#80A080;stroke-linecap:round;stroke-linejoin:miter;stroke-miterlimit:4;stroke-width:50;stroke-dasharray:0 75;" />
		</g>
	</g>
</svg>