<?xml version="1.0" encoding="UTF-8"?>
<!-- Created with Grafika (https://www.grafika.cc/) -->
<svg xmlns="http://www.w3.org/2000/svg" xmlns:svg="http://www.w3.org/2000/svg" xmlns:xlink="http://www.w3.org/1999/xlink" width="5000" height="2500" viewBox="0 0 5000 2500" preserveAspectRatio="xMidYMid meet">
	<defs>
		<clipPath id="mask_1">
			<rect x="-250" y="-250" width="500" height="500" />
		</clipPath>
		<clipPath id="mask_2">
			<rect x="-250" y="-250" width="500" height="500" />
		</clipPath>
		<clipPath id="mask_3">
			<rect x="-250" y="-250" width="500" height="500" />
		</clipPath>
		<clipPath id="mask_4">
			<rect x="-250" y="-57.2" width="500" height="114.3" />
		</clipPath>
		<clipPath id="mask_5">
			<rect x="-250" y="-57.2" width="500" height="114.3" />
		</clipPath>
		<clipPath id="mask_6">
			<rect x="-250" y="-250" width="500" height="500" />
		</clipPath>
		<clipPath id="mask_7">
			<rect x="-250" y="-250" width="500" height="500" />
		</clipPath>
		<clipPath id="mask_8">
			<rect x="-250" y="-250" width="500" height="500" />
		</clipPath>
		<clipPath id="mask_9">
			<rect x="-250" y="-250" width="500" height="500" />
		</clipPath>
		<clipPath id="mask_10">
			<rect x="-250" y="-250" width="500" height="500" />
		</clipPath>
		<clipPath id="mask_11">
			<rect x="-250" y="-250" width="500" height="500" />
		</clipPath>
		<clipPath id="mask_12">
			<rect x="-250" y="-250" width="500" height="500" />
		</clipPath>
		<clipPath id="mask_13">
			<rect x="-250" y="-250" width="500" height="500" />
		</clipPath>
		<clipPath id="mask_14">
			<rect x="-250" y="-250" width="500" height="500" />
		</clipPath>
		<clipPath id="mask_15">
			<rect x="-250" y="-250" width="500" height="500" />
		</clipPath>
		<clipPath id="mask_16">
			<rect x="-250" y="-250" width="500" height="500" />
		</clipPath>
		<clipPath id="mask_17">
			<rect x="-250" y="-250" width="500" height="500" />
		</clipPath>
		<clipPath id="mask_18">
			<rect x="-250" y="-250" width="500" height="500" />
		</clipPath>
		<clipPath id="mask_19">
			<rect x="-250" y="-250" width="500" height="500" />
		</clipPath>
		<clipPath id="mask_20">
			<rect x="-250" y="-250" width="500" height="500" />
		</clipPath>
		<clipPath id="mask_21">
			<rect x="-250" y="-250" width="500" height="500" />
		</clipPath>
		<clipPath id="mask_22">
			<rect x="-250" y="-250" width="500" height="500" />
		</clipPath>
		<clipPath id="mask_23">
			<rect x="-250" y="-250" width="500" height="500" />
		</clipPath>
		<clipPath id="mask_24">
			<rect x="-250" y="-250" width="500" height="500" />
		</clipPath>
		<clipPath id="mask_25">
			<rect x="-250" y="-250" width="500" height="500" />
		</clipPath>
		<clipPath id="mask_26">
			<rect x="-250" y="-56.7" width="500" height="113.3" />
		</clipPath>
		<clipPath id="mask_27">
			<rect x="-250" y="-56.7" width="500" height="113.3" />
		</clipPath>
		<clipPath id="mask_28">
			<rect x="-250" y="-250" width="500" height="500" />
		</clipPath>
		<clipPath id="mask_29">
			<rect x="1000" y="1000" width="500" height="500" />
		</clipPath>
		<clipPath id="mask_30">
			<rect x="1000" y="500" width="500" height="500" />
		</clipPath>
		<clipPath id="mask_31">
			<rect x="1000" y="1500" width="500" height="500" />
		</clipPath>
		<clipPath id="mask_32">
			<rect x="-250" y="-250" width="500" height="500" />
		</clipPath>
		<clipPath id="mask_33">
			<rect x="-250" y="-250" width="500" height="500" />
		</clipPath>
		<clipPath id="mask_34">
			<rect x="-250" y="-250" width="500" height="500" />
		</clipPath>
		<clipPath id="mask_35">
			<rect x="-250" y="-250" width="500" height="500" />
		</clipPath>
		<clipPath id="mask_36">
			<rect x="-250" y="-250" width="500" height="500" />
		</clipPath>
		<clipPath id="mask_37">
			<rect x="4500" y="1500" width="500" height="500" />
		</clipPath>
		<clipPath id="mask_38">
			<rect x="-250" y="-250" width="500" height="500" />
		</clipPath>
		<clipPath id="mask_39">
			<rect x="-250" y="-250" width="500" height="500" />
		</clipPath>
	</defs>
	<g id="Group 8662">
		<g id="BSicon_uhvSTR.svg 362" transform="matrix(0, 1, -1, 0, 3750.000244140625, 1250)" clip-path="url(#mask_1)">
			<path d="M-125,-250 L-125,250M125,250 L125,-250" style="fill:#000000;stroke:#00B500;stroke-linecap:butt;stroke-linejoin:miter;stroke-miterlimit:4;stroke-width:100;" />
			<path d="M-250,-250 L-250,250M250,250 L250,-250" style="fill:#000000;stroke:#80A080;stroke-linecap:butt;stroke-linejoin:miter;stroke-miterlimit:4;stroke-width:50;" />
		</g>
		<g id="BSicon_uhvSTR.svg 1512" transform="matrix(0, 1, -1, 0, 4250.0009765625, 1250)" clip-path="url(#mask_2)">
			<path d="M-125,-250 L-125,250M125,250 L125,-250" style="fill:#000000;stroke:#00B500;stroke-linecap:butt;stroke-linejoin:miter;stroke-miterlimit:4;stroke-width:100;" />
			<path d="M-250,-250 L-250,250M250,250 L250,-250" style="fill:#000000;stroke:#80A080;stroke-linecap:butt;stroke-linejoin:miter;stroke-miterlimit:4;stroke-width:50;" />
		</g>
		<g id="BSicon_uhvSTR.svg 312" transform="matrix(0, 1, -1, 0, 750.000244140625, 1250)" clip-path="url(#mask_3)">
			<path d="M-125,-250 L-125,250M125,250 L125,-250" style="fill:#000000;stroke:#00B500;stroke-linecap:butt;stroke-linejoin:miter;stroke-miterlimit:4;stroke-width:100;" />
			<path d="M-250,-250 L-250,250M250,250 L250,-250" style="fill:#000000;stroke:#80A080;stroke-linecap:butt;stroke-linejoin:miter;stroke-miterlimit:4;stroke-width:50;" />
		</g>
		<g id="BSicon_uhvSTR.svg 322" transform="matrix(0, 1, -1, 0, 1057.155517578125, 1250)" clip-path="url(#mask_4)">
			<path d="M-125,-442.8 L-125,57.2M125,57.2 L125,-442.8" style="fill:#000000;stroke:#00B500;stroke-linecap:butt;stroke-linejoin:miter;stroke-miterlimit:4;stroke-width:100;" />
			<path d="M-250,-442.8 L-250,57.2M250,57.2 L250,-442.8" style="fill:#000000;stroke:#80A080;stroke-linecap:butt;stroke-linejoin:miter;stroke-miterlimit:4;stroke-width:50;" />
		</g>
		<g id="BSicon_uhvSTR.svg 1942" transform="matrix(0, 1, -1, 0, 1442.84423828125, 1250)" clip-path="url(#mask_5)">
			<path d="M-125,-442.8 L-125,57.2M125,57.2 L125,-442.8" style="fill:#000000;stroke:#00B500;stroke-linecap:butt;stroke-linejoin:miter;stroke-miterlimit:4;stroke-width:100;" />
			<path d="M-250,-442.8 L-250,57.2M250,57.2 L250,-442.8" style="fill:#000000;stroke:#80A080;stroke-linecap:butt;stroke-linejoin:miter;stroke-miterlimit:4;stroke-width:50;" />
		</g>
		<g id="BSicon_uhvSTR.svg 332" transform="matrix(0, 1, -1, 0, 1750.000244140625, 1250)" clip-path="url(#mask_6)">
			<path d="M-125,-250 L-125,250M125,250 L125,-250" style="fill:#000000;stroke:#00B500;stroke-linecap:butt;stroke-linejoin:miter;stroke-miterlimit:4;stroke-width:100;" />
			<path d="M-250,-250 L-250,250M250,250 L250,-250" style="fill:#000000;stroke:#80A080;stroke-linecap:butt;stroke-linejoin:miter;stroke-miterlimit:4;stroke-width:50;" />
		</g>
		<g id="BSicon_uvSTR.svg 182" transform="matrix(0, 1, -1, 0, 3250.000244140625, 1250)" clip-path="url(#mask_7)">
			<path d="M-125,-250 L-125,250M125,250 L125,-250" style="fill:#000000;stroke:#00B500;stroke-linecap:butt;stroke-linejoin:miter;stroke-miterlimit:4;stroke-width:100;" />
		</g>
		<g id="BSicon_uvSTR.svg 192" transform="matrix(0, 1, -1, 0, 2750.000244140625, 1250)" clip-path="url(#mask_8)">
			<path d="M-125,-250 L-125,250M125,250 L125,-250" style="fill:#000000;stroke:#00B500;stroke-linecap:butt;stroke-linejoin:miter;stroke-miterlimit:4;stroke-width:100;" />
		</g>
		<g id="BSicon_uvSTR.svg 202" transform="matrix(0, 1, -1, 0, 2250.000244140625, 1250)" clip-path="url(#mask_9)">
			<path d="M-125,-250 L-125,250M125,250 L125,-250" style="fill:#000000;stroke:#00B500;stroke-linecap:butt;stroke-linejoin:miter;stroke-miterlimit:4;stroke-width:100;" />
		</g>
		<g id="BSicon_PLTl.svg 182" transform="matrix(0, 1, -1, 0, 2250.000244140625, 750)" clip-path="url(#mask_10)">
			<rect x="125" y="-250" width="125" height="500" style="fill:#888888;" />
		</g>
		<g id="BSicon_PLTl.svg 192" transform="matrix(0, 1, -1, 0, 2750.000244140625, 750)" clip-path="url(#mask_11)">
			<rect x="125" y="-250" width="125" height="500" style="fill:#888888;" />
		</g>
		<g id="BSicon_PLTl.svg 172" transform="matrix(0, 1, -1, 0, 3250.000244140625, 750)" clip-path="url(#mask_12)">
			<rect x="125" y="-250" width="125" height="500" style="fill:#888888;" />
		</g>
		<g id="BSicon_PLTr.svg 252" transform="matrix(0, 1, -1, 0, 2250.000244140625, 1750)" clip-path="url(#mask_13)">
			<rect x="-250" y="-250" width="125" height="500" style="fill:#888888;" />
		</g>
		<g id="BSicon_PLTr.svg 242" transform="matrix(0, 1, -1, 0, 2250.000244140625, 1750)" clip-path="url(#mask_14)">
			<rect x="-250" y="-250" width="125" height="500" style="fill:#888888;" />
		</g>
		<g id="BSicon_PLTr.svg 262" transform="matrix(0, 1, -1, 0, 2750.000244140625, 1750)" clip-path="url(#mask_15)">
			<rect x="-250" y="-250" width="125" height="500" style="fill:#888888;" />
		</g>
		<g id="BSicon_PLTr.svg 272" transform="matrix(0, 1, -1, 0, 2750.000244140625, 1750)" clip-path="url(#mask_16)">
			<rect x="-250" y="-250" width="125" height="500" style="fill:#888888;" />
		</g>
		<g id="BSicon_PLTr.svg 282" transform="matrix(0, 1, -1, 0, 3250.000244140625, 1750)" clip-path="url(#mask_17)">
			<rect x="-250" y="-250" width="125" height="500" style="fill:#888888;" />
		</g>
		<g id="BSicon_PLTr.svg 292" transform="matrix(0, 1, -1, 0, 3250.000244140625, 1750)" clip-path="url(#mask_18)">
			<rect x="-250" y="-250" width="125" height="500" style="fill:#888888;" />
		</g>
		<g id="BSicon_vNULfg.svg 72" transform="matrix(0, 1, -1, 0, 3750.000244140625, 1250)" clip-path="url(#mask_19)">
			<path d="M75,0 L125,-50 L175,0 L175,50 L125,0 L75,50M-175,-50 L-125,0 L-75,-50 L-75,0 L-125,50 L-175,0" style="fill:#FFFFFF;" />
		</g>
		<g id="BSicon_RP4.svg 12" transform="matrix(0, 1, -1, 0, 3749.999267578125, 1750)" clip-path="url(#mask_20)">
			<g id="Group 252">
				<path d="M0,-250 L0,250" style="fill:none;stroke:#999999;stroke-linecap:butt;stroke-linejoin:miter;stroke-miterlimit:4;stroke-width:220;" />
				<g id="Group 132">
					<path d="M0,-250 L0,250" style="fill:none;stroke:#FFFFFF;stroke-linecap:butt;stroke-linejoin:miter;stroke-miterlimit:4;stroke-width:25;" />
					<path d="M-60,-218.8 L-60,250M60,-218.8 L60,250" style="fill:none;stroke:#FFFFFF;stroke-linecap:butt;stroke-linejoin:miter;stroke-miterlimit:4;stroke-width:25;stroke-dasharray:62.5;" />
				</g>
			</g>
		</g>
		<g id="BSicon_RP4.svg 522" transform="matrix(0, 1, -1, 0, 4250, 1750)" clip-path="url(#mask_21)">
			<g id="Group 4682">
				<path d="M0,-250 L0,250" style="fill:none;stroke:#999999;stroke-linecap:butt;stroke-linejoin:miter;stroke-miterlimit:4;stroke-width:220;" />
				<g id="Group 4672">
					<path d="M0,-250 L0,250" style="fill:none;stroke:#FFFFFF;stroke-linecap:butt;stroke-linejoin:miter;stroke-miterlimit:4;stroke-width:25;" />
					<path d="M-60,-218.8 L-60,250M60,-218.8 L60,250" style="fill:none;stroke:#FFFFFF;stroke-linecap:butt;stroke-linejoin:miter;stroke-miterlimit:4;stroke-width:25;stroke-dasharray:62.5;" />
				</g>
			</g>
		</g>
		<g id="BSicon_RP4.svg 22" transform="matrix(0, 1, -1, 0, 3250.000244140625, 1750)" clip-path="url(#mask_22)">
			<g id="Group 272">
				<path d="M0,-250 L0,250" style="fill:none;stroke:#999999;stroke-linecap:butt;stroke-linejoin:miter;stroke-miterlimit:4;stroke-width:220;" />
				<g id="Group 262">
					<path d="M0,-250 L0,250" style="fill:none;stroke:#FFFFFF;stroke-linecap:butt;stroke-linejoin:miter;stroke-miterlimit:4;stroke-width:25;" />
					<path d="M-60,-218.8 L-60,250M60,-218.8 L60,250" style="fill:none;stroke:#FFFFFF;stroke-linecap:butt;stroke-linejoin:miter;stroke-miterlimit:4;stroke-width:25;stroke-dasharray:62.5;" />
				</g>
			</g>
		</g>
		<g id="BSicon_RP4.svg 32" transform="matrix(0, 1, -1, 0, 2750.000244140625, 1750)" clip-path="url(#mask_23)">
			<g id="Group 292">
				<path d="M0,-250 L0,250" style="fill:none;stroke:#999999;stroke-linecap:butt;stroke-linejoin:miter;stroke-miterlimit:4;stroke-width:220;" />
				<g id="Group 282">
					<path d="M0,-250 L0,250" style="fill:none;stroke:#FFFFFF;stroke-linecap:butt;stroke-linejoin:miter;stroke-miterlimit:4;stroke-width:25;" />
					<path d="M-60,-218.8 L-60,250M60,-218.8 L60,250" style="fill:none;stroke:#FFFFFF;stroke-linecap:butt;stroke-linejoin:miter;stroke-miterlimit:4;stroke-width:25;stroke-dasharray:62.5;" />
				</g>
			</g>
		</g>
		<g id="BSicon_RP4.svg 42" transform="matrix(0, 1, -1, 0, 2250.000244140625, 1750)" clip-path="url(#mask_24)">
			<g id="Group 312">
				<path d="M0,-250 L0,250" style="fill:none;stroke:#999999;stroke-linecap:butt;stroke-linejoin:miter;stroke-miterlimit:4;stroke-width:220;" />
				<g id="Group 302">
					<path d="M0,-250 L0,250" style="fill:none;stroke:#FFFFFF;stroke-linecap:butt;stroke-linejoin:miter;stroke-miterlimit:4;stroke-width:25;" />
					<path d="M-60,-218.8 L-60,250M60,-218.8 L60,250" style="fill:none;stroke:#FFFFFF;stroke-linecap:butt;stroke-linejoin:miter;stroke-miterlimit:4;stroke-width:25;stroke-dasharray:62.5;" />
				</g>
			</g>
		</g>
		<g id="BSicon_RP4.svg 52" transform="matrix(0, 1, -1, 0, 1750.000244140625, 1750)" clip-path="url(#mask_25)">
			<g id="Group 332">
				<path d="M0,-250 L0,250" style="fill:none;stroke:#999999;stroke-linecap:butt;stroke-linejoin:miter;stroke-miterlimit:4;stroke-width:220;" />
				<g id="Group 322">
					<path d="M0,-250 L0,250" style="fill:none;stroke:#FFFFFF;stroke-linecap:butt;stroke-linejoin:miter;stroke-miterlimit:4;stroke-width:25;" />
					<path d="M-60,-218.8 L-60,250M60,-218.8 L60,250" style="fill:none;stroke:#FFFFFF;stroke-linecap:butt;stroke-linejoin:miter;stroke-miterlimit:4;stroke-width:25;stroke-dasharray:62.5;" />
				</g>
			</g>
		</g>
		<g id="BSicon_RP4.svg 62" transform="matrix(0, 1, -1, 0, 1056.6513671875, 1750)" clip-path="url(#mask_26)">
			<g id="Group 352">
				<path d="M0,-443.3 L0,56.7" style="fill:none;stroke:#999999;stroke-linecap:butt;stroke-linejoin:miter;stroke-miterlimit:4;stroke-width:220;" />
				<g id="Group 342">
					<path d="M0,-443.3 L0,56.7" style="fill:none;stroke:#FFFFFF;stroke-linecap:butt;stroke-linejoin:miter;stroke-miterlimit:4;stroke-width:25;" />
					<path d="M-60,-412.1 L-60,56.7M60,-412.1 L60,56.7" style="fill:none;stroke:#FFFFFF;stroke-linecap:butt;stroke-linejoin:miter;stroke-miterlimit:4;stroke-width:25;stroke-dasharray:62.5;" />
				</g>
			</g>
		</g>
		<g id="BSicon_RP4.svg 82" transform="matrix(0, 1, -1, 0, 1443.3487548828125, 1750)" clip-path="url(#mask_27)">
			<g id="Group 8602">
				<path d="M0,-443.3 L0,56.7" style="fill:none;stroke:#999999;stroke-linecap:butt;stroke-linejoin:miter;stroke-miterlimit:4;stroke-width:220;" />
				<g id="Group 8592">
					<path d="M0,-443.3 L0,56.7" style="fill:none;stroke:#FFFFFF;stroke-linecap:butt;stroke-linejoin:miter;stroke-miterlimit:4;stroke-width:25;" />
					<path d="M-60,-412.1 L-60,56.7M60,-412.1 L60,56.7" style="fill:none;stroke:#FFFFFF;stroke-linecap:butt;stroke-linejoin:miter;stroke-miterlimit:4;stroke-width:25;stroke-dasharray:62.5;" />
				</g>
			</g>
		</g>
		<g id="BSicon_RP4.svg 72" transform="matrix(0, 1, -1, 0, 750.000244140625, 1750)" clip-path="url(#mask_28)">
			<g id="Group 372">
				<path d="M0,-250 L0,250" style="fill:none;stroke:#999999;stroke-linecap:butt;stroke-linejoin:miter;stroke-miterlimit:4;stroke-width:220;" />
				<g id="Group 362">
					<path d="M0,-250 L0,250" style="fill:none;stroke:#FFFFFF;stroke-linecap:butt;stroke-linejoin:miter;stroke-miterlimit:4;stroke-width:25;" />
					<path d="M-60,-218.8 L-60,250M60,-218.8 L60,250" style="fill:none;stroke:#FFFFFF;stroke-linecap:butt;stroke-linejoin:miter;stroke-miterlimit:4;stroke-width:25;stroke-dasharray:62.5;" />
				</g>
			</g>
		</g>
		<g id="BSicon_hRP2qao.svg 32" clip-path="url(#mask_29)">
			<path d="M1250,1000 L1250,1500" style="fill:#000000;stroke:#999999;stroke-linecap:butt;stroke-linejoin:miter;stroke-miterlimit:4;stroke-width:220;" />
			<g id="Group 1642">
				<path d="M1310,1031.3 L1310,1500" style="fill:#000000;stroke:#FFFFFF;stroke-linecap:butt;stroke-linejoin:miter;stroke-miterlimit:4;stroke-width:25;stroke-dasharray:62.5;" />
				<path d="M1190,1031.3 L1190,1500" style="fill:#000000;stroke:#FFFFFF;stroke-linecap:butt;stroke-linejoin:miter;stroke-miterlimit:4;stroke-width:25;stroke-dasharray:62.5;" />
			</g>
			<path d="M1250,1000 L1250,1500" style="fill:#000000;stroke:#FFFFFF;stroke-linecap:butt;stroke-linejoin:miter;stroke-miterlimit:4;stroke-width:25;" />
			<path d="M1110,1000 L1110,1500M1390,1000 L1390,1500" style="fill:#000000;stroke:#80A080;stroke-linecap:butt;stroke-linejoin:miter;stroke-miterlimit:4;stroke-width:30;" />
		</g>
		<g id="BSicon_hRP2qao.svg 12" clip-path="url(#mask_30)">
			<path d="M1250,500 L1250,1000" style="fill:#000000;stroke:#999999;stroke-linecap:butt;stroke-linejoin:miter;stroke-miterlimit:4;stroke-width:220;" />
			<g id="Group 1622">
				<path d="M1310,531.3 L1310,1000" style="fill:#000000;stroke:#FFFFFF;stroke-linecap:butt;stroke-linejoin:miter;stroke-miterlimit:4;stroke-width:25;stroke-dasharray:62.5;" />
				<path d="M1190,531.3 L1190,1000" style="fill:#000000;stroke:#FFFFFF;stroke-linecap:butt;stroke-linejoin:miter;stroke-miterlimit:4;stroke-width:25;stroke-dasharray:62.5;" />
			</g>
			<path d="M1250,500 L1250,1000" style="fill:#000000;stroke:#FFFFFF;stroke-linecap:butt;stroke-linejoin:miter;stroke-miterlimit:4;stroke-width:25;" />
			<path d="M1110,500 L1110,1000M1390,500 L1390,1000" style="fill:#000000;stroke:#80A080;stroke-linecap:butt;stroke-linejoin:miter;stroke-miterlimit:4;stroke-width:30;" />
		</g>
		<g id="BSicon_hRP2qao.svg 22" clip-path="url(#mask_31)">
			<path d="M1250,1500 L1250,2000" style="fill:#000000;stroke:#999999;stroke-linecap:butt;stroke-linejoin:miter;stroke-miterlimit:4;stroke-width:220;" />
			<g id="Group 1632">
				<path d="M1310,1531.3 L1310,2000" style="fill:#000000;stroke:#FFFFFF;stroke-linecap:butt;stroke-linejoin:miter;stroke-miterlimit:4;stroke-width:25;stroke-dasharray:62.5;" />
				<path d="M1190,1531.3 L1190,2000" style="fill:#000000;stroke:#FFFFFF;stroke-linecap:butt;stroke-linejoin:miter;stroke-miterlimit:4;stroke-width:25;stroke-dasharray:62.5;" />
			</g>
			<path d="M1250,1500 L1250,2000" style="fill:#000000;stroke:#FFFFFF;stroke-linecap:butt;stroke-linejoin:miter;stroke-miterlimit:4;stroke-width:25;" />
			<path d="M1110,1500 L1110,2000M1390,1500 L1390,2000" style="fill:#000000;stroke:#80A080;stroke-linecap:butt;stroke-linejoin:miter;stroke-miterlimit:4;stroke-width:30;" />
		</g>
		<g id="BSicon_RP4CONTfq.svg 52" transform="matrix(-0.0000001130000626403671, -1.000000238418579, -1.000000238418579, 0.0000001130000626403671, 1250.0003662109375, 250)" clip-path="url(#mask_32)">
			<g id="Group 2302" transform="matrix(-1, 0, 0, -1, 250, 250)">
				<path d="M250,250 L500,250" style="fill:#000000;stroke:#999999;stroke-linecap:butt;stroke-linejoin:miter;stroke-miterlimit:4;stroke-width:110;" />
				<path d="M250,250 L500,250" style="fill:#000000;stroke:#FFFFFF;stroke-linecap:butt;stroke-linejoin:miter;stroke-miterlimit:4;stroke-width:25;stroke-dasharray:62.5;stroke-dashoffset:93.8;" />
			</g>
			<g id="Group 2322" transform="matrix(0, -1, 1, 0, -500, 250)">
				<path d="M250,250 L250,500" style="fill:none;stroke:#999999;stroke-linecap:butt;stroke-linejoin:miter;stroke-miterlimit:4;stroke-width:220;" />
				<g id="Group 2312">
					<path d="M250,250 L250,500" style="fill:none;stroke:#FFFFFF;stroke-linecap:butt;stroke-linejoin:miter;stroke-miterlimit:4;stroke-width:25;" />
					<path d="M190,257.8 L190,492.2M310,257.8 L310,492.2" style="fill:none;stroke:#FFFFFF;stroke-linecap:butt;stroke-linejoin:miter;stroke-miterlimit:4;stroke-width:25;stroke-dasharray:62.5;stroke-dashoffset:101.3;" />
				</g>
			</g>
			<path d="M-48.6,146.3 L24.6,146.3 L170.9,-0 L24.6,-146.3 L-48.6,-146.3 L-48.6,146.3 Z" style="fill:#999999;stroke:#999999;stroke-linecap:butt;stroke-linejoin:miter;stroke-miterlimit:4;stroke-width:1;" />
		</g>
		<g id="BSicon_RP4CONTfq.svg 62" transform="matrix(-0.0000001130000626403671, 1.000000238418579, -1.000000238418579, -0.0000001130000626403671, 1250.0001220703125, 2250)" clip-path="url(#mask_33)">
			<g id="Group 2332" transform="matrix(-1, 0, 0, -1, 250, 250)">
				<path d="M250,250 L500,250" style="fill:#000000;stroke:#999999;stroke-linecap:butt;stroke-linejoin:miter;stroke-miterlimit:4;stroke-width:110;" />
				<path d="M250,250 L500,250" style="fill:#000000;stroke:#FFFFFF;stroke-linecap:butt;stroke-linejoin:miter;stroke-miterlimit:4;stroke-width:25;stroke-dasharray:62.5;stroke-dashoffset:93.8;" />
			</g>
			<g id="Group 2352" transform="matrix(0, -1, 1, 0, -500, 250)">
				<path d="M250,250 L250,500" style="fill:none;stroke:#999999;stroke-linecap:butt;stroke-linejoin:miter;stroke-miterlimit:4;stroke-width:220;" />
				<g id="Group 2342">
					<path d="M250,250 L250,500" style="fill:none;stroke:#FFFFFF;stroke-linecap:butt;stroke-linejoin:miter;stroke-miterlimit:4;stroke-width:25;" />
					<path d="M190,257.8 L190,492.2M310,257.8 L310,492.2" style="fill:none;stroke:#FFFFFF;stroke-linecap:butt;stroke-linejoin:miter;stroke-miterlimit:4;stroke-width:25;stroke-dasharray:62.5;stroke-dashoffset:101.3;" />
				</g>
			</g>
			<path d="M-48.6,146.3 L24.6,146.3 L170.9,-0 L24.6,-146.3 L-48.6,-146.3 L-48.6,146.3 Z" style="fill:#999999;stroke:#999999;stroke-linecap:butt;stroke-linejoin:miter;stroke-miterlimit:4;stroke-width:1;" />
		</g>
		<g id="BSicon_lhSTRaq.svg 22" transform="matrix(0.0000000861048832234701, 1.000000238418579, 1.000000238418579, -0.0000000861048832234701, 1250.0003662109375, 250)" clip-path="url(#mask_34)">
			<path d="M-25,-210 L25,-140 L250,-140M250,140 L25,140 L-25,210" style="fill:none;stroke:#80A080;stroke-linecap:butt;stroke-linejoin:miter;stroke-miterlimit:4;stroke-width:30;" />
		</g>
		<g id="BSicon_lhSTRaq.svg 32" transform="matrix(0.0000000861048832234701, -1.000000238418579, 1.000000238418579, 0.0000000861048832234701, 1250.0001220703125, 2250)" clip-path="url(#mask_35)">
			<path d="M-25,-210 L25,-140 L250,-140M250,140 L25,140 L-25,210" style="fill:none;stroke:#80A080;stroke-linecap:butt;stroke-linejoin:miter;stroke-miterlimit:4;stroke-width:30;" />
		</g>
		<g id="BSicon_RP4CONTfq.svg 32" transform="matrix(-1, 0, 0, 1, 250.000244140625, 1750)" clip-path="url(#mask_36)">
			<g id="Group 2242" transform="matrix(-1, 0, 0, -1, 250, 250)">
				<path d="M250,250 L500,250" style="fill:#000000;stroke:#999999;stroke-linecap:butt;stroke-linejoin:miter;stroke-miterlimit:4;stroke-width:110;" />
				<path d="M250,250 L500,250" style="fill:#000000;stroke:#FFFFFF;stroke-linecap:butt;stroke-linejoin:miter;stroke-miterlimit:4;stroke-width:25;stroke-dasharray:62.5;stroke-dashoffset:93.8;" />
			</g>
			<g id="Group 2262" transform="matrix(0, -1, 1, 0, -500, 250)">
				<path d="M250,250 L250,500" style="fill:none;stroke:#999999;stroke-linecap:butt;stroke-linejoin:miter;stroke-miterlimit:4;stroke-width:220;" />
				<g id="Group 2252">
					<path d="M250,250 L250,500" style="fill:none;stroke:#FFFFFF;stroke-linecap:butt;stroke-linejoin:miter;stroke-miterlimit:4;stroke-width:25;" />
					<path d="M190,257.8 L190,492.2M310,257.8 L310,492.2" style="fill:none;stroke:#FFFFFF;stroke-linecap:butt;stroke-linejoin:miter;stroke-miterlimit:4;stroke-width:25;stroke-dasharray:62.5;stroke-dashoffset:101.3;" />
				</g>
			</g>
			<path d="M-48.6,146.3 L24.6,146.3 L170.9,-0 L24.6,-146.3 L-48.6,-146.3 L-48.6,146.3 Z" style="fill:#999999;stroke:#999999;stroke-linecap:butt;stroke-linejoin:miter;stroke-miterlimit:4;stroke-width:1;" />
		</g>
		<g id="BSicon_RP4CONTfq.svg 42" clip-path="url(#mask_37)">
			<g id="Group 2272" transform="matrix(-1, 0, 0, -1, 5000, 2000)">
				<path d="M250,250 L500,250" style="fill:#000000;stroke:#999999;stroke-linecap:butt;stroke-linejoin:miter;stroke-miterlimit:4;stroke-width:110;" />
				<path d="M250,250 L500,250" style="fill:#000000;stroke:#FFFFFF;stroke-linecap:butt;stroke-linejoin:miter;stroke-miterlimit:4;stroke-width:25;stroke-dasharray:62.5;stroke-dashoffset:93.8;" />
			</g>
			<g id="Group 2292" transform="matrix(0, -1, 1, 0, 4250, 2000)">
				<path d="M250,250 L250,500" style="fill:none;stroke:#999999;stroke-linecap:butt;stroke-linejoin:miter;stroke-miterlimit:4;stroke-width:220;" />
				<g id="Group 2282">
					<path d="M250,250 L250,500" style="fill:none;stroke:#FFFFFF;stroke-linecap:butt;stroke-linejoin:miter;stroke-miterlimit:4;stroke-width:25;" />
					<path d="M190,257.8 L190,492.2M310,257.8 L310,492.2" style="fill:none;stroke:#FFFFFF;stroke-linecap:butt;stroke-linejoin:miter;stroke-miterlimit:4;stroke-width:25;stroke-dasharray:62.5;stroke-dashoffset:101.3;" />
				</g>
			</g>
			<path d="M4701.4,1896.3 L4774.6,1896.3 L4920.9,1750 L4774.6,1603.7 L4701.4,1603.7 L4701.4,1896.3 Z" style="fill:#999999;stroke:#999999;stroke-linecap:butt;stroke-linejoin:miter;stroke-miterlimit:4;stroke-width:1;" />
		</g>
		<g id="BSicon_lhvCONTg++.svg 22" transform="matrix(0.00000000033581071257060557, -1.000000238418579, 1.000000238418579, 0.00000000033581071257060557, 250.00006103515625, 1250)" clip-path="url(#mask_38)">
			<g id="Right_Track_and_Arrow 42">
				<path d="M125,250 L125,50" style="fill:none;stroke:#00B500;stroke-linecap:butt;stroke-linejoin:miter;stroke-miterlimit:4;stroke-width:100;" />
				<path d="M227.5,50 L227.5,0 L125,-102.5 L22.5,0 L22.5,50" style="fill:#00B500;" />
			</g>
			<g id="Left_Track_and_Ribbon_Tail 42">
				<path d="M-75,250 L-75,-100 L-125,-50 L-175,-100 L-175,250" style="fill:#00B500;" />
			</g>
			<g id="Left_Elevated_Tails 42">
				<path d="M-250,250 L-250,50" style="fill:none;stroke:#80A080;stroke-linecap:round;stroke-linejoin:miter;stroke-miterlimit:4;stroke-width:50;stroke-dasharray:0 75;" />
			</g>
			<g id="Right_Elevated_Tails 42">
				<path d="M250,250 L250,50" style="fill:none;stroke:#80A080;stroke-linecap:round;stroke-linejoin:miter;stroke-miterlimit:4;stroke-width:50;stroke-dasharray:0 75;" />
			</g>
		</g>
		<g id="BSicon_lhvCONTg++.svg 32" transform="matrix(0.0000000020619337348648514, 1.000000238418579, -1.000000238418579, 0.0000000020619337348648514, 4750, 1250)" clip-path="url(#mask_39)">
			<g id="Right_Track_and_Arrow 52">
				<path d="M125,250 L125,50" style="fill:none;stroke:#00B500;stroke-linecap:butt;stroke-linejoin:miter;stroke-miterlimit:4;stroke-width:100;" />
				<path d="M227.5,50 L227.5,0 L125,-102.5 L22.5,0 L22.5,50" style="fill:#00B500;" />
			</g>
			<g id="Left_Track_and_Ribbon_Tail 52">
				<path d="M-75,250 L-75,-100 L-125,-50 L-175,-100 L-175,250" style="fill:#00B500;" />
			</g>
			<g id="Left_Elevated_Tails 52">
				<path d="M-250,250 L-250,50" style="fill:none;stroke:#80A080;stroke-linecap:round;stroke-linejoin:miter;stroke-miterlimit:4;stroke-width:50;stroke-dasharray:0 75;" />
			</g>
			<g id="Right_Elevated_Tails 52">
				<path d="M250,250 L250,50" style="fill:none;stroke:#80A080;stroke-linecap:round;stroke-linejoin:miter;stroke-miterlimit:4;stroke-width:50;stroke-dasharray:0 75;" />
			</g>
		</g>
	</g>
</svg>