<?xml version="1.0" encoding="UTF-8"?>
<!-- Created with Grafika (https://www.grafika.cc/) -->
<svg xmlns="http://www.w3.org/2000/svg" xmlns:svg="http://www.w3.org/2000/svg" xmlns:xlink="http://www.w3.org/1999/xlink" width="4500" height="2500" viewBox="0 0 4500 2500" preserveAspectRatio="xMidYMid meet">
	<defs>
		<clipPath id="mask_1">
			<rect x="-250" y="-250" width="500" height="500" />
		</clipPath>
		<clipPath id="mask_2">
			<rect x="-250" y="-250" width="500" height="500" />
		</clipPath>
		<clipPath id="mask_3">
			<rect x="-250" y="-250" width="500" height="500" />
		</clipPath>
		<clipPath id="mask_4">
			<rect x="-250" y="-250" width="500" height="500" />
		</clipPath>
		<clipPath id="mask_5">
			<rect x="-250" y="-250" width="500" height="500" />
		</clipPath>
		<clipPath id="mask_6">
			<rect x="-250" y="-250" width="500" height="500" />
		</clipPath>
		<clipPath id="mask_7">
			<rect x="-250" y="-250" width="500" height="500" />
		</clipPath>
		<clipPath id="mask_8">
			<rect x="-250" y="-250" width="500" height="500" />
		</clipPath>
		<clipPath id="mask_9">
			<rect x="-250" y="-250" width="500" height="500" />
		</clipPath>
		<clipPath id="mask_10">
			<rect x="-250" y="-250" width="500" height="500" />
		</clipPath>
		<clipPath id="mask_11">
			<rect x="-250" y="-250" width="500" height="500" />
		</clipPath>
		<clipPath id="mask_12">
			<rect x="-250" y="-250" width="500" height="500" />
		</clipPath>
		<clipPath id="mask_13">
			<rect x="-250" y="-250" width="500" height="500" />
		</clipPath>
		<clipPath id="mask_14">
			<rect x="-250" y="-250" width="500" height="500" />
		</clipPath>
		<clipPath id="mask_15">
			<rect x="-250" y="-250" width="500" height="500" />
		</clipPath>
		<clipPath id="mask_16">
			<rect x="-250" y="-250" width="500" height="500" />
		</clipPath>
		<clipPath id="mask_17">
			<rect x="-250" y="-250" width="500" height="500" />
		</clipPath>
		<clipPath id="mask_18">
			<rect x="-250" y="-250" width="500" height="500" />
		</clipPath>
		<clipPath id="mask_19">
			<rect x="-250" y="-250" width="500" height="500" />
		</clipPath>
		<clipPath id="mask_20">
			<rect x="-250" y="-250" width="500" height="500" />
		</clipPath>
		<clipPath id="mask_21">
			<rect x="-250" y="-250" width="500" height="500" />
		</clipPath>
		<clipPath id="mask_22">
			<rect x="-250" y="-250" width="500" height="500" />
		</clipPath>
		<clipPath id="mask_23">
			<rect x="-250" y="-250" width="500" height="500" />
		</clipPath>
		<clipPath id="mask_24">
			<rect x="1000" y="500" width="500" height="500" />
		</clipPath>
		<clipPath id="mask_25">
			<rect x="1000" y="1500" width="500" height="500" />
		</clipPath>
		<clipPath id="mask_26">
			<rect x="-250" y="-250" width="500" height="500" />
		</clipPath>
		<clipPath id="mask_27">
			<rect x="-250" y="-250" width="500" height="500" />
		</clipPath>
		<clipPath id="mask_28">
			<rect x="-250" y="-250" width="500" height="500" />
		</clipPath>
		<clipPath id="mask_29">
			<rect x="-250" y="-250" width="500" height="500" />
		</clipPath>
		<clipPath id="mask_30">
			<rect x="-250" y="-250" width="500" height="500" />
		</clipPath>
		<clipPath id="mask_31">
			<rect x="-250" y="-250" width="500" height="500" />
		</clipPath>
		<clipPath id="mask_32">
			<rect x="-250" y="-250" width="500" height="500" />
		</clipPath>
		<clipPath id="mask_33">
			<rect x="-250" y="-250" width="500" height="500" />
		</clipPath>
		<clipPath id="mask_34">
			<rect x="-250" y="-250" width="500" height="500" />
		</clipPath>
		<clipPath id="mask_35">
			<rect x="-250" y="-250" width="500" height="500" />
		</clipPath>
		<clipPath id="mask_36">
			<rect x="-250" y="-250" width="500" height="500" />
		</clipPath>
		<clipPath id="mask_37">
			<rect x="3500" y="1500" width="500" height="500" />
		</clipPath>
		<clipPath id="mask_38">
			<rect x="-250" y="-250" width="500" height="500" />
		</clipPath>
		<clipPath id="mask_39">
			<rect x="-250" y="-250" width="500" height="500" />
		</clipPath>
		<clipPath id="mask_40">
			<rect x="-250" y="-250" width="500" height="500" />
		</clipPath>
		<clipPath id="mask_41">
			<rect x="-250" y="-250" width="500" height="500" />
		</clipPath>
		<clipPath id="mask_42">
			<rect x="-250" y="-250" width="500" height="500" />
		</clipPath>
	</defs>
	<g id="Group 8742">
		<g id="BSicon_uhvSTR.svg 812" transform="matrix(-0.00000007328647910753716, 1.0000003576278687, -1.0000003576278687, -0.00000007328647910753716, 3250.00244140625, 1250)" clip-path="url(#mask_1)">
			<path d="M-125,-250 L-125,250M125,250 L125,-250" style="fill:#000000;stroke:#00B500;stroke-linecap:butt;stroke-linejoin:miter;stroke-miterlimit:4;stroke-width:100;" />
			<path d="M-250,-250 L-250,250M250,250 L250,-250" style="fill:#000000;stroke:#80A080;stroke-linecap:butt;stroke-linejoin:miter;stroke-miterlimit:4;stroke-width:50;" />
		</g>
		<g id="BSicon_uhvSTR.svg 822" transform="matrix(-0.00000007328647910753716, 1.0000003576278687, -1.0000003576278687, -0.00000007328647910753716, 3250.00244140625, 1250)" clip-path="url(#mask_2)">
			<path d="M-125,-250 L-125,250M125,250 L125,-250" style="fill:#000000;stroke:#00B500;stroke-linecap:butt;stroke-linejoin:miter;stroke-miterlimit:4;stroke-width:100;" />
			<path d="M-250,-250 L-250,250M250,250 L250,-250" style="fill:#000000;stroke:#80A080;stroke-linecap:butt;stroke-linejoin:miter;stroke-miterlimit:4;stroke-width:50;" />
		</g>
		<g id="BSicon_uhvSTR.svg 832" transform="matrix(-0.00000007328647910753716, 1.0000003576278687, -1.0000003576278687, -0.00000007328647910753716, 3750.0029296875, 1250)" clip-path="url(#mask_3)">
			<path d="M-125,-250 L-125,250M125,250 L125,-250" style="fill:#000000;stroke:#00B500;stroke-linecap:butt;stroke-linejoin:miter;stroke-miterlimit:4;stroke-width:100;" />
			<path d="M-250,-250 L-250,250M250,250 L250,-250" style="fill:#000000;stroke:#80A080;stroke-linecap:butt;stroke-linejoin:miter;stroke-miterlimit:4;stroke-width:50;" />
		</g>
		<g id="BSicon_uvSTR.svg 452" transform="matrix(-0.00000007328647910753716, 1.0000003576278687, -1.0000003576278687, -0.00000007328647910753716, 2750.001953125, 1250)" clip-path="url(#mask_4)">
			<path d="M-125,-250 L-125,250M125,250 L125,-250" style="fill:#000000;stroke:#00B500;stroke-linecap:butt;stroke-linejoin:miter;stroke-miterlimit:4;stroke-width:100;" />
		</g>
		<g id="BSicon_uvSTR.svg 462" transform="matrix(-0.00000007328647910753716, 1.0000003576278687, -1.0000003576278687, -0.00000007328647910753716, 2250.001953125, 1250)" clip-path="url(#mask_5)">
			<path d="M-125,-250 L-125,250M125,250 L125,-250" style="fill:#000000;stroke:#00B500;stroke-linecap:butt;stroke-linejoin:miter;stroke-miterlimit:4;stroke-width:100;" />
		</g>
		<g id="BSicon_uvSTR.svg 472" transform="matrix(-0.00000007328647910753716, 1.0000003576278687, -1.0000003576278687, -0.00000007328647910753716, 1750.001953125, 1250)" clip-path="url(#mask_6)">
			<path d="M-125,-250 L-125,250M125,250 L125,-250" style="fill:#000000;stroke:#00B500;stroke-linecap:butt;stroke-linejoin:miter;stroke-miterlimit:4;stroke-width:100;" />
		</g>
		<g id="BSicon_PLTl.svg 442" transform="matrix(-0.00000007328647910753716, 1.0000003576278687, -1.0000003576278687, -0.00000007328647910753716, 1750.001953125, 750)" clip-path="url(#mask_7)">
			<rect x="125" y="-250" width="125" height="500" style="fill:#888888;" />
		</g>
		<g id="BSicon_PLTl.svg 462" transform="matrix(-0.00000007328647910753716, 1.0000003576278687, -1.0000003576278687, -0.00000007328647910753716, 2250.001953125, 750)" clip-path="url(#mask_8)">
			<rect x="125" y="-250" width="125" height="500" style="fill:#888888;" />
		</g>
		<g id="BSicon_PLTl.svg 472" transform="matrix(-0.00000007328647910753716, 1.0000003576278687, -1.0000003576278687, -0.00000007328647910753716, 2750.001953125, 750)" clip-path="url(#mask_9)">
			<rect x="125" y="-250" width="125" height="500" style="fill:#888888;" />
		</g>
		<g id="BSicon_PLTr.svg 662" transform="matrix(-0.00000007328647910753716, 1.0000003576278687, -1.0000003576278687, -0.00000007328647910753716, 1750.001953125, 1750)" clip-path="url(#mask_10)">
			<rect x="-250" y="-250" width="125" height="500" style="fill:#888888;" />
		</g>
		<g id="BSicon_PLTr.svg 672" transform="matrix(-0.00000007328647910753716, 1.0000003576278687, -1.0000003576278687, -0.00000007328647910753716, 1750.001953125, 1750)" clip-path="url(#mask_11)">
			<rect x="-250" y="-250" width="125" height="500" style="fill:#888888;" />
		</g>
		<g id="BSicon_PLTr.svg 712" transform="matrix(-0.00000007328647910753716, 1.0000003576278687, -1.0000003576278687, -0.00000007328647910753716, 2250.001953125, 1750)" clip-path="url(#mask_12)">
			<rect x="-250" y="-250" width="125" height="500" style="fill:#888888;" />
		</g>
		<g id="BSicon_PLTr.svg 722" transform="matrix(-0.00000007328647910753716, 1.0000003576278687, -1.0000003576278687, -0.00000007328647910753716, 2250.001953125, 1750)" clip-path="url(#mask_13)">
			<rect x="-250" y="-250" width="125" height="500" style="fill:#888888;" />
		</g>
		<g id="BSicon_PLTr.svg 732" transform="matrix(-0.00000007328647910753716, 1.0000003576278687, -1.0000003576278687, -0.00000007328647910753716, 2750.001953125, 1750)" clip-path="url(#mask_14)">
			<rect x="-250" y="-250" width="125" height="500" style="fill:#888888;" />
		</g>
		<g id="BSicon_PLTr.svg 742" transform="matrix(-0.00000007328647910753716, 1.0000003576278687, -1.0000003576278687, -0.00000007328647910753716, 2750.001953125, 1750)" clip-path="url(#mask_15)">
			<rect x="-250" y="-250" width="125" height="500" style="fill:#888888;" />
		</g>
		<g id="BSicon_vNULfg.svg 232" transform="matrix(-0.00000007328647910753716, 1.0000003576278687, -1.0000003576278687, -0.00000007328647910753716, 3250.00048828125, 1250)" clip-path="url(#mask_16)">
			<path d="M75,0 L125,-50 L175,0 L175,50 L125,0 L75,50M-175,-50 L-125,0 L-75,-50 L-75,0 L-125,50 L-175,0" style="fill:#FFFFFF;" />
		</g>
		<g id="BSicon_RP2CONTf.svg 272" transform="matrix(0.0000001130000626403671, 1.000000238418579, 1.000000238418579, -0.0000001130000626403671, 4250.0009765625, 750)" clip-path="url(#mask_17)">
			<path d="M0,-250 L0,0" style="fill:#000000;stroke:#999999;stroke-linecap:butt;stroke-linejoin:miter;stroke-miterlimit:4;stroke-width:110;" />
			<path d="M0,-250 L0,0" style="fill:#000000;stroke:#FFFFFF;stroke-linecap:butt;stroke-linejoin:miter;stroke-miterlimit:4;stroke-width:25;stroke-dasharray:62.5;stroke-dashoffset:93.8;" />
			<path d="M-100,-50 L-100,0 L0,100 L100,0 L100,-50 L-100,-50 Z" style="fill:#999999;stroke:#999999;stroke-linecap:butt;stroke-linejoin:miter;stroke-miterlimit:4;stroke-width:1;" />
		</g>
		<g id="BSicon_RP2CONTf.svg 322" transform="matrix(-0.0000000016574293049131938, -0.9999998211860657, -0.9999998211860657, 0.0000000016574293049131938, 250.0020751953125, 750)" clip-path="url(#mask_18)">
			<path d="M0,-250 L0,0" style="fill:#000000;stroke:#999999;stroke-linecap:butt;stroke-linejoin:miter;stroke-miterlimit:4;stroke-width:110;" />
			<path d="M0,-250 L0,0" style="fill:#000000;stroke:#FFFFFF;stroke-linecap:butt;stroke-linejoin:miter;stroke-miterlimit:4;stroke-width:25;stroke-dasharray:62.5;stroke-dashoffset:93.8;" />
			<path d="M-100,-50 L-100,0 L0,100 L100,0 L100,-50 L-100,-50 Z" style="fill:#999999;stroke:#999999;stroke-linecap:butt;stroke-linejoin:miter;stroke-miterlimit:4;stroke-width:1;" />
		</g>
		<g id="BSicon_RP2CONTf.svg 332" transform="matrix(-0.0000000016574293049131938, -0.9999998211860657, -0.9999998211860657, 0.0000000016574293049131938, 250, 1750)" clip-path="url(#mask_19)">
			<path d="M0,-250 L0,0" style="fill:#000000;stroke:#999999;stroke-linecap:butt;stroke-linejoin:miter;stroke-miterlimit:4;stroke-width:110;" />
			<path d="M0,-250 L0,0" style="fill:#000000;stroke:#FFFFFF;stroke-linecap:butt;stroke-linejoin:miter;stroke-miterlimit:4;stroke-width:25;stroke-dasharray:62.5;stroke-dashoffset:93.8;" />
			<path d="M-100,-50 L-100,0 L0,100 L100,0 L100,-50 L-100,-50 Z" style="fill:#999999;stroke:#999999;stroke-linecap:butt;stroke-linejoin:miter;stroke-miterlimit:4;stroke-width:1;" />
		</g>
		<g id="BSicon_RP2CONTf.svg 282" transform="matrix(0.0000001130000626403671, 1.000000238418579, 1.000000238418579, -0.0000001130000626403671, 4250.0009765625, 1750)" clip-path="url(#mask_20)">
			<path d="M0,-250 L0,0" style="fill:#000000;stroke:#999999;stroke-linecap:butt;stroke-linejoin:miter;stroke-miterlimit:4;stroke-width:110;" />
			<path d="M0,-250 L0,0" style="fill:#000000;stroke:#FFFFFF;stroke-linecap:butt;stroke-linejoin:miter;stroke-miterlimit:4;stroke-width:25;stroke-dasharray:62.5;stroke-dashoffset:93.8;" />
			<path d="M-100,-50 L-100,0 L0,100 L100,0 L100,-50 L-100,-50 Z" style="fill:#999999;stroke:#999999;stroke-linecap:butt;stroke-linejoin:miter;stroke-miterlimit:4;stroke-width:1;" />
		</g>
		<g id="BSicon_RP2CONTf.svg 312" transform="matrix(-1.0000003576278687, 0.000000014244509571881281, 0.000000014244509571881281, 1.0000003576278687, 3750.0009765625, 2250)" clip-path="url(#mask_21)">
			<path d="M0,-250 L0,0" style="fill:#000000;stroke:#999999;stroke-linecap:butt;stroke-linejoin:miter;stroke-miterlimit:4;stroke-width:110;" />
			<path d="M0,-250 L0,0" style="fill:#000000;stroke:#FFFFFF;stroke-linecap:butt;stroke-linejoin:miter;stroke-miterlimit:4;stroke-width:25;stroke-dasharray:62.5;stroke-dashoffset:93.8;" />
			<path d="M-100,-50 L-100,0 L0,100 L100,0 L100,-50 L-100,-50 Z" style="fill:#999999;stroke:#999999;stroke-linecap:butt;stroke-linejoin:miter;stroke-miterlimit:4;stroke-width:1;" />
		</g>
		<g id="BSicon_RP2CONTf.svg 342" transform="matrix(-1.0000003576278687, -0.000000014244508683702861, 0.000000014244508683702861, -1.0000003576278687, 1250.000244140625, 250)" clip-path="url(#mask_22)">
			<path d="M0,-250 L0,0" style="fill:#000000;stroke:#999999;stroke-linecap:butt;stroke-linejoin:miter;stroke-miterlimit:4;stroke-width:110;" />
			<path d="M0,-250 L0,0" style="fill:#000000;stroke:#FFFFFF;stroke-linecap:butt;stroke-linejoin:miter;stroke-miterlimit:4;stroke-width:25;stroke-dasharray:62.5;stroke-dashoffset:93.8;" />
			<path d="M-100,-50 L-100,0 L0,100 L100,0 L100,-50 L-100,-50 Z" style="fill:#999999;stroke:#999999;stroke-linecap:butt;stroke-linejoin:miter;stroke-miterlimit:4;stroke-width:1;" />
		</g>
		<g id="BSicon_RP2CONTf.svg 352" transform="matrix(-1.0000003576278687, 0.000000014244509571881281, 0.000000014244509571881281, 1.0000003576278687, 1250.000244140625, 2250)" clip-path="url(#mask_23)">
			<path d="M0,-250 L0,0" style="fill:#000000;stroke:#999999;stroke-linecap:butt;stroke-linejoin:miter;stroke-miterlimit:4;stroke-width:110;" />
			<path d="M0,-250 L0,0" style="fill:#000000;stroke:#FFFFFF;stroke-linecap:butt;stroke-linejoin:miter;stroke-miterlimit:4;stroke-width:25;stroke-dasharray:62.5;stroke-dashoffset:93.8;" />
			<path d="M-100,-50 L-100,0 L0,100 L100,0 L100,-50 L-100,-50 Z" style="fill:#999999;stroke:#999999;stroke-linecap:butt;stroke-linejoin:miter;stroke-miterlimit:4;stroke-width:1;" />
		</g>
		<g id="BSicon_RP2xRP2.svg2" clip-path="url(#mask_24)">
			<g id="Group 4462">
				<path d="M1250,500 L1250,1000M1000,750 L1500,750" style="fill:#000000;stroke:#999999;stroke-linecap:butt;stroke-linejoin:miter;stroke-miterlimit:4;stroke-width:110;" />
				<path d="M1031.3,750 L1500,750M1250,531.3 L1250,1000" style="fill:#000000;stroke:#FFFFFF;stroke-linecap:butt;stroke-linejoin:miter;stroke-miterlimit:4;stroke-width:25;stroke-dasharray:62.5;" />
				<path d="M1250,695 L1250,805" style="fill:#000000;stroke:#999999;stroke-linecap:butt;stroke-linejoin:miter;stroke-miterlimit:4;stroke-width:110;" />
			</g>
		</g>
		<g id="BSicon_RP2xRP2.svg 32" clip-path="url(#mask_25)">
			<g id="Group 4472">
				<path d="M1250,1500 L1250,2000M1000,1750 L1500,1750" style="fill:#000000;stroke:#999999;stroke-linecap:butt;stroke-linejoin:miter;stroke-miterlimit:4;stroke-width:110;" />
				<path d="M1031.3,1750 L1500,1750M1250,1531.3 L1250,2000" style="fill:#000000;stroke:#FFFFFF;stroke-linecap:butt;stroke-linejoin:miter;stroke-miterlimit:4;stroke-width:25;stroke-dasharray:62.5;" />
				<path d="M1250,1695 L1250,1805" style="fill:#000000;stroke:#999999;stroke-linecap:butt;stroke-linejoin:miter;stroke-miterlimit:4;stroke-width:110;" />
			</g>
		</g>
		<g id="BSicon_RP2.svg2" transform="matrix(0.00000002672744336962296, 1.0000003576278687, -1.0000003576278687, 0.00000002672744336962296, 1750, 750)" clip-path="url(#mask_26)">
			<path d="M0,-250 L0,250" style="fill:none;stroke:#999999;stroke-linecap:butt;stroke-linejoin:miter;stroke-miterlimit:4;stroke-width:110;" />
			<path d="M0,-218.8 L0,250" style="fill:none;stroke:#FFFFFF;stroke-linecap:butt;stroke-linejoin:miter;stroke-miterlimit:4;stroke-width:25;stroke-dasharray:62.5;" />
		</g>
		<g id="BSicon_RP2.svg 1242" transform="matrix(0.00000002672744336962296, 1.0000003576278687, -1.0000003576278687, 0.00000002672744336962296, 1750, 1750)" clip-path="url(#mask_27)">
			<path d="M0,-250 L0,250" style="fill:none;stroke:#999999;stroke-linecap:butt;stroke-linejoin:miter;stroke-miterlimit:4;stroke-width:110;" />
			<path d="M0,-218.8 L0,250" style="fill:none;stroke:#FFFFFF;stroke-linecap:butt;stroke-linejoin:miter;stroke-miterlimit:4;stroke-width:25;stroke-dasharray:62.5;" />
		</g>
		<g id="BSicon_RP2.svg 1312" transform="matrix(0.00000002672744336962296, 1.0000003576278687, -1.0000003576278687, 0.00000002672744336962296, 750.000244140625, 1750)" clip-path="url(#mask_28)">
			<path d="M0,-250 L0,250" style="fill:none;stroke:#999999;stroke-linecap:butt;stroke-linejoin:miter;stroke-miterlimit:4;stroke-width:110;" />
			<path d="M0,-218.8 L0,250" style="fill:none;stroke:#FFFFFF;stroke-linecap:butt;stroke-linejoin:miter;stroke-miterlimit:4;stroke-width:25;stroke-dasharray:62.5;" />
		</g>
		<g id="BSicon_RP2.svg 1322" transform="matrix(0.00000002672744336962296, 1.0000003576278687, -1.0000003576278687, 0.00000002672744336962296, 750.000244140625, 750)" clip-path="url(#mask_29)">
			<path d="M0,-250 L0,250" style="fill:none;stroke:#999999;stroke-linecap:butt;stroke-linejoin:miter;stroke-miterlimit:4;stroke-width:110;" />
			<path d="M0,-218.8 L0,250" style="fill:none;stroke:#FFFFFF;stroke-linecap:butt;stroke-linejoin:miter;stroke-miterlimit:4;stroke-width:25;stroke-dasharray:62.5;" />
		</g>
		<g id="BSicon_RP2.svg 1222" transform="matrix(0.00000002672744336962296, 1.0000003576278687, -1.0000003576278687, 0.00000002672744336962296, 2250, 750)" clip-path="url(#mask_30)">
			<path d="M0,-250 L0,250" style="fill:none;stroke:#999999;stroke-linecap:butt;stroke-linejoin:miter;stroke-miterlimit:4;stroke-width:110;" />
			<path d="M0,-218.8 L0,250" style="fill:none;stroke:#FFFFFF;stroke-linecap:butt;stroke-linejoin:miter;stroke-miterlimit:4;stroke-width:25;stroke-dasharray:62.5;" />
		</g>
		<g id="BSicon_RP2.svg 1292" transform="matrix(0.00000002672744336962296, 1.0000003576278687, -1.0000003576278687, 0.00000002672744336962296, 3250, 750)" clip-path="url(#mask_31)">
			<path d="M0,-250 L0,250" style="fill:none;stroke:#999999;stroke-linecap:butt;stroke-linejoin:miter;stroke-miterlimit:4;stroke-width:110;" />
			<path d="M0,-218.8 L0,250" style="fill:none;stroke:#FFFFFF;stroke-linecap:butt;stroke-linejoin:miter;stroke-miterlimit:4;stroke-width:25;stroke-dasharray:62.5;" />
		</g>
		<g id="BSicon_RP2.svg 1272" transform="matrix(0.00000002672744336962296, 1.0000003576278687, -1.0000003576278687, 0.00000002672744336962296, 3250, 1750)" clip-path="url(#mask_32)">
			<path d="M0,-250 L0,250" style="fill:none;stroke:#999999;stroke-linecap:butt;stroke-linejoin:miter;stroke-miterlimit:4;stroke-width:110;" />
			<path d="M0,-218.8 L0,250" style="fill:none;stroke:#FFFFFF;stroke-linecap:butt;stroke-linejoin:miter;stroke-miterlimit:4;stroke-width:25;stroke-dasharray:62.5;" />
		</g>
		<g id="BSicon_RP2.svg 1252" transform="matrix(0.00000002672744336962296, 1.0000003576278687, -1.0000003576278687, 0.00000002672744336962296, 2250, 1750)" clip-path="url(#mask_33)">
			<path d="M0,-250 L0,250" style="fill:none;stroke:#999999;stroke-linecap:butt;stroke-linejoin:miter;stroke-miterlimit:4;stroke-width:110;" />
			<path d="M0,-218.8 L0,250" style="fill:none;stroke:#FFFFFF;stroke-linecap:butt;stroke-linejoin:miter;stroke-miterlimit:4;stroke-width:25;stroke-dasharray:62.5;" />
		</g>
		<g id="BSicon_RP2.svg 1232" transform="matrix(0.00000002672744336962296, 1.0000003576278687, -1.0000003576278687, 0.00000002672744336962296, 2750, 750)" clip-path="url(#mask_34)">
			<path d="M0,-250 L0,250" style="fill:none;stroke:#999999;stroke-linecap:butt;stroke-linejoin:miter;stroke-miterlimit:4;stroke-width:110;" />
			<path d="M0,-218.8 L0,250" style="fill:none;stroke:#FFFFFF;stroke-linecap:butt;stroke-linejoin:miter;stroke-miterlimit:4;stroke-width:25;stroke-dasharray:62.5;" />
		</g>
		<g id="BSicon_RP2.svg 1302" transform="matrix(0.00000002672744336962296, 1.0000003576278687, -1.0000003576278687, 0.00000002672744336962296, 3750.0009765625, 750)" clip-path="url(#mask_35)">
			<path d="M0,-250 L0,250" style="fill:none;stroke:#999999;stroke-linecap:butt;stroke-linejoin:miter;stroke-miterlimit:4;stroke-width:110;" />
			<path d="M0,-218.8 L0,250" style="fill:none;stroke:#FFFFFF;stroke-linecap:butt;stroke-linejoin:miter;stroke-miterlimit:4;stroke-width:25;stroke-dasharray:62.5;" />
		</g>
		<g id="BSicon_RP2.svg 1262" transform="matrix(0.00000002672744336962296, 1.0000003576278687, -1.0000003576278687, 0.00000002672744336962296, 2750, 1750)" clip-path="url(#mask_36)">
			<path d="M0,-250 L0,250" style="fill:none;stroke:#999999;stroke-linecap:butt;stroke-linejoin:miter;stroke-miterlimit:4;stroke-width:110;" />
			<path d="M0,-218.8 L0,250" style="fill:none;stroke:#FFFFFF;stroke-linecap:butt;stroke-linejoin:miter;stroke-miterlimit:4;stroke-width:25;stroke-dasharray:62.5;" />
		</g>
		<g id="BSicon_RP2sRP2.svg2" clip-path="url(#mask_37)">
			<g id="Group 4642">
				<path d="M3500,1750 L4000,1750" style="fill:none;stroke:#999999;stroke-linecap:butt;stroke-linejoin:miter;stroke-miterlimit:4;stroke-width:110;" />
				<path d="M3750,1750 L3750,2000" style="fill:none;stroke:#999999;stroke-linecap:butt;stroke-linejoin:miter;stroke-miterlimit:4;stroke-width:110;" />
				<path d="M3531.3,1750 L4000,1750" style="fill:none;stroke:#FFFFFF;stroke-linecap:butt;stroke-linejoin:miter;stroke-miterlimit:4;stroke-width:25;stroke-dasharray:62.5;" />
				<path d="M3750,1968.8 L3750,1800" style="fill:none;stroke:#FFFFFF;stroke-linecap:butt;stroke-linejoin:miter;stroke-miterlimit:4;stroke-width:25;stroke-dasharray:62.5;" />
			</g>
		</g>
		<g id="BSicon_uhvSTR.svg2" transform="matrix(-0.0000000009612812768011736, -1.0000001192092896, 1.0000001192092896, -0.0000000009612812768011736, 750.000244140625, 1250)" clip-path="url(#mask_38)">
			<path d="M-125,-250 L-125,250M125,250 L125,-250" style="fill:#000000;stroke:#00B500;stroke-linecap:butt;stroke-linejoin:miter;stroke-miterlimit:4;stroke-width:100;" />
			<path d="M-250,-250 L-250,250M250,250 L250,-250" style="fill:#000000;stroke:#80A080;stroke-linecap:butt;stroke-linejoin:miter;stroke-miterlimit:4;stroke-width:50;" />
		</g>
		<g id="BSicon_uhvSTR.svg 1432" transform="matrix(-0.0000000009612812768011736, -1.0000001192092896, 1.0000001192092896, -0.0000000009612812768011736, 1250, 1250)" clip-path="url(#mask_39)">
			<path d="M-125,-250 L-125,250M125,250 L125,-250" style="fill:#000000;stroke:#00B500;stroke-linecap:butt;stroke-linejoin:miter;stroke-miterlimit:4;stroke-width:100;" />
			<path d="M-250,-250 L-250,250M250,250 L250,-250" style="fill:#000000;stroke:#80A080;stroke-linecap:butt;stroke-linejoin:miter;stroke-miterlimit:4;stroke-width:50;" />
		</g>
		<g id="BSicon_vNULfg.svg2" transform="matrix(0.000000001943538219251195, -1.000000238418579, 1.000000238418579, 0.000000001943538219251195, 750, 1247.66015625)" clip-path="url(#mask_40)">
			<path d="M75,0 L125,-50 L175,0 L175,50 L125,0 L75,50M-175,-50 L-125,0 L-75,-50 L-75,0 L-125,50 L-175,0" style="fill:#FFFFFF;" />
		</g>
		<g id="BSicon_lhvCONTg++.svg 182" transform="matrix(0.00000000033581071257060557, -1.000000238418579, 1.000000238418579, 0.00000000033581071257060557, 250.00006103515625, 1250)" clip-path="url(#mask_41)">
			<g id="Right_Track_and_Arrow 202">
				<path d="M125,250 L125,50" style="fill:none;stroke:#00B500;stroke-linecap:butt;stroke-linejoin:miter;stroke-miterlimit:4;stroke-width:100;" />
				<path d="M227.5,50 L227.5,0 L125,-102.5 L22.5,0 L22.5,50" style="fill:#00B500;" />
			</g>
			<g id="Left_Track_and_Ribbon_Tail 202">
				<path d="M-75,250 L-75,-100 L-125,-50 L-175,-100 L-175,250" style="fill:#00B500;" />
			</g>
			<g id="Left_Elevated_Tails 202">
				<path d="M-250,250 L-250,50" style="fill:none;stroke:#80A080;stroke-linecap:round;stroke-linejoin:miter;stroke-miterlimit:4;stroke-width:50;stroke-dasharray:0 75;" />
			</g>
			<g id="Right_Elevated_Tails 202">
				<path d="M250,250 L250,50" style="fill:none;stroke:#80A080;stroke-linecap:round;stroke-linejoin:miter;stroke-miterlimit:4;stroke-width:50;stroke-dasharray:0 75;" />
			</g>
		</g>
		<g id="BSicon_lhvCONTg++.svg 192" transform="matrix(0.0000000020619337348648514, 1.000000238418579, -1.000000238418579, 0.0000000020619337348648514, 4250.00048828125, 1250)" clip-path="url(#mask_42)">
			<g id="Right_Track_and_Arrow 212">
				<path d="M125,250 L125,50" style="fill:none;stroke:#00B500;stroke-linecap:butt;stroke-linejoin:miter;stroke-miterlimit:4;stroke-width:100;" />
				<path d="M227.5,50 L227.5,0 L125,-102.5 L22.5,0 L22.5,50" style="fill:#00B500;" />
			</g>
			<g id="Left_Track_and_Ribbon_Tail 212">
				<path d="M-75,250 L-75,-100 L-125,-50 L-175,-100 L-175,250" style="fill:#00B500;" />
			</g>
			<g id="Left_Elevated_Tails 212">
				<path d="M-250,250 L-250,50" style="fill:none;stroke:#80A080;stroke-linecap:round;stroke-linejoin:miter;stroke-miterlimit:4;stroke-width:50;stroke-dasharray:0 75;" />
			</g>
			<g id="Right_Elevated_Tails 212">
				<path d="M250,250 L250,50" style="fill:none;stroke:#80A080;stroke-linecap:round;stroke-linejoin:miter;stroke-miterlimit:4;stroke-width:50;stroke-dasharray:0 75;" />
			</g>
		</g>
	</g>
</svg>